<svg width="317" height="224" viewBox="0 0 317 224" fill="none" xmlns="http://www.w3.org/2000/svg">
<path fill-rule="evenodd" clip-rule="evenodd" d="M171 153.751C166.425 154.661 161.85 155.572 157.275 156.482C159.219 157.233 161.164 157.984 163.108 158.734C176.73 163.994 190.352 169.253 203.974 174.512L204.304 174.64C201.813 177.192 199.321 179.745 196.83 182.297C194.389 184.797 191.948 187.297 189.508 189.798L196.988 194.965L195.252 196.508C194.157 197.481 193.062 198.455 191.967 199.429C190.631 200.616 189.296 201.803 187.96 202.99C186.227 204.531 184.493 206.072 182.76 207.614L179.497 210.514C179.433 210.571 179.364 210.641 179.292 210.714C179.074 210.934 178.825 211.185 178.592 211.213C178.26 211.253 177.662 210.955 177.191 210.719C176.997 210.623 176.825 210.537 176.701 210.489C175.358 209.973 174.016 209.453 172.676 208.93C168.549 207.324 164.432 205.695 160.325 204.041C150.255 199.987 140.189 195.857 130.382 191.194C125.851 189.04 121.577 186.717 117.708 183.484C113.451 179.927 109.683 175.801 106.222 171.476C103.307 167.835 100.602 164.025 98.0873 160.098C97.8443 159.719 97.5223 159.284 97.1772 158.818C96.2952 157.627 95.2663 156.237 95.0373 155.074C94.9202 154.476 95.1143 153.624 95.2863 152.87C95.3643 152.527 95.4383 152.205 95.4753 151.935L96.3373 145.793C96.3843 145.454 96.4623 145.083 96.5433 144.699C96.7113 143.896 96.8913 143.04 96.8243 142.319C96.7433 141.441 96.2633 140.423 95.8213 139.484C95.6153 139.049 95.4183 138.63 95.2733 138.25C95.2173 138.104 95.1532 137.888 95.0812 137.642C94.8643 136.907 94.5693 135.907 94.1733 135.725C93.9203 135.608 93.2703 135.76 92.7863 135.874C92.5963 135.918 92.4323 135.957 92.3273 135.97C90.3453 136.235 88.3633 136.5 86.3813 136.764C85.3493 136.902 84.3173 137.04 83.2853 137.177L59.0387 140.413C58.3055 140.511 57.5496 140.646 56.7851 140.783C55.2297 141.061 53.6387 141.345 52.1311 141.335C50.4324 141.324 49.141 140.238 48.3323 138.819C45.9044 134.559 43.5407 130.209 41.6509 125.679C39.8238 121.3 39.8978 117.576 40.871 112.958C41.723 108.917 42.8776 104.843 44.3544 100.98C44.7128 100.043 44.7988 100.043 45.5201 100.043C45.6564 100.044 45.8152 100.044 46.0028 100.037C50.8495 99.8773 55.6965 99.7173 60.5433 99.5573C68.7482 99.2863 76.9533 99.0153 85.1583 98.7433C93.3573 98.4723 101.557 98.2013 109.757 97.9313C115.541 97.7403 121.325 97.5483 127.108 97.3573C127.368 97.3493 127.698 97.3073 128.054 97.2633C128.857 97.1623 129.792 97.0463 130.355 97.2503C130.654 97.3593 130.955 97.7114 131.218 98.0184C131.321 98.1394 131.419 98.2533 131.508 98.3433C132.88 99.7233 134.251 101.103 135.623 102.483C141.522 108.417 147.508 114.264 153.494 120.11C155.322 121.896 157.151 123.682 158.976 125.47C164.046 130.434 169.115 135.399 174.184 140.363C177.792 143.897 181.399 147.43 185.007 150.963C180.338 151.892 175.669 152.821 171 153.751ZM204.971 128.325C217.256 125.683 229.811 122.427 241.278 117.229C250.013 113.271 258.333 107.169 264.618 99.8804C264.32 106.203 263.716 114.161 259.997 119.487C258.693 121.356 256.782 122.844 254.984 124.245C254.833 124.362 254.684 124.479 254.535 124.595C251.706 126.807 248.762 128.874 245.782 130.876C245.349 131.167 244.915 131.459 244.479 131.753C239.615 135.033 234.541 138.454 229.135 140.68C227.501 141.352 226.569 141.231 224.936 140.511C222.319 139.357 219.842 137.845 217.401 136.355C217.285 136.284 217.168 136.213 217.051 136.142C212.958 133.644 208.936 131.022 204.971 128.325Z" fill="#FF5678"/>
<path fill-rule="evenodd" clip-rule="evenodd" d="M112.275 0.169473C115.518 0.860473 117.857 4.17947 119.973 6.49047C122.513 9.26247 124.909 12.2225 126.621 15.5885C128.375 19.0375 129.363 23.0185 129.727 26.8625C129.887 28.5535 129.76 30.1505 129.624 31.8305C129.478 33.6255 130.469 34.4235 131.919 35.3595C134.931 37.3035 138.466 38.5355 140.959 41.1885C143.071 43.4375 144.991 43.5285 147.962 43.0125C155.341 41.7315 162.467 39.9795 170.018 39.8385C171.935 39.8025 173.857 39.8495 175.772 39.9505C176.401 39.9835 177.083 40.1295 177.708 40.0555C178.61 39.9475 178.686 39.5635 179.274 39.0835C181.862 36.9695 185.856 37.6225 188.936 37.8255C196.709 38.3395 204.228 39.6895 211.669 42.0135C219.704 44.5235 228.021 46.0295 236.015 48.6735C243.738 51.2275 250.984 54.9685 258.387 58.2925C265.916 61.6745 273.193 65.5185 280.36 69.6075C287.288 73.5595 294.392 77.3745 300.839 82.0905C306.718 86.3905 311.806 91.8795 315.743 98.0235C317.057 100.074 316.838 101.588 314.055 101.411C314.302 103.715 312.821 105.015 310.588 104.986C311.644 106.739 313.684 108.984 313.261 111.202C312.699 114.151 309.023 112.873 307.201 112.158C307.837 114.297 309.513 117.633 308.089 119.771C305.882 123.085 300.445 120.616 298.039 119.002C291.911 114.888 287.333 109.159 281.682 104.516C274.678 98.7635 267.058 93.5555 259.471 88.6115C258.872 88.2215 252.036 83.4325 251.411 84.4135C254.695 87.9195 257.576 91.9335 261.682 94.5525C262.813 91.9455 264.218 92.8135 265.003 95.0225C265.948 97.6775 266.965 100.468 267.043 103.314C267.198 108.915 264.885 114.765 262.167 119.562C259.325 124.579 255.364 128.781 250.932 132.427C248.423 134.492 245.886 136.466 243.057 138.073C241.789 138.792 240.535 139.581 239.203 140.177C237.922 140.75 236.467 141.038 235.363 141.953C247.617 144.9 260.401 144.521 272.652 147.326C275.609 148.002 281.704 150.099 279.749 154.329C278.236 157.601 273.456 158.721 270.425 159.954C273.208 161.65 273.295 163.755 270.5 165.594C269.378 166.333 268.149 166.826 266.85 167.138C265.969 167.349 264.37 167.359 263.802 168.208C266.834 168.887 270.585 168.009 273.328 169.751C276.128 171.528 273.748 173.942 271.864 175.257C269.385 176.987 265.898 178.997 262.832 178.198C260.409 177.566 258.438 178.234 255.956 178.46C253.395 178.693 250.814 178.684 248.252 178.477C238.499 177.69 228.978 174.421 219.82 171.161C210.67 167.904 201.922 163.853 193.572 158.884C191.512 157.658 189.676 156.069 187.589 154.902C185.392 153.673 183.423 153.94 181.059 154.471C175.687 155.676 170.108 155.861 164.859 157.637C173.835 161.823 183.103 165.221 192.354 168.729C195.875 170.064 199.695 172.029 203.521 172.124C205.199 172.166 208.68 171.69 209.629 173.547C210.322 174.901 209.144 175.404 208.574 176.34C207.748 177.696 209.329 177.754 210.529 177.989C212.041 178.283 213.348 178.204 214.825 177.727C217.087 176.997 218.918 176.69 221.283 177.223C224.999 178.059 228.812 178.124 232.53 178.924C234.07 179.256 234.839 181.056 235.789 182.187C237.281 183.965 238.92 185.611 240.537 187.274C243.587 190.408 246.346 193.712 250.195 195.912C253.569 197.839 257.202 199.408 260.755 200.978C266.304 203.431 273.335 206.426 273.238 213.571C273.142 220.634 266.004 221.394 260.427 221.321C258.08 221.291 254.718 220.526 252.601 221.671C250.775 222.66 249.452 223.031 247.333 223.002C244.876 222.967 242.443 223.123 239.991 223.26C234.85 223.549 229.561 223.346 224.451 222.692C222 222.379 219.868 221.718 217.724 220.469C217.087 220.098 216.553 219.494 215.845 219.65C215.242 219.783 214.537 221.053 214.149 221.524C212.924 223.011 211.502 224.338 209.523 223.299C208.26 222.636 206.892 220.9 208.25 219.652C209.291 218.694 211.636 219.039 212.207 217.526C212.805 215.943 210.377 214.346 209.51 213.346C207.894 215.029 205.666 218.213 203.02 216.532C200.9 215.187 202.631 213.729 204.132 212.835C205.987 211.73 208.32 211.325 206.733 208.867C205.83 207.472 204.614 206.307 204.113 204.681C203.732 203.445 203.838 202.155 203.581 200.902C203.122 198.664 200.31 197.25 198.104 197.166C196.757 197.114 196.609 198.287 196.002 199.291C195.11 200.767 193.832 202.001 192.533 203.116C190.402 204.945 188.094 206.528 185.794 208.127C184.269 209.187 181.506 210.739 183.155 212.618C185.568 215.369 181.15 214.746 179.522 214.352C175.733 213.434 171.926 212.598 168.161 211.581C160.439 209.495 153.095 206.452 145.919 202.939C138.875 199.49 131.911 195.716 125.284 191.515C122.074 189.479 118.952 187.284 116.062 184.812C112.957 182.157 110.179 179.152 107.035 176.538C103.773 173.824 100.561 171.202 98.0895 167.709C95.7985 164.473 93.2125 160.866 92.3525 156.958C91.4025 152.641 90.5945 148.753 91.1425 144.302C91.3715 142.444 91.7055 140.49 92.4235 138.756C92.6295 138.257 93.8825 136.436 93.4345 135.912C93.4595 135.941 89.9934 137.25 89.6264 137.365C87.2974 138.098 84.8185 138.199 82.4025 138.481C75.2579 139.317 68.2387 141.065 61.055 141.586C58.3466 141.783 55.5726 142.771 52.8622 142.648C51.5819 142.591 51.1354 141.959 50.1231 141.58C49.6609 141.407 49.2439 141.586 48.7887 141.305C48.2557 140.977 48.0303 140.388 47.7171 139.879C46.0442 137.16 43.7206 134.909 42.0569 132.182C40.186 129.115 39.5085 125.668 38.8568 122.185C37.1539 122.691 35.3368 123.089 33.5625 122.733C33.127 127.134 27.462 128.261 23.9228 128.686C19.5028 129.218 14.3309 129.89 11.2077 126.005C7.53725 121.438 6.38785 115.192 4.88865 109.675C3.12795 103.197 1.60905 96.5645 0.536651 89.9355C-0.375349 84.2975 -0.335049 78.2355 2.33145 73.0395C4.68415 68.4555 9.70515 64.9985 14.8121 67.7235C18.6506 69.7725 21.1215 74.4075 22.2083 78.4735C22.7614 80.5425 23.0632 82.4425 25.5155 81.3155C26.4583 80.8815 27.2817 80.3295 28.2278 81.1905C29.062 81.9475 29.0413 83.3045 28.3682 84.1465C27.7584 84.9105 26.2992 85.1135 25.9848 86.1235C25.6737 87.1245 26.7713 88.3885 27.7604 88.3685C28.8866 88.3465 29.4243 86.7785 30.6512 87.1925C31.7754 87.5715 31.4888 88.7875 30.9572 89.5765C30.3285 90.5115 29.6 90.8335 30.4237 91.9265C31.0555 92.7645 32.0556 93.1995 32.655 94.1035C34.1342 96.3325 35.1951 99.7625 34.646 102.438C36.546 102.25 41.5005 103.491 42.5829 101.405C42.9757 100.648 42.8377 99.6885 43.2705 98.9095C43.7795 97.9935 44.651 97.4635 45.6212 97.1275C47.6954 96.4085 50.0133 96.5925 52.172 96.5705C55.7507 96.5345 59.3321 96.4075 62.9087 96.2875C70.1059 96.0455 77.2875 95.4155 84.4865 95.2695C91.6704 95.1235 98.8575 95.3415 106.038 95.5545C109.804 95.6665 113.576 95.8895 117.343 95.8785C120.864 95.8675 124.487 95.6415 127.942 96.4675C126.506 92.7625 124.026 89.6045 122.159 86.1255C120.238 82.5465 119.117 78.8055 118.908 74.7435C118.717 71.0225 118.824 67.3445 119.985 63.7725C120.454 62.3285 120.999 60.8745 121.848 59.6095C122.451 58.7105 123.391 57.8695 123.806 56.8615C124.214 55.8675 124.045 55.6925 122.893 55.5205C122.252 55.4235 121.698 55.4715 121.069 55.2785C120.491 55.1025 119.935 54.6765 119.305 54.7065C117.853 54.7755 116.09 56.5725 114.907 57.3305C113.292 58.3635 111.605 59.3435 109.775 59.9435C103.767 61.9105 95.7175 59.8935 90.5835 56.4685C88.8705 55.3255 84.9365 52.6965 85.7815 50.2185C86.2275 48.9105 87.5235 48.9235 88.4515 48.1745C89.9035 47.0035 88.5805 45.8525 87.5695 44.9315C84.8165 42.4205 82.6715 39.3345 80.4505 36.3625C78.1895 33.3375 75.4305 30.7905 73.0004 27.9135C71.2563 25.8495 69.2551 23.5515 68.1301 21.0805C66.7561 18.0635 68.8036 17.1605 71.327 16.1505C79.3074 12.9535 87.0564 9.29147 94.8865 5.75047C98.0075 4.33947 101.142 2.91247 104.307 1.60247C106.773 0.581471 109.576 -0.404527 112.275 0.169473ZM226.985 182.22C222.759 183.348 218.661 185.211 219.584 190.226C222.114 199.577 229.77 205.341 237.604 210.235C239.58 211.469 241.542 212.807 243.626 213.855C244.853 214.472 246.077 214.613 247.352 215.037C247.665 215.141 248.261 215.585 248.537 215.613C249.192 215.681 249.198 215.447 249.782 215.257C251.056 214.843 251.489 215.7 252.638 216.232C254.817 217.241 258.146 216.318 260.447 216.29C262.572 216.263 271.31 217.478 270.045 213.322C268.81 209.262 263.971 208.19 260.47 207.004C255.59 205.35 250.532 203.513 246.138 200.779C241.961 198.18 238.726 194.097 235.514 190.437C233.512 188.156 232.643 186.046 231.609 183.242C231.171 182.055 231.068 181.659 229.827 181.707C228.867 181.744 227.909 181.974 226.985 182.22ZM211.972 184.693C209.674 186.017 208.23 188.393 207.478 190.894C207.092 192.173 206.977 193.406 207.042 194.732C207.124 196.419 206.885 198.29 207.689 199.833C209.149 202.633 212.009 205.421 214.256 207.612C216.782 210.076 219.956 212.771 223.354 213.888C226.624 214.964 230.235 214.668 233.378 216.186C232.892 215.087 231.633 214.468 230.634 213.93C229.178 213.147 227.878 212.339 226.565 211.317C223.661 209.057 221.1 206.485 219.143 203.352C217.247 200.316 215.775 196.758 215.182 193.217C214.899 191.532 214.809 189.698 215.206 188.022C215.471 186.902 216.141 185.855 216.282 184.706C216.605 182.073 213.119 184.032 211.972 184.693ZM140.555 114.866C137.192 115.99 133.916 117.379 130.512 118.437C123.632 120.577 116.43 122.508 110.783 127.212C102.567 134.057 94.2114 147.147 99.8445 157.868C106.498 170.532 117.192 180.989 129.365 188.364C137.136 193.072 145.396 197.048 153.642 200.847C161.617 204.522 170.297 206.2 178.414 209.495C177.391 202.315 180.459 194.878 184.761 189.256C187.073 186.236 189.547 183.287 192.3 180.659C193.653 179.367 195.093 178.213 196.565 177.062C197.682 176.189 198.866 174.991 200.276 174.62C200.031 173.581 197.332 173.752 196.557 173.66C193.884 173.343 191.216 172.553 188.64 171.786C183.032 170.116 177.677 167.761 172.32 165.43C169.702 164.29 167.058 163.207 164.456 162.028C162.114 160.966 159.906 159.407 157.46 158.599C154.943 157.768 152.239 158.058 149.639 158.107C146.516 158.166 143.417 158.106 140.294 158.239C135.08 158.461 129.697 156.506 124.627 155.473C122.922 155.125 120.416 155.041 118.952 154.008C117.625 153.072 117.524 151.212 118.738 150.119C120.825 148.24 125.171 149.188 127.61 149.597C132.12 150.352 136.565 150.941 141.161 150.842C147.455 150.707 153.662 151.639 159.96 151.478C166.751 151.305 173.582 151.244 180.319 150.28C178.006 147.401 174.738 145.295 172.017 142.825C168.894 139.991 165.775 137.154 162.67 134.301C157.198 129.27 151.235 124.314 146.64 118.445C145.065 116.433 143.401 113.915 140.555 114.866ZM190.192 194.562C189.266 194.919 188.745 196.032 188.228 196.804C186.627 199.195 185.065 201.557 183.91 204.207C186.225 202.592 187.9 200.28 190.09 198.529C190.879 197.898 193.787 196.246 192.896 195.144C192.395 194.526 190.874 194.299 190.192 194.562ZM200.18 184.181C198.052 186.409 195.784 188.478 193.472 190.513C195.462 190.821 197.506 191.396 199.287 192.343C200.101 192.776 201.882 194.172 202.791 193.533C203.635 192.939 203.651 190.534 203.925 189.609C204.625 187.241 205.809 184.893 207.184 182.851C204.213 181.662 202.426 181.83 200.18 184.181ZM159.511 96.1675C157.637 97.1455 155.789 98.1715 153.917 99.1535C150.179 101.114 146.315 102.91 142.164 103.793C141.82 104.952 143.799 106.303 144.464 106.99C146.212 108.794 147.8 110.79 149.441 112.693C152.92 116.727 156.59 120.535 160.454 124.2C164.358 127.902 168.018 131.872 171.983 135.507C175.82 139.025 179.929 142.362 183.972 145.641C199.728 158.416 219.379 165.358 238.501 171.282C243.861 172.942 249.353 174.242 254.969 174.577C257.288 174.715 259.631 174.752 261.955 174.728C263.517 174.712 266.152 174.86 267.325 173.598C262.632 172.803 256.818 173.347 252.616 170.771C250.015 169.176 252.063 167.139 254.189 166.288C258.303 164.641 263.124 165.561 267.06 163.463C265.502 161.645 262.303 162.428 260.231 162.316C257.612 162.175 257.254 160.943 259.432 159.591C262.112 157.926 265.579 157.783 268.563 156.947C270.02 156.539 276.156 154.977 273.684 152.538C271.738 150.619 268.024 150.755 265.505 150.43C261.971 149.974 258.394 148.851 254.854 148.668C251.392 148.489 247.94 148.661 244.468 148.433C240.844 148.195 237.25 147.839 233.693 147.083C226.837 145.624 220.224 143.071 214.01 139.847C207.607 136.525 201.737 132.405 196.17 127.833C193.241 125.428 190.406 122.915 187.53 120.448C184.752 118.066 181.718 115.878 179.31 113.108C176.648 110.045 173.481 107.405 170.753 104.369C169.275 102.723 167.722 101.131 166.308 99.4295C165.303 98.2195 164.391 96.3265 163.172 95.3485C162.026 94.4295 160.611 95.5945 159.511 96.1675ZM76.8395 159.731C77.6365 160.199 77.5795 160.474 77.6155 161.277C77.6895 162.921 77.7305 164.541 77.9505 166.179C78.7035 171.78 80.6955 177.331 82.7115 182.592C84.7235 187.841 87.8515 192.421 91.9825 196.239C95.9845 199.937 100.436 202.616 105.783 203.711C106.701 203.9 110.314 204.538 110.363 205.825C110.4 206.793 108.56 206.632 107.911 206.63C98.7145 206.615 89.5685 200.245 83.5495 193.786C81.0575 191.112 79.2115 188.247 77.4755 185.075C77.2215 184.612 73.601 178.055 74.3017 177.814C72.6488 173.092 71.2088 167.23 72.5478 162.249C73.048 160.389 74.746 158.503 76.8395 159.731ZM61.7143 164.037C61.6894 167.867 62.7484 171.544 63.7133 175.213C63.8891 175.881 64.7172 177.881 63.5921 178.078C62.7971 178.218 61.7398 176.337 61.4365 175.861C59.5972 172.974 58.4296 169.53 58.3128 166.1C58.2753 165.014 58.2848 163.685 59.3583 163.077C60.2921 162.548 61.5587 162.869 61.7143 164.037ZM263.68 103.451C263.236 103.795 263.114 104.296 263.073 104.827C259.904 108.948 256.031 113.108 252.001 116.398C248.401 119.336 243.906 121.207 239.694 123.085C230.062 127.38 220.201 130.384 209.547 129.74C214.465 132.66 219.266 136.909 224.963 138.224C227.794 138.878 230.491 137.547 232.926 136.235C235.913 134.624 238.916 132.989 241.737 131.096C247.066 127.52 252.747 123.608 256.794 118.558C258.588 116.32 259.892 113.747 260.957 111.096C261.567 109.577 262.02 107.994 262.643 106.483C263.002 105.612 263.943 104.432 263.68 103.451ZM206.348 45.1165C206.599 47.0245 205.829 48.8355 205.182 50.5835C204.742 51.7725 203.719 53.3105 204.584 54.3685C205.611 55.6245 208.12 56.0325 209.526 56.7425C211.608 57.7925 213.605 58.9995 215.58 60.2365C219.122 62.4585 222.751 64.5695 226.244 66.8655C229.563 69.0455 232.812 71.2955 236.658 72.4455C245.102 74.9715 252.99 79.3315 260.768 83.4185C268.698 87.5845 276.607 92.0555 283.845 97.3525C287.719 100.187 291.137 103.476 294.244 107.126C295.843 109.003 297.513 110.817 299.114 112.694C299.822 113.524 300.59 114.313 301.257 115.177C301.752 115.819 302.222 116.929 302.97 117.324C303.634 114.268 300.889 110.996 299.218 108.725C298.076 107.173 296.947 105.611 295.815 104.052C295.019 102.959 293.591 101.738 293.243 100.403C292.397 97.1585 297.118 98.6185 298.499 99.4235C301.916 101.414 304.399 104.972 307.113 107.768C307.044 105.098 301.087 102.218 302.728 99.5305C304.03 97.3985 308.009 100.899 309.188 101.825C309.158 98.5135 306.846 95.7575 304.579 93.5825C302.054 91.1585 299.258 88.9365 296.438 86.8695C289.845 82.0385 282.63 78.0245 275.495 74.0615C268.397 70.1185 261.167 66.4255 253.956 62.6955C246.953 59.0725 239.861 55.4695 232.364 52.9715C228.161 51.5705 223.85 50.5675 219.6 49.3295C215.148 48.0325 210.827 46.3245 206.348 45.1165ZM152.721 48.9545C152.556 49.0345 151.573 49.3705 151.517 49.4745C151.27 49.9315 151.975 51.0905 152.41 51.2335C151.285 52.5175 149.977 53.7465 148.31 54.2625C149.602 55.0845 152.024 56.4885 152.068 58.2475C152.127 60.6675 148.984 59.6295 147.701 59.1665C145.643 58.4215 143.53 57.6165 141.837 56.1945C140.762 55.2915 140.23 54.2055 139.35 53.1745C138.872 52.6145 139.047 52.4575 138.277 52.5755C137.398 52.7105 136.086 53.8515 135.35 54.3495C134.213 55.1205 133.124 55.9625 132.095 56.8715C130.195 58.5495 128.489 60.4575 127.088 62.5705C124.186 66.9465 122.708 72.1985 123.493 77.4385C126.029 76.5765 128.335 74.9145 130.23 73.0485C131.579 71.7205 132.923 70.2115 133.796 72.9645C134.136 74.0365 134.372 76.6515 133.895 77.6385C133.449 78.5605 133.047 77.9755 132.511 78.5855C131.891 79.2915 132.448 79.9995 132.612 80.7705C132.194 80.5485 131.776 80.3265 131.358 80.1035C130.894 81.0785 131.525 80.4755 131.875 80.9315C132.08 81.1965 131.293 82.2545 131.132 82.4465C130.799 82.8435 130.523 82.6325 130.161 83.1785C129.929 83.5295 129.75 84.2445 129.508 84.6735C128.257 86.8865 131.058 89.3435 132.34 91.1355C133.29 92.4635 134.291 93.7495 135.263 95.0585C135.975 96.0165 136.506 97.2215 137.36 98.0625C139.054 99.7325 141.765 98.0475 143.631 97.4015C146.163 96.5265 148.646 95.6535 151.196 94.8555C152.692 94.3875 154.227 93.1335 152.024 92.4005C149.837 91.6745 143.073 92.8865 142.407 89.9625C141.698 86.8555 145.919 85.4165 148.149 85.2225C151.409 84.9385 153.633 85.3045 156.316 87.2405C154.857 82.7705 150.809 79.6775 149.109 75.2435C148.648 74.0385 146.41 66.4855 150.111 69.1675C152.093 70.6045 153.935 73.0245 155.557 74.8275C158.013 77.5585 160.264 80.4595 162.59 83.2985C164.809 86.0095 167.733 88.4445 169.522 91.4495C170.529 93.1395 172.207 96.7845 174.371 97.2955C175.757 97.6235 177.718 96.3925 178.978 95.9255C179.757 95.6375 180.517 95.3555 181.108 94.7455C181.414 94.4285 181.634 93.7315 182.07 93.5655C183.326 93.0885 184.083 95.0015 184.189 95.9335C184.352 97.3715 183.782 97.8745 182.503 98.3175C184.949 98.9315 182.258 103.05 181.947 104.531C181.901 104.468 181.31 103.6 181.022 103.662C180.448 103.786 183.757 107.882 184 108.164C185.695 110.12 187.655 111.787 189.575 113.514C190.678 114.506 192.498 117.022 194.179 116.391C195.111 116.041 196.688 113.635 197.733 114.833C198.676 115.913 196.848 117.675 196.738 118.716C196.553 120.463 198.92 121.756 200.281 122.362C203.889 123.967 208.055 123.642 211.9 123.541C210.99 122.738 209.341 122.547 209.02 121.189C208.802 120.265 209.35 119.62 208.693 118.704C208.151 117.95 207.133 117.662 206.672 116.828C206.163 115.91 206.399 114.693 206.766 113.766C208.324 109.839 213.741 110.184 217.072 111.11C216.871 111.254 216.718 111.434 216.611 111.649L216.586 111.704L216.592 111.696C216.927 111.379 218.752 111.763 218.992 111.868C219.749 112.202 220.87 113.117 221.469 113.704C223.397 115.595 224.176 118.232 223.947 120.888C233.091 118.944 241.186 114.677 248.543 109.053C250.223 107.769 251.938 106.811 253.471 105.319C255.046 103.786 256.504 102.146 258.036 100.573C259.476 99.0965 259.181 98.4555 257.719 97.1005C255.938 95.4525 254.293 93.6405 252.385 92.1345C252.26 92.6905 252.384 93.7235 251.952 94.1415C251.474 94.6025 250.823 94.0265 250.507 94.3635C250.535 94.3335 249.749 96.4065 249.463 95.9925C250.202 97.0635 248.084 96.7295 247.691 96.5855C248.006 97.6695 247.292 98.8115 246.466 97.4495C245.341 99.0235 241.782 98.5575 243.149 96.2085C243.823 95.0485 244.673 94.3275 244.957 92.9405C245.276 91.3875 245.15 89.7335 244.902 88.1805C244.316 84.5195 241.997 83.2455 239.041 81.4195C237.391 80.3995 235.694 79.4595 234.013 78.4915C232.536 77.6415 231.169 76.4895 229.648 75.7335C228.556 75.1905 227.764 75.1355 226.994 75.9725C226.676 76.3175 226.626 76.6805 226.2 77.0385C225.655 77.4965 224.785 77.8935 224.116 78.1255C220.755 79.2885 216.508 78.9545 213.073 78.3525C212.133 78.1875 211.597 77.7075 210.756 77.4345C210.223 77.2625 209.854 77.5135 209.282 77.2935C207.785 76.7205 207.56 75.3375 208.29 74.0685C209.999 71.0935 213.694 72.6565 215.555 70.1535C217.873 67.0335 212.379 64.5695 210.131 63.4395C208.331 62.5345 206.954 62.5485 205.006 62.6245C204.598 62.6405 201.827 62.4425 202.971 63.3315C200.931 63.7095 199.936 63.9305 198.572 65.5435C198.214 65.9665 197.711 66.4015 197.714 66.9925C197.715 67.3045 198.344 67.2335 198.344 67.2305C198.304 67.4485 197.762 67.9455 197.686 68.0285C198.757 67.9295 198.922 70.0375 198.655 70.1065L198.639 70.1085L198.675 70.1285C199.223 70.4635 198.335 71.3465 198.01 71.5325C197.086 72.0605 195.999 71.5715 195.19 71.0235C193.379 69.7975 191.745 67.4045 191.386 65.2485C190.882 62.2215 192.481 60.0645 193.628 57.4715C194.486 55.5315 192.49 55.0215 191.008 54.2335C189.195 53.2695 186.766 52.1275 185.823 50.1795C184.964 48.4045 186.105 47.4925 187.862 47.7075C190.236 47.9985 192.443 49.5755 194.664 50.3835C196.635 51.1015 199.303 52.8545 201.457 52.5295C200.772 51.2235 198.871 51.7815 197.904 50.9095C196.628 49.7565 198.032 48.8235 199.225 48.7335C200.151 48.6625 203.126 50.0235 202.592 47.8395C202.305 46.6695 200.257 46.6925 199.33 46.5335C194.617 45.7275 189.915 45.4935 185.136 45.6725C183.587 45.7305 183.244 45.9935 182.808 47.4955C182.661 48.0055 182.228 50.2995 181.448 49.0055C181.06 50.2845 181.136 51.5425 179.861 52.2955C178.238 53.2515 175.808 52.8625 174.056 52.5325C172.552 52.2495 171.067 51.7195 169.919 50.6745C169.347 50.1555 168.881 49.5435 168.519 48.8615C168.211 48.2835 168.08 47.2565 167.641 46.7645C166.909 45.9425 165.678 46.4145 164.675 46.5305C162.436 46.7885 160.23 47.0605 158.018 47.5035C156.181 47.8715 154.407 48.1325 152.721 48.9545ZM217.906 121.022C217.257 121.422 218.683 121.997 219.073 121.811C218.847 121.574 218.375 120.732 217.906 121.022ZM216.586 111.704L216.57 111.722C216.55 111.749 216.54 111.781 216.54 111.817C216.55 111.788 216.561 111.759 216.573 111.731L216.586 111.704ZM225.934 86.6555C226.683 87.0545 226.689 88.3445 227.286 89.0115C228.882 90.7975 231.406 92.3565 233.644 93.1645C236.054 94.0335 237.426 95.5355 238.457 97.8195C238.67 98.2915 239.141 98.9095 239.092 99.4555C239.045 99.9655 238.541 100.239 238.466 100.7C238.432 100.912 239.07 102.354 239.032 102.367C238.853 102.428 238.156 101.782 238.16 101.785C238.06 102.357 238.261 102.94 237.748 103.343L237.685 103.389L237.696 103.394C237.862 103.474 238.627 103.876 238.497 104.028C238.316 104.239 237.763 104.238 237.513 104.392C237.119 104.635 236.892 105.08 236.52 105.344C235.52 106.051 234.221 106.175 233.024 106.255C230.503 106.423 227.565 106.133 225.412 104.697C222.803 102.958 222.828 100.575 222.112 98.1545C221.308 95.4385 222.41 90.8285 223.555 88.3475C223.946 87.4995 224.78 86.0425 225.934 86.6555ZM45.4292 102.563C45.3604 102.919 45.6068 103.399 45.6018 103.776C45.5925 104.537 45.3061 105.263 45.03 105.96C44.5131 107.263 43.9713 108.473 43.7269 109.871C43.1268 113.305 42.6712 116.965 42.7746 120.448C42.9978 127.927 48.625 132.938 50.3535 139.9C51.9094 137.364 54.9362 136.615 57.6509 136.032C61.2635 135.255 64.8766 134.646 68.5445 134.197C75.5615 133.339 82.6544 132.088 89.7185 133.218C90.4955 133.342 91.0605 133.348 91.8145 133.346C92.6425 133.343 92.1435 133.062 92.8225 133.407C93.0055 133.501 93.1645 133.943 93.3615 134.069C94.3804 134.714 94.7664 134.046 95.2924 133.009C96.7394 130.155 98.2305 127.525 100.356 125.094C104.885 119.915 110.522 116.77 117.035 114.759C120.767 113.607 124.441 112.619 128.271 111.843C131.928 111.103 135.795 110.35 139.53 110.921C138.147 108.643 136.21 106.75 134.535 104.693C133.722 103.694 132.938 102.629 131.987 101.753C131.152 100.983 130.024 100.448 129.359 99.5075C129.324 99.7325 129.289 99.9575 129.253 100.182C121.805 99.6635 114.336 100.118 106.893 100.498C99.4174 100.88 91.9365 100.796 84.4605 101.098C80.7065 101.25 76.9915 101.651 73.2545 102.012C69.6575 102.36 66.1055 102.3 62.5016 102.373C58.8517 102.448 55.2654 102.36 51.6202 102.169C50.0918 102.088 48.6093 101.845 47.1029 101.677C45.9015 101.544 45.6295 101.518 45.4292 102.563ZM203.393 82.3295C203.786 83.1455 203.352 84.3985 203.311 85.2615C203.264 86.2405 202.815 86.7245 202.719 87.6255C202.635 88.4085 203.892 92.1995 201.773 91.4385C201.89 91.7045 202.279 92.0215 202.363 92.2635C202.469 92.5645 202.269 93.1015 202.413 93.3495C202.543 93.5735 203.515 94.1025 203.799 94.4605C204.921 95.8695 205.862 97.5655 206.614 99.2005C207.398 100.904 208.416 103.279 207.197 104.83C206.903 105.202 206.61 105.348 206.32 105.782C206.347 106.121 206.255 106.426 206.042 106.696C205.909 106.765 205.788 106.754 205.679 106.662C205.28 107.003 205.211 105.942 204.893 107.055C204.816 107.324 205.224 108.102 205.091 108.042C204.85 107.933 204.082 107.411 203.876 107.442C203.552 108.159 203.428 107.525 202.966 107.715C203.001 107.977 202.892 108.148 202.638 108.229C202.425 108.225 202.212 108.221 202 108.218C200.775 108.486 198.856 108.356 197.61 108.281C195.231 108.138 193.3 106.933 192.314 104.695C190.262 100.032 193.069 93.0605 195.249 88.8895C195.994 87.4655 201.359 78.1035 203.393 82.3295ZM226.326 93.8825C226.382 94.2995 226.639 94.8845 226.188 95.0275C226.11 94.5615 225.79 94.0105 226.326 93.8825ZM194.213 99.9825C194.673 101.119 194.578 100.434 194.276 101.348C194.014 100.903 193.993 100.448 194.213 99.9825ZM227.906 91.2285C228.136 91.4175 228.965 91.8815 228.397 92.1665C227.9 92.4145 227.943 91.5135 227.906 91.2285ZM200.855 88.4195C200.886 89.7415 201.542 89.2845 202.485 88.8425C201.942 88.7015 201.398 88.5605 200.855 88.4195ZM6.15385 76.2105C2.26995 81.2965 3.64165 88.4545 5.01095 94.1595C6.87155 101.912 9.00625 109.628 11.4095 117.229C12.4954 120.664 13.8751 122.237 17.5865 122.676C21.6071 123.152 25.594 122.047 29.4357 120.995C27.4627 115.37 24.3898 108.071 29.3726 102.989C29.8286 102.524 30.2589 102.161 30.898 101.99C31.32 101.878 32.0142 102.135 32.3773 101.851C33.1114 101.276 32.4016 100.241 31.9969 99.6565C30.7666 97.8795 28.8781 96.6485 27.2634 95.2625C25.2356 93.5215 23.8849 93.8665 21.5711 94.6265C20.6487 94.9295 17.0241 96.1425 17.3269 93.9715C17.5465 92.3925 20.5427 92.1395 21.653 91.5485C22.4943 91.1005 22.653 90.9485 22.4199 90.0405C22.055 88.6225 21.1517 88.4075 19.8868 88.7175C18.2596 89.1155 15.6091 90.5895 13.9716 89.5915C11.6332 88.1655 14.2474 86.2635 15.6586 85.7025C17.1359 85.1155 19.2367 84.9175 19.1871 82.9445C19.1393 81.0635 17.7191 79.0765 16.6344 77.6405C15.5848 76.2525 14.1806 74.4975 12.4775 73.8925C10.0745 73.0385 7.60415 74.3105 6.15385 76.2105ZM31.8297 106.346C29.9923 107.189 29.4162 109.937 29.5654 111.742C29.71 113.487 30.3731 115.881 31.8966 116.922C33.896 118.288 36.7223 117.567 38.8241 118.801C38.7811 114.765 39.4311 110.734 40.5898 106.873C39.0067 106.779 37.4361 106.556 35.8597 106.391C34.7066 106.271 32.9331 105.84 31.8297 106.346ZM157.453 88.3595C157.964 88.6375 158.125 88.7205 158.36 89.2775C157.347 89.5615 157.586 89.1655 157.453 88.3595ZM161.789 58.6645C163.404 58.3645 164.265 58.7245 165.717 59.2205C166.751 59.5735 167.739 58.7465 168.036 60.1395C170.219 57.5225 176.237 61.8025 178.37 62.8055C180.62 63.8625 182.896 65.1865 183.668 67.7635C183.897 68.5265 183.905 69.3565 184.186 70.1055C184.398 70.6685 184.89 71.1725 184.956 71.7905C185.031 72.5065 184.525 73.0415 184.529 73.7285C184.53 74.0015 184.826 74.4855 184.757 74.7205C184.04 77.1245 182.91 79.2115 180.377 79.9725C178.172 80.6355 175.521 80.3615 173.551 79.1425C171.804 78.0615 170.496 76.1625 169.706 74.2955C169.569 73.9725 169.529 73.1745 169.358 72.9135C169.108 72.5325 168.864 72.5765 168.592 72.2835C167.872 71.5055 166.754 69.9885 167.235 68.8635C165.619 69.6075 163.556 66.2445 162.697 65.3185C162.053 64.6255 160.775 64.2475 160.293 63.5425C159.632 62.5755 161.102 61.7875 160.403 61.1645C160.028 60.8315 158.526 61.4325 158.468 60.4095C158.416 59.4645 161.173 58.7785 161.789 58.6645ZM198.584 70.0835C198.604 70.0995 198.623 70.1075 198.639 70.1085L198.632 70.1045L198.584 70.0835ZM192.417 63.1055C192.538 62.9475 193.157 61.9815 193.376 62.5605C193.557 63.0355 192.653 63.0555 192.417 63.1055ZM105.595 16.5545C103.905 17.0225 102.772 19.1955 101.703 20.4365C100.107 22.2885 98.0835 23.8305 96.0115 25.1115C93.5975 26.6015 91.0905 28.0035 88.5595 29.2835C85.9925 30.5815 83.1905 31.3305 80.6385 32.6545C82.5014 34.8245 84.3655 36.9955 86.2295 39.1655C86.6455 38.2305 86.2495 37.3585 87.0945 36.5705C87.6805 36.0245 88.6415 35.7615 89.3695 35.4515C91.3955 34.5855 93.6375 33.7235 95.8755 33.6975C97.3204 33.6815 99.0875 34.4205 98.0925 36.1885C97.4645 37.3035 95.6315 37.4415 95.8035 38.9645C95.9675 40.4235 97.6885 41.3415 97.6705 42.9175C97.6445 45.1315 95.3985 44.9475 94.1695 43.7805C93.0725 42.7405 92.9295 40.5065 91.4505 39.9025C90.5685 39.5425 88.4665 39.7915 87.7315 40.4165C89.8565 42.9095 93.5605 45.7515 92.5365 49.4885C92.2215 50.6365 91.1375 51.2785 92.1365 52.1285C93.2885 53.1095 96.0995 53.5215 97.4105 52.8675C98.6375 52.2555 99.8145 50.4765 101.428 50.8895C102.953 51.2805 102.222 52.6485 102.572 53.6965C103.627 56.8515 109.866 53.5975 111.575 52.7855C113.29 51.9715 114.953 50.5295 116.809 50.0905C118.559 49.6765 120.372 50.1775 121.976 50.8735C123.177 51.3955 125.376 53.2015 126.715 52.9925C128.058 52.7835 129.523 50.4175 130.568 49.5725C132.444 48.0575 134.676 47.2605 136.753 46.0745C137.083 45.8865 138.561 45.2405 138.479 44.7185C138.4 44.2165 136.343 43.5205 135.982 43.3495C132.687 41.7865 129.976 39.2435 126.596 37.8435C125.089 37.2195 123.534 36.8835 121.911 36.8035C121.01 36.7595 118.624 36.9485 118.305 35.7455C122.249 34.1905 121.267 29.0655 118.926 26.5385C117.438 24.9315 115.55 24.4185 113.484 25.2705C110.491 26.5075 110.406 28.9085 110.268 31.7665C107.428 30.9225 103.931 28.1205 103.145 25.1645C102.271 21.8775 105.535 19.6905 105.595 16.5545ZM186.338 22.7305C190.799 22.6145 195.223 22.7835 199.656 23.3155C202.387 23.6435 206.25 23.6025 208.798 24.7645C209.542 25.1045 210.574 25.9795 210.165 26.9415C209.813 27.7705 208.535 27.8395 207.779 27.8825C204.348 28.0775 200.797 27.3785 197.35 27.3275C188.189 27.1915 179.026 28.1605 169.964 29.4205C167.465 29.7685 164.969 30.1395 162.471 30.4895C160.39 30.7815 158.151 31.3255 156.045 31.2885C154.384 31.2595 153.742 30.1795 154.649 28.6175C155.534 27.0955 157.515 26.8825 159.014 26.3205C167.898 23.8165 177.141 22.9695 186.338 22.7305ZM169.191 15.4785C172.325 15.8635 169.014 17.0695 167.714 17.2355C167.273 17.2915 161.44 17.9395 161.477 18.1155C160.337 18.3575 157.505 19.8705 156.441 18.8915C155.299 17.8405 158.972 16.6055 159.721 16.3895C162.603 15.5565 166.172 15.1075 169.191 15.4785Z" fill="black"/>
</svg>
