<svg width="845" height="603" viewBox="0 0 845 603" fill="none" xmlns="http://www.w3.org/2000/svg">
<path fill-rule="evenodd" clip-rule="evenodd" d="M358.995 253.473C349.895 260.07 351.343 273.051 354.083 282.482C358.117 296.369 366.152 309.224 375.318 320.305C391.579 339.963 419.184 362.036 444.63 344.778C467.29 329.408 481.584 298.395 486.518 272.272C488.043 264.199 490.074 252.17 482.909 246.101C472.317 237.13 453.632 238.762 440.845 239.917C432.424 240.677 424.299 243.258 415.977 242.047C396.642 239.229 375.123 241.781 358.995 253.473Z" fill="#FF5678"/>
<path fill-rule="evenodd" clip-rule="evenodd" d="M751.023 356.343C732.588 379.728 701.246 383.423 673.409 383.194C656.694 383.055 639.946 381.797 623.559 378.391C614.724 376.554 605.949 374.121 597.413 371.198C591.774 369.267 583.38 368.302 580.98 362.26C574.651 346.32 579.308 326.329 581.914 310.149C583.24 301.919 584.236 293.64 585.525 285.404C586.35 280.134 586.745 274.304 588.954 269.374C591.539 263.599 594.805 264.752 600.275 266.347C607.809 268.547 615.546 269.461 623.292 270.644C642.199 273.531 658.694 279.353 675.877 287.605C692.867 295.763 709.348 303.817 724.503 315.161C732.181 320.911 738.797 327.151 744.961 334.478C749.723 340.139 756.829 348.976 751.023 356.343ZM670.438 460.212C670.29 462.73 641.398 455.128 637.596 454.275C612.649 448.68 587.208 442.307 563.657 432.197C541.674 422.761 522.305 411.965 505.006 395.2C496.943 387.385 489.69 379.156 482.75 370.392C479.272 365.999 474.52 366.509 470.641 362.793C467.152 359.448 464.476 356.836 465.567 351.836C474.285 354.133 490.383 368.573 499.421 361.281C504.572 357.125 497.428 352.783 494.129 350.375C487.929 345.846 482.627 340.259 477.698 334.395C486.161 336.036 494.038 339.205 501.403 343.617C504.675 345.577 515.891 352.684 518.502 345.909C520.109 341.738 512.504 336.497 510.133 334.189C504.31 328.524 498.025 321.91 494.934 314.293C502.577 312.52 509.781 318.427 514.986 323.238C520.763 328.58 527.845 334.186 532.69 340.341C535.189 343.515 535.733 347.265 537.685 350.689C539.882 354.541 543.396 357.843 546.754 360.693C553.225 366.186 560.793 370.23 568.561 373.575C586.312 381.217 605.338 386.626 624.259 390.42C633.542 392.282 642.596 393.139 652.018 393.455C659.34 393.701 662.58 395.891 665.376 402.637C672.941 420.893 671.568 440.975 670.438 460.212ZM453.157 321.112C448.923 325.073 443.422 327.558 438.997 331.366C435.103 334.717 430.612 338.292 426.266 341.002C421.626 343.894 418.16 341.866 413.983 339.249C409.079 336.179 403.441 334.934 398.39 332.187C380.927 322.682 359.563 299.393 362.823 278.009C364.204 268.946 368.89 260.028 377.399 255.915C385.127 252.182 396.36 250.109 404.628 253.231C409.291 254.992 412.628 258.879 415.616 262.701C419.1 267.156 420.434 266.454 423.982 262.157C430.332 254.47 440.802 247.726 451.153 247.888C456.297 247.97 461.407 249.054 466.041 251.189C466.669 251.479 467.018 252.355 467.649 252.652C468.423 253.017 469.694 252.258 470.232 252.599C471.589 253.458 472.944 256.141 473.726 257.503C476.866 262.966 482.52 273.68 476.823 278.28C476.819 278.282 477.076 284.504 476.998 285.213C476.596 288.925 475.313 291.989 473.66 295.384C468.695 305.581 461.367 313.432 453.157 321.112ZM461.598 407.392C457.588 408.638 453.268 396.07 457.115 394.064C460.783 392.151 465.229 406.264 461.598 407.392ZM398.61 392.365C397.221 397.112 396.634 402.5 393.238 406.364C390.128 402.674 389.821 395.865 392.837 392.071C394.559 389.907 400.129 387.177 398.61 392.365ZM526.945 309.184C526.923 309.304 531.771 311.623 529.406 314.158C526.174 317.621 526.618 310.881 526.945 309.184ZM546.98 270.492C546.925 275.292 536.763 274.133 536.835 269.305C536.924 263.363 547.04 265.403 546.98 270.492ZM534.85 230.373C535.856 225.978 553.532 219.864 553.05 227.524C552.809 231.364 532.717 239.717 534.85 230.373ZM353.645 379.417C351.664 381.799 348.849 382.738 346.475 384.567C343.984 386.483 342.204 388.969 340.029 391.219C334.055 397.395 326.864 402.47 320.419 408.144C308.571 418.573 297.221 429.786 284.085 438.631C260.61 454.436 233.387 463.081 206.363 470.65C204.124 471.277 197.675 473.808 195.46 471.923C193.071 469.89 194.286 462.736 194.396 460.031C194.844 448.94 196.137 437.718 195.997 426.644C195.939 422.095 194.607 415.629 196.98 411.467C199.63 406.819 207.029 405.459 211.605 403.71C225.516 398.393 238.916 389.424 251.204 381.118C266.309 370.906 281.564 360.525 297.109 350.993C312.338 341.654 329.137 335.4 346.125 330.066C346.912 331.72 338.806 337.042 337.879 337.788C333.435 341.366 328.6 345.075 325.301 349.798C322.965 353.142 320.57 360.708 327.019 360.902C330.145 360.996 334.767 357.972 337.602 356.994C342.284 355.378 347.109 354.244 352.007 353.506C347.796 358.142 333.524 366.47 336.121 374.18C338.64 381.662 353.213 372.931 358.229 372.931C357.407 375.54 355.34 377.381 353.645 379.417ZM181.481 400.3C172.148 403.582 162.582 405.448 152.95 407.567C143.769 409.587 135.283 411.109 125.879 409.926C112.896 408.294 98.5278 402.916 96.8818 388.163C94.9298 370.683 107.275 354.62 117.875 342.079C130.776 326.821 145.262 313.18 160.962 300.829C176.644 288.489 193.571 277.611 211.304 268.427C224.795 261.44 240.032 257.198 254.297 251.954C257.011 250.957 264.517 247.452 267.055 250.357C269.107 252.706 266.315 256.619 265.38 258.8C263.556 263.052 263.305 267.333 262.834 271.898C260.731 292.286 258.199 312.668 257.034 333.144C256.71 338.85 256.138 344.82 256.471 350.53C256.655 353.693 258.301 357.721 257.205 360.809C255.098 366.745 245.449 370.674 240.335 373.326C231.181 378.073 221.487 381.615 212.238 386.155C202.081 391.142 192.191 396.532 181.481 400.3ZM310.913 267.825C313.475 267.473 317.312 266.775 319.596 268.435C322.574 270.599 321.793 273.61 319.042 275.18C316.87 276.421 311.786 276.76 309.64 275.634C305.984 273.717 306.603 268.418 310.913 267.825ZM325.1 315.035C323.03 318.483 315.465 320.744 316.124 314.31C316.689 308.801 328.913 308.686 325.1 315.035ZM322.292 217.906C325.62 219.195 331.659 220.298 332.646 224.579C333.564 228.563 329.789 228.3 327.064 227.203C324.823 226.303 314.84 217.837 322.292 217.906ZM843.686 369.895C841.743 362.331 843.223 353.958 842.15 346.211C841.11 338.701 839.237 331.8 836.551 324.723C830.602 309.055 823.786 294.951 814.143 281.2C795.982 255.305 774.911 232.496 749.468 213.582C724.349 194.91 696.534 179.735 667.069 169.1C635.825 157.821 604.374 153.896 571.425 151.734C561.585 151.089 551.755 150.324 541.971 149.081C534.82 148.173 525.856 147.054 518.786 149.244C514.345 150.621 511.863 154.494 516.702 157.036C520.132 158.838 524.624 159.054 528.413 159.533C523.836 174.073 516.389 188.664 504.587 198.676C493.065 208.451 477.647 211.802 463.106 214.281C455.221 215.624 446.392 216.664 438.385 216.084C433.322 215.719 429.372 213.375 427.329 218.589C425.912 222.212 425.241 226.187 423.372 220.717C421.162 214.25 420.077 214.291 413.202 212.454C399.141 208.698 383.021 205.271 370.754 197.147C358.028 188.719 353.602 175.085 346.497 162.389C344.74 159.251 339.44 152.9 342.148 149.304C344.625 146.016 352.678 146.344 356.366 146.001C360.258 145.639 364.174 145.624 368.079 145.472C370.341 145.385 374.892 146.312 373.981 142.933C372.608 137.84 357.896 138.493 354.243 138.41C347.449 138.258 340.561 138.415 333.801 139.162C300.284 142.869 266.465 149.723 234.031 158.863C171.103 176.595 110.157 209.269 64.2328 256.341C20.1498 301.526 6.18372 376.717 33.2838 434.41C47.3678 464.394 77.9318 476.711 107.56 486.659C123.188 491.905 139.736 496.01 156.349 495.02C164.321 494.544 171.885 492.398 179.66 490.781C183.051 490.075 186.91 488.95 190.393 489.234C193.029 489.449 195.562 491.869 198.035 490.583C199.79 489.67 200.553 487.05 202.698 485.934C205.274 484.595 208.396 484.111 211.178 483.436C218.909 481.558 226.395 478.512 233.952 476.015C241.767 473.432 249.142 470.106 256.64 466.744C260.426 465.045 269.187 458.141 271.655 463.189C272.779 465.493 272.3 469.936 272.574 472.352C273.054 476.578 273.618 480.795 274.235 485.003C275.593 494.267 277.219 503.493 278.885 512.708C281.892 529.333 285.768 545.249 292.248 560.889C297.422 573.376 301.964 587.53 311.572 597.464C315.766 601.8 321.488 603.751 327.504 602.389C334.346 600.838 337.752 594.623 341.906 589.598C351.045 578.539 366.134 570.066 380.067 567.015C397.128 563.28 413.748 568.743 430.033 573.387C447.26 578.299 464.796 582.979 481.705 588.883C497.461 594.386 514.474 602.513 531.561 601.806C546.463 601.19 560.381 589.062 571.128 579.817C581.921 570.533 595.417 556.938 610.937 558.033C618.643 558.575 625.666 562.293 633.172 563.804C641.413 565.464 650.182 565.699 658.562 566.318C668.964 567.085 692.237 564.373 696.085 551.859C696.656 550.002 696.659 546.179 694.208 545.436C691.952 544.754 690.8 547.39 688.664 547.27C684.317 547.025 680.92 539.446 678.532 536.511C668.895 524.666 655.676 515.831 644.862 505.13C632.651 493.048 622.226 478.409 613.025 463.971C617.185 462.89 621.672 464.686 625.698 465.539C630.59 466.575 635.357 467.827 640.177 469.154C645.49 470.617 650.879 471.623 656.271 472.738C660.294 473.568 665.634 473.819 669.265 475.837C672.435 477.599 674.205 479.491 678.14 480.002C682.142 480.522 686.251 480.084 690.272 480.057C701.146 479.983 711.998 479.781 722.821 478.632C761.065 474.569 801.604 458.393 824.601 426.289C830.855 417.557 835.894 407.884 839.079 397.619C841.564 389.604 845.849 378.31 843.686 369.895Z" fill="black"/>
<path fill-rule="evenodd" clip-rule="evenodd" d="M401.106 92.238C394.3 94.35 386.256 91.865 382.344 85.79C378.366 79.613 375.644 72.465 375.096 65.107C374.572 58.057 376.173 50.919 380.331 45.131C384.755 38.974 393.773 32.073 401.857 34.211C403.56 34.662 405.1 35.747 406.628 36.824C408.248 37.966 409.855 39.099 411.628 39.453C412.084 39.544 412.403 39.63 412.641 39.693C412.962 39.779 413.133 39.825 413.285 39.79C413.46 39.75 413.61 39.605 413.932 39.294C414.115 39.116 414.355 38.884 414.687 38.587C415.371 37.976 416.032 37.056 416.678 36.156C417.112 35.551 417.542 34.954 417.966 34.467C418.783 33.53 419.598 32.583 420.416 31.634C425.674 25.534 431.032 19.317 437.458 14.4923C450.773 4.49533 468.47 -0.226369 484.989 0.00833107C495.039 0.150631 504.459 3.13083 513.824 6.51893C514.61 6.80323 515.401 7.08543 516.194 7.36863L516.197 7.36963C523.718 10.0537 531.475 12.8222 537.498 18.2C549.476 28.897 552.596 46.608 554.556 61.76C556.678 78.169 550.83 92.286 544.772 106.911V106.913L544.77 106.916V106.917C543.848 109.143 542.921 111.38 542.017 113.638C535.613 129.637 523.858 142.598 509.886 152.474C502.565 157.647 494.475 160.77 486.011 163.508C484.255 164.076 482.51 164.684 480.767 165.291H480.766C473.975 167.655 467.207 170.011 459.887 170C445.917 169.98 428.033 163.345 422.082 149.582C419.373 143.315 422.011 142.19 427.432 145.596C428.38 146.191 429.323 146.792 430.266 147.392V147.393H430.267L430.27 147.396C437.151 151.778 443.988 156.134 452.07 158.061C469.894 162.313 491.242 155.726 506.871 147.034C522.494 138.345 532.983 125.291 539.993 109.038C547.065 92.64 549.813 76.482 547.085 58.805C544.775 43.824 540.176 30.14 526.677 22.008C497.534 4.45503 458.269 5.86933 432.353 28.681C428.798 31.808 425.285 34.851 421.623 37.838C419.294 39.736 416.552 42.013 416.891 45.295C416.965 46.019 417.418 47.276 417.926 48.685C419.39 52.749 421.314 58.086 415.956 55.615C413.747 54.596 411.919 53.209 410.117 51.842C407.148 49.59 404.251 47.392 399.84 46.986C392.297 46.29 383.3 52.084 381.043 59.377C378.891 66.336 382.729 75.857 388.74 79.848C392.122 82.094 395.813 81.984 399.63 81.87C400.014 81.859 400.4 81.847 400.786 81.838C401.08 81.831 401.448 81.812 401.866 81.79C404.434 81.654 408.919 81.418 410.113 83.325C412.57 87.248 403.903 91.371 401.106 92.238ZM491.903 123.281C493.181 120.77 494.445 118.287 495.875 116.043C496.538 115.002 497.62 114.283 498.657 113.594H498.658C498.956 113.396 499.25 113.2 499.53 113C503.025 118.446 499.572 124.28 496.598 129.304C496.253 129.887 495.914 130.459 495.594 131.018C494.653 132.658 493.735 134.366 492.808 136.089C490.828 139.77 488.812 143.517 486.475 146.811C480.777 154.839 468.381 146.154 468.013 137.903C467.731 131.587 472.205 134.336 475.077 136.695C478.033 139.125 479.433 139.73 482.532 137.076C486.697 133.508 489.329 128.337 491.903 123.281ZM458.347 101.034C459.601 92.75 453.929 99.183 452.716 102.993C451.218 107.694 449.979 114.334 452.244 118.999C456.403 127.562 468.128 123.481 473.771 118.932C476.416 116.799 480.123 112.356 479.997 108.653C479.778 102.21 474.815 106.073 471.762 108.449H471.761C471.372 108.752 471.014 109.031 470.7 109.261C470.574 109.354 470.439 109.453 470.298 109.557C467.466 111.649 461.838 115.806 458.54 113.749C455.509 111.86 456.724 107.373 457.68 103.843C457.966 102.79 458.228 101.822 458.347 101.034ZM475.122 67.625C481.817 66.292 490.44 66.979 496.265 70.775C503.771 75.665 493.902 79.186 489.627 79.624C484.452 80.152 477.836 80.502 473.083 77.963C466.346 74.364 468.592 68.927 475.122 67.625ZM398.68 55.208C393.561 54.213 386.417 56.797 389.941 62.885C392.571 67.429 399.051 68.958 404.122 70.155C404.738 70.3 405.334 70.441 405.899 70.581C411.537 71.981 414.326 69.917 412.385 63.698C410.505 57.679 404.2 56.282 398.68 55.208ZM505.574 118.887C506.045 116.92 508.792 109.526 510.648 114.954C510.933 115.788 510.968 117.012 511.005 118.319C511.099 121.622 511.207 125.461 515.409 124.903C517.577 124.616 518.604 122.44 519.556 120.424C520.028 119.425 520.481 118.465 521.045 117.793C526.775 110.97 525.018 123.875 523.521 127.105C520.221 134.223 510.985 139.128 506.404 130.097C504.7 126.738 504.708 122.498 505.574 118.887ZM527.145 90.191C529.803 93.278 534.234 98.425 537.14 94.697C539.976 91.058 535.096 85.419 532.663 82.608C532.557 82.486 532.456 82.369 532.36 82.258C532.291 82.177 532.217 82.091 532.139 82C529.939 79.434 524.298 72.855 521.434 77.783C519.643 80.868 523.844 86.683 525.841 88.725C526.196 89.088 526.638 89.602 527.145 90.191ZM449.071 150.746C446.328 147.596 446.615 141.758 448.169 138.113C449.435 135.145 451.552 138.819 452.779 140.946C453.078 141.465 453.324 141.891 453.492 142.107C454.041 142.814 454.83 143.469 455.641 144.142C457.33 145.544 459.111 147.022 458.995 149.193C458.711 154.497 451.482 153.513 449.071 150.746Z" fill="black"/>
<path fill-rule="evenodd" clip-rule="evenodd" d="M688.058 111.545C685.046 110.728 682.039 109.911 679.047 109.07C672.087 107.112 678.663 102.706 682.799 103.016C685.999 103.255 689.125 104.377 692.2 105.48C693.559 105.967 694.908 106.451 696.249 106.854C709.627 110.871 722.028 115.264 734.526 121.499C736.39 122.43 744.602 126.843 739.17 128.797C736.317 129.823 730.577 126.735 726.558 124.573C725.273 123.882 724.165 123.286 723.382 122.948C712.036 118.056 700.015 114.792 688.058 111.545ZM801.667 210.689C756.915 182.926 712.353 155.733 661.738 139.828C659.1 139 658.28 136.647 659.664 134.316C661.122 131.859 663.925 131.949 666.41 132.029L666.622 132.036C673.171 132.243 679.567 134.311 685.76 136.314L686.548 136.569C700.709 141.142 714.197 147.486 727.497 154.117C750.815 165.739 773.254 179.801 793.822 195.79C798.122 199.131 802.53 201.839 807.206 204.571C807.496 204.741 807.798 204.914 808.108 205.092C810.996 206.749 814.576 208.803 815.617 212.025C818.546 221.093 803.765 211.991 801.667 210.689ZM79.0422 202.437C62.6882 215.16 46.7072 228.407 31.9222 242.927C26.6582 248.097 22.2712 254.01 17.8882 259.92C15.8812 262.626 13.8742 265.331 11.7842 267.963C11.5602 268.245 11.3132 268.575 11.0442 268.934C9.36203 271.176 6.84543 274.531 4.09973 274.16C0.605731 273.69 -0.100574 267.672 0.0108258 265.044C0.392426 256.082 8.57733 247.427 14.4142 241.256C20.9802 234.317 28.0002 227.555 35.1692 221.237C43.0622 214.281 51.6282 208.302 60.3572 202.449C63.5472 200.31 66.6872 198.047 69.8342 195.78C75.1412 191.957 80.4632 188.123 86.0602 184.854C90.2592 182.402 97.2312 181.469 94.9462 188.85C93.6112 193.162 88.3682 196.427 83.7932 199.276C82.0202 200.38 80.3482 201.421 79.0422 202.437ZM20.4662 184.798C29.6722 181.932 38.2082 177.483 46.7442 173.034C52.3062 170.135 57.8692 167.236 63.6162 164.776C67.7492 163.006 71.9422 161.387 76.1342 159.768C79.9052 158.311 83.6752 156.855 87.4022 155.29C87.7532 155.142 88.1332 155.002 88.5242 154.857C90.4762 154.135 92.6912 153.315 92.9552 151.015C93.3172 147.831 91.4582 147.926 89.1872 148.042C89.0412 148.049 88.8922 148.057 88.7422 148.063C83.5662 148.296 78.0932 150.59 72.9212 152.758C70.7862 153.654 68.7012 154.528 66.7102 155.226C64.9372 155.848 63.1622 156.455 61.3882 157.061C55.8322 158.961 50.2922 160.856 44.8732 163.179C37.6632 166.269 30.3002 169.466 23.8072 173.914C23.5772 174.072 23.3372 174.233 23.0912 174.399C20.9412 175.846 18.3392 177.598 17.4092 179.988C16.4782 182.374 16.9912 185.881 20.4662 184.798Z" fill="black"/>
<path fill-rule="evenodd" clip-rule="evenodd" d="M401.608 123.331C402.478 120.779 413.238 92.8771 409.026 92.0361C404.565 91.1431 398.602 107.332 397.308 110.257C392.529 121.059 389.699 132.649 387.482 144.236C385.937 152.304 384.58 160.569 385.121 168.817C385.537 175.156 388.155 176.116 392.469 180C392.469 160.746 395.395 141.555 401.608 123.331Z" fill="black"/>
</svg>
