<svg width="725" height="841" viewBox="0 0 725 841" fill="none" xmlns="http://www.w3.org/2000/svg">
<path fill-rule="evenodd" clip-rule="evenodd" d="M130.967 562.93C156.545 549.424 182.123 535.918 207.7 522.412C231.953 576.484 292.844 611.179 351.37 598.385C365.635 595.266 379.776 588.217 386.625 574.611C391.777 564.378 391.97 552.361 389.639 541.334C387.673 532.044 384.015 522.239 378.029 514.761C370.508 505.365 358.947 498.149 349.589 490.777C335.092 479.351 320.463 468.093 305.795 456.889C303.871 455.422 298.517 452.782 297.44 450.524C296.537 448.634 297.44 444.043 297.44 441.972V432.226C318.722 439.991 342.457 444.264 365.077 443.099C402.733 441.159 432.968 413.894 459.823 389.681C464.612 385.363 469.32 380.954 473.915 376.429C474.795 375.563 477.023 372.358 478.251 372.116C479.895 371.791 484.214 374.513 485.725 375.121C490.953 377.221 496.18 379.322 501.408 381.425C514.135 386.541 526.928 390.72 538.42 398.234C587.186 430.126 639.064 469.12 661.232 524.988C673.832 556.743 681.346 590.652 685.933 624.467C686.558 629.078 688.161 634.821 687.361 639.428C685.897 647.873 681.101 656.822 678.207 664.861C674.531 675.077 670.854 685.291 667.178 695.507C666.772 696.634 666.271 699.481 665.328 700.19C663.365 701.664 656.81 701.162 654.452 701.42C640.914 702.909 627.34 704.417 613.737 705.164C601.509 705.837 590.106 702.708 578.445 699.224C571.955 697.285 565.513 695.187 559.103 692.997C557.662 692.504 550.613 691.176 549.79 689.728C549.43 689.092 550.642 686.105 550.81 685.406C551.873 680.956 552.852 676.487 553.78 672.007C560.321 640.379 565.139 607.231 562.377 574.89C559.5 541.197 540.798 514.579 517.235 491.533C508.567 483.054 499.344 475.125 489.691 467.798C487.999 466.513 484.911 463.166 482.771 462.737C481.053 462.392 479.762 463.827 478.049 464.947C473.085 468.19 468.122 471.433 463.159 474.674C461.825 475.544 456.623 477.842 456.141 479.376C455.735 480.669 457.855 484.944 458.21 486.189C459.716 491.453 461.059 496.765 462.273 502.105C470.232 537.085 473.949 575.374 464.171 610.359C454.94 643.398 433.613 673.13 405.005 691.942C375.41 711.404 340.991 716.221 306.638 709.52C245.544 697.599 182.907 661.753 149.633 607.732C141.114 593.901 134.678 578.778 130.967 562.93Z" fill="#FF5678"/>
<path fill-rule="evenodd" clip-rule="evenodd" d="M680.487 637.474C678.114 656.283 669.707 674.156 659.298 689.8C657.928 687.08 659.587 684.833 655.787 684.317C653.236 683.968 649.863 685.772 647.346 686.2C638.015 687.788 628.216 686.567 618.892 685.567C621.308 682.946 624.502 680.824 623.299 676.561C622.389 673.34 618.442 672.089 616.901 669.112C619.004 668.201 624.778 672.8 626.802 673.576C625.799 671.051 622.386 666.529 623.12 663.755C623.656 661.716 626.301 662.107 624.1 659.493C623.095 660.391 619.877 664.726 618.124 663.649C619.821 662.117 618.58 661.282 619.327 659.742C619.905 658.551 620.417 657.975 621.218 656.937C623.288 654.252 624.644 650.821 622.011 647.671C621.132 646.616 619.623 646.839 618.799 645.649C618.003 644.5 618.17 643.153 617.952 641.864C617.71 640.416 617.828 638.787 617.428 637.369C616.6 634.44 616.284 634.485 617.696 631.467C616.245 632.712 614.794 633.956 613.343 635.202C612.623 632.146 612.088 628.907 610.598 626.111C610.095 625.165 607.401 622.669 607.52 621.683C607.172 624.555 604.871 621.171 603.933 620.933C600.974 620.187 595.751 623.106 593.496 624.908C587.268 629.883 583.552 639.367 579.62 646.155C575.3 653.614 570.961 661.893 569.824 670.467C569.54 672.601 569.472 677.089 567.06 678.165C565.762 678.746 560.351 677.19 559.012 676.414C555.74 674.519 556.885 671.679 558.154 668.673C559.797 664.785 561.276 661.449 562.034 657.23C562.939 652.184 563.59 647.08 564.375 642.011C566.02 631.384 567.672 620.706 568.519 609.979C568.79 606.548 568.359 603.132 568.489 599.778C568.602 596.854 570.846 593.473 569.602 589.985C569.175 588.789 568.287 588.509 568.347 587.497C568.384 586.869 569.986 587.458 570.2 586.631C570.617 585.021 569.08 583.374 568.687 581.88C568.064 579.523 568.542 577.346 568.901 574.982C570.359 565.38 567.658 555.274 565.081 546.037C562.298 536.058 558.516 526.456 554.635 516.867C551.22 508.425 549.781 499.262 545.76 491.065C542.284 483.984 538.488 476.955 532.223 472.371C529.354 470.271 527.28 467.095 524.549 464.776C522.921 463.393 521.175 461.909 519.218 461.02C517.327 460.163 515.064 460.663 513.341 459.852C510.946 458.727 508.287 455.9 505.727 454.795C503.517 453.841 500.98 453.189 498.912 451.19C496.107 448.477 495.585 446.671 491.647 446.15C489.368 445.85 487.108 445.983 485.492 443.718C479.097 434.751 496.348 421.804 488.361 412.45C485.181 415.658 483.824 420.218 482.288 424.344C480.278 429.746 477.447 434.297 474.264 439.086C468.693 447.466 460.384 455.964 457.99 465.962C454.089 460.505 451.892 457.253 446.004 462.649C444.897 460.205 446.356 455.55 444.155 453.98C440.283 451.218 432.897 458.095 430.785 460.59C422.518 470.361 417.899 482.257 413.361 494.142C411.356 499.393 409.203 506.039 411.756 511.471C414.017 516.276 419.393 518.912 423.975 520.973C430.46 523.891 435.829 523.739 442.72 524.467C445.883 524.801 448.734 526.183 451.748 524.574C454.358 523.182 456.221 520.403 458.49 518.557C459.023 520.292 460.405 521.816 462.166 520.281C464.743 531.11 467.31 541.707 466.688 552.928C466.116 563.226 465.219 573.565 463.382 583.717C461.488 594.188 459.272 604.83 455.148 614.677C451.068 624.421 444.811 633.003 439.112 641.825C437.378 638.285 435.312 640.034 432.804 641.694C431.807 639.576 433.087 637.96 431.703 636.082C430.811 635.558 430.015 634.911 429.313 634.139C429.071 632.631 428.73 631.146 428.293 629.685C426.068 630.593 425.123 631.668 424.107 633.801C420.756 627.898 418.383 628.647 412.143 629.028C403.787 629.535 401.116 636.768 398.351 643.56C397.694 645.179 396.475 647.217 396.333 649.009C396.23 650.275 397.352 652.396 397.2 653.05C396.886 654.394 395.67 653.273 395.341 653.937C394.134 656.374 393.827 659.83 393.185 662.471C391.472 669.54 390.95 680.967 383.99 684.988C378.163 688.355 369.802 689.151 363.269 690.419C352.99 692.412 342.108 692.774 331.664 692.829C322.329 692.879 311.168 694.004 302.307 690.485C301.009 689.971 294.865 687.08 296.297 685.608C296.919 684.969 300.284 686.025 300.973 686.394C300.506 686.146 300.158 683.28 299.923 682.632C299.046 680.216 298.372 680.133 296.707 678.304C293.012 674.249 298 676.12 297.664 673.213C297.598 672.653 293.647 674.102 293.756 674.064C293.884 673.18 294.698 671.346 294.28 670.46C294.586 671.11 291.999 665.656 292.307 666.898C291.708 664.488 293.388 662.113 293.041 659.783C292.549 656.48 290.134 657.14 288.243 655.186C287.594 654.515 287.337 653.154 286.7 652.385C286.423 652.051 285.41 651.992 285.307 651.812C284.616 650.611 284.659 650.412 285.385 647.885C283.984 648.498 280.294 651.039 278.867 649.654C277.148 647.985 280.755 646.03 277.772 644.882C276.57 644.419 275.881 645.713 274.809 645.754C274.088 645.782 273.948 644.006 273.049 644.474C271.444 645.308 271.028 648.81 270.321 650.327C266.313 640.101 253.394 656.911 251.009 660.856C248.8 664.508 248.673 671.727 243.22 671.166C240.356 670.872 237.066 667.739 234.783 666.206C231.433 663.956 227.852 662.085 224.39 660.011C209.021 650.802 194.53 640.65 180.921 628.98C175.915 624.687 169.214 619.359 168.547 612.707C168.28 610.043 167.958 607.611 167.219 604.914C165.732 599.49 163.768 600.445 159.431 597.49C161.168 594.059 163.649 593.881 163.498 589.729C163.374 586.357 162.083 582.99 160.95 579.878C159.503 575.91 158.804 571.447 154.565 570.346C150.049 569.172 149.329 571.368 146.34 574.539C146.648 572.831 148.028 568.499 146.113 567.397C143.446 565.864 142.007 571.526 139.913 572.137C138.111 568.112 132.01 561.846 136.28 557.847C138.434 555.828 142.619 555.054 145.289 553.832C149.258 552.016 153.111 549.937 156.966 547.892C174.098 538.805 190.735 528.885 207.729 519.549C210.726 526.489 213.4 533.591 216.853 540.326C219.732 545.945 224.882 551.263 224.674 557.914C224.46 564.836 221.327 571.646 220.577 578.571C220.082 583.155 220.768 584.963 225.813 583.369C226.249 586.529 231.339 591.107 234.054 592.713C238.424 595.299 242.775 590.562 245.823 587.625C247.977 589.673 248.431 592.698 250.21 594.982C251.105 594.022 250.97 591.297 251.538 590.853C252.083 590.426 253.989 591.363 254.382 591.352C254.977 591.335 254.473 589.644 254.954 589.623C256.493 593.415 260.045 587.072 263.461 589.672C263.051 587.681 263.612 586.996 265.319 586.047C266.203 590.168 269.824 588.228 272.949 588.684C278.503 589.49 283.925 592.603 289.383 594.015C300.629 596.924 311.247 598.534 322.828 598.346C327.461 598.271 329.41 598.976 332.142 602.595C333.182 603.972 333.686 605.698 335.489 606.348C338.131 607.301 338.281 605.525 340.425 605.022C342.605 604.51 341.459 603.961 343.513 605.041C344.775 605.705 345.521 607.812 346.553 608.798C349.473 611.588 352.575 612.645 355.016 608.821C355.479 610.22 356.005 610.649 357.101 611.573C356.945 609.368 356.617 604.953 360.257 605.997C362.977 606.775 361.712 610.689 365.573 610.009C367.737 609.629 369.537 606.5 370.832 604.925C372.608 602.765 372.684 605.729 373.033 602.04C373.239 599.852 371.811 597.135 370.945 595.226C374.187 595.894 374.766 599.327 377.989 599.63C381.6 599.969 383.445 595.171 386.944 596.093C386.606 595.286 385.299 592.595 385.873 591.799C386.757 590.574 388.024 593.48 389.404 593.206C390.907 592.905 392.574 588.819 392.259 587.443C391.631 584.7 388.444 585.393 387.232 583.217C386.124 581.229 387.103 577.586 387.05 575.432C386.979 572.497 386.298 569.521 386.807 566.59C387.343 563.507 388.896 560.958 391.017 558.683C392.491 557.102 396.593 554.653 392.999 552.835C399.371 550.481 395.608 543.898 396.105 538.426C396.413 535.024 397.783 532.548 397.025 528.89C396.121 524.514 393.787 520.441 391.372 516.743C388.969 513.057 386.492 509.635 382.918 507.029C381.948 506.374 380.977 505.719 380.006 505.065C379.338 504.126 378.496 503.854 377.48 504.248C375.837 502.998 375.537 501.979 374.322 500.189C371.269 495.687 365.856 493.464 361.365 490.79C357.052 488.221 353.3 484.688 348.778 482.482C348.802 482.492 344.031 480.434 344.432 480.97C342.788 478.771 344.462 476.05 344.378 473.68C344.29 471.246 342.831 470.174 342.151 468.075C341.339 465.579 342.797 462.479 341.328 460.245C340.754 459.375 339.633 459.132 338.936 458.365C337.749 457.06 337.222 455.302 335.964 454.017C334.729 455.474 333.495 456.931 332.261 458.388C330.804 454.845 330.515 453.924 327.529 457.29C322.97 462.428 320.387 460.211 316.671 455.437C315.444 453.859 314.015 453.547 313.096 452.388C311.633 450.544 313.206 447.314 311.117 445.705C309.9 444.766 308.198 445.716 307.173 444.101C305.912 442.117 307.969 439.168 306.809 436.943C324.266 442.471 342.08 446.877 360.529 445.534C378.451 444.23 396.752 439.834 413.199 432.554C441.736 419.92 469.568 399.141 480.785 369.004C483.595 372.303 483.009 378.32 486.11 381.348C490.718 385.847 490.303 376.853 490.303 373.989C493.997 374.978 499.269 376.545 499.568 381.047C499.872 385.596 495.782 390.335 494.343 394.472C492.898 398.631 492.178 403.441 492.53 407.834C492.704 410.028 493.111 412.303 494.208 414.243C495.549 416.614 497.039 416.496 498.837 417.579C498.541 417.402 501.088 419.124 501.013 419.105C506.374 420.392 510.677 424.421 516.437 422.963C520.146 422.024 523.732 419.308 525.101 424.738C527.679 423.004 527.998 421.662 527.927 419.105C527.896 417.998 526.324 417.052 527.899 416.701C528.422 416.585 530.377 418.959 531.142 419.179C533.256 419.783 534.07 418.933 535.089 417.344C535.676 416.426 535.716 410.232 536.42 410.102C537.913 409.825 541.033 416.201 541.865 417.344C541.865 399.059 560.933 420.251 566.868 424.29C571.696 427.576 576.941 430.487 580.989 434.777C586.146 440.24 584.654 443.415 581.172 449.32C577.319 455.857 574.534 463.473 571.027 470.289C569.267 473.709 567.159 477.815 567.208 481.791C567.226 483.131 567.997 484.515 567.926 485.817C567.821 487.699 566.909 488.498 566.152 490.147C563.973 494.892 565.927 500.56 570.531 502.91C573.483 504.416 576.517 505.368 579.369 507.109C582.383 508.948 585.361 510.932 589.031 511.058C591.402 511.139 592.712 510.504 595.001 511.215C596.554 511.697 597.851 513.095 599.651 512.919C603.248 512.564 605.887 508.593 609.582 507.776C612.316 507.171 615.867 507.522 617.612 504.839C619.774 501.508 615.657 498.191 618.942 495.125C619.847 496.816 620.448 498.744 620.663 500.649C621.635 498.09 622.024 496.034 623.455 493.741C624.95 491.345 625.799 489.785 625.773 486.761C625.726 481.337 623.102 476.279 621.789 471.118C626.383 471.372 630.169 479.289 632.173 482.609C635.868 488.735 639.692 494.781 643.368 500.919C647.984 508.623 653.847 517.093 656.812 525.602C659.489 533.28 653.011 538.218 649.443 544.46C645.222 551.845 643.943 558.917 641.639 566.837C639.795 573.172 639.585 580.209 644.757 585.015C647.066 587.161 650.001 588.408 652.875 589.573C656.304 590.966 657.207 593.514 660.887 594.247C663.821 594.832 667.073 595.121 670.076 595.027C675.218 594.867 673.349 593.17 676.199 589.925C675.308 592.974 678.32 595.866 679.155 598.659C680.327 602.572 680.596 606.892 681.076 610.935C682.135 619.801 681.601 628.643 680.487 637.474ZM611.668 718.675C607.048 717.628 600.165 718.258 596.013 715.961C593.134 714.368 594.439 712.833 595.632 709.825C598.867 701.67 607.879 700.764 615.859 702.985C614.462 708.215 613.065 713.446 611.668 718.675ZM619.982 779.914C634.631 787.85 650.611 796.357 662.397 808.28C665.166 811.082 672.654 817.308 671.655 821.892C670.613 826.679 661.202 825.75 657.723 825.624C640.886 825.008 625.116 820.785 610.03 813.386C595.606 806.309 581.701 799.068 571.205 786.576C566.953 781.516 559.168 773.708 560.049 766.485C560.927 759.313 568.29 753.88 572.194 748.254C576.022 742.737 580.771 730.67 587.919 728.844C591.035 728.047 594.165 729.805 597.071 730.689C599.845 731.532 604.044 731.526 606.417 733.384C610.714 736.75 608.994 744.511 604.48 746.68C601.476 748.124 597.981 748.747 594.828 749.794C591.286 750.97 573.402 756.361 580.063 762.464C584.699 766.712 592.953 761.525 597.92 760.341C600.472 759.736 604.57 758.95 606.087 761.86C607.561 764.695 604.886 767.642 602.558 768.96C599.1 770.917 594.676 770.613 591.676 773.492C589.227 775.841 588.593 778.634 591.954 780.051C600.886 783.821 610.661 774.864 619.982 779.914ZM436.201 644.14C435.685 642.137 437.003 641.001 439.084 641.878C438.626 643.184 437.666 643.938 436.201 644.14ZM290.95 687.492C289.065 687.236 289.827 684.86 290.601 683.679C291.851 684.653 291.967 685.924 290.95 687.492ZM159.797 605.016C157.401 602.345 161.019 597.72 164.617 599.884C163.444 601.646 161.085 602.966 159.797 605.016ZM151.11 493.198C147.233 486.295 146.96 471.301 136.886 470.388C133.182 470.053 126.592 474.695 123.412 472.501C120.53 470.513 123.043 460.499 118.846 460.65C112.931 460.861 115.968 472.452 113.3 475.325C111.771 476.967 108.324 477.626 106.192 477.341C102.952 476.91 102.673 475.443 102.591 472.404C102.529 470.154 104.159 461.147 99.1013 462.642C95.4179 463.731 96.3066 471.642 95.9429 474.449C94.5888 484.896 79.393 484.408 71.4297 485.294C66.598 485.829 43.9522 489.44 48.984 479.453C51.1122 475.229 56.3298 471.717 59.8812 468.776C65.9256 463.77 72.8306 459.824 80.0362 456.758C93.437 451.058 108.536 448.024 123.066 450.013C139.427 452.25 152.897 460.324 163.819 472.501C166.076 475.019 172.449 480.838 170.009 484.423C168.652 486.418 163.956 486.912 161.855 487.654C158.049 489 154.338 490.738 151.11 493.198ZM175.191 498.24C180.75 496.136 182.012 503.07 184.153 506.818C185.986 510.028 190.049 514.901 187.916 518.67C185.979 522.099 180.05 524.142 176.714 525.589C172.346 527.483 167.78 528.891 163.422 530.801C161.138 525.361 159.158 519.783 156.749 514.4C155.389 511.365 152.603 507.188 154.994 504.153C158.954 499.132 169.671 500.329 175.191 498.24ZM329.381 292.944C329.81 286.712 333.893 288.753 335.468 293.041C337.18 297.699 337.374 303.235 337.511 308.146C337.612 311.891 336.844 317.748 333.268 312.289C329.833 307.046 328.961 299.022 329.381 292.944ZM351.353 318.072C350.737 325.617 346.435 320.399 344.86 316.375C342.562 310.503 340.806 302.914 341.645 296.589C342.615 289.29 346.177 293.873 347.766 298.337C350.012 304.653 350.109 311.535 351.353 318.072ZM360.694 311.916C355.85 313.229 348.296 284.651 354.839 283.675C360.278 282.866 365.47 310.623 360.694 311.916ZM380.091 314.896C380.047 321.237 374.819 316.237 372.99 313.677C369.639 308.989 366.998 301.991 366.808 296.233C366.63 290.828 368.995 286.437 372.781 292.258C376.984 298.725 378.73 307.434 380.091 314.896ZM337.767 241.685C342.485 228.439 348.374 216.263 356.241 204.605C357.653 202.514 359.069 200.13 360.991 198.465C362.546 197.117 364.79 196.779 366.254 195.465C369.202 192.822 366.949 190.171 364.081 188.786C359.261 186.458 350.685 186.796 354.049 179.061C358.699 168.374 370.752 174.331 375.496 181.595C377.416 177.059 380.79 178.165 384.903 177.855C391.053 177.39 396.837 174.442 403.047 174.546C408.806 174.643 414.108 177.445 419.88 177.547C426.307 177.662 431.675 177.929 437.927 179.73C434.67 186.331 430.626 192.857 424.428 197.063C425.543 195.002 429.408 189.464 425.942 187.934C423.597 186.9 418.59 191.232 416.598 192.231C416.518 190.344 415.827 188.44 414.698 186.93C408.61 191.189 410.661 198.503 415.856 202.509C411.313 204.879 406.563 206.959 401.464 207.729C396.432 208.49 391.373 207.304 386.369 208.156C377.586 209.649 371.024 217.523 369.626 226.165C368.867 230.854 371.425 242.652 375.235 233.505C375.996 231.678 376.387 229.524 377.594 227.919C379.583 225.272 381.11 226.205 384.025 226.838C386.443 227.365 390.68 227.893 391.597 230.571C392.419 232.974 390.273 236.204 389.058 238.033C384.893 244.31 378.667 249.736 371.144 251.158C366.884 251.962 334.409 251.117 337.767 241.685ZM347.901 155.728C345.171 153.896 347.221 149.123 347.545 146.683C348.029 147.576 348.513 148.468 348.997 149.363C348.658 143.642 349.439 139.021 350.658 133.469C351.121 131.361 350.953 129.568 351.048 127.456C351.103 126.247 350.877 125.39 351.377 124.664C352.016 123.731 352.782 126.445 352.747 126.206C355.66 122.692 353.296 121.947 354.147 118.411C354.157 118.367 356.827 115.511 357.122 114.973C358.529 112.404 358.811 111.414 361.243 109.923C363.708 108.411 362.877 109.906 364.216 106.673C365.505 103.559 365.422 101.409 366.168 98.1486C367.32 98.9894 368.482 99.0139 369.657 98.2234C368.569 97.9217 367.986 97.2076 367.913 96.0784C370.917 95.7713 373.577 92.856 376.31 93.8614C375.62 92.6805 375.146 85.9156 377.391 85.9287C377.465 86.989 377.465 88.0482 377.393 89.1073C379.288 86.2456 382.262 82.0123 384.599 79.8502C386.364 78.2175 385.866 78.6945 388.023 78.4643C389.879 78.2669 389.905 78.9653 391.497 77.2977C390.871 75.5785 391.341 74.4875 392.908 74.0282C393.391 73.8176 393.875 73.6071 394.356 73.3955C396.579 72.0448 397.401 70.5163 399.151 68.7269C400.511 67.3334 403.39 66.7392 404.413 65.3477C405.514 63.8523 404.699 60.5181 406.165 59.3822C407.769 58.1366 407.874 59.7593 409.438 59.6112C409.662 59.5904 411.922 58.3833 412.383 58.2287C415.724 57.0993 418.815 56.6454 421.639 54.0721C422.586 53.2082 423.256 51.5537 424.17 50.886C425.686 49.7796 427.497 49.9967 429.043 49.0231C429.534 48.7139 430.277 47.3357 430.857 46.8281C432.565 45.3304 434.907 44.587 437.024 43.9281C441.407 42.564 445.534 41.21 449.773 39.3746C458.877 35.4307 468.916 32.0888 478.574 29.8115C479.687 29.5496 482.546 29.7019 483.372 29.1636C483.984 28.7645 484.515 27.4083 484.666 27.3216C486.472 26.2701 489.381 25.0904 491.858 24.3843C499.129 22.3099 499.384 26.2712 494.749 30.4672C490.635 34.1918 485.667 36.7914 481.441 40.3515C474.553 46.1571 470.079 54.7202 465.534 62.3348C471.637 65.2963 480.385 62.2964 486.582 61.0104C489.732 60.358 493.076 60.2889 496.179 60.2899L497.175 59.7199C497.971 59.1825 498.486 59.4019 498.725 60.3788C498.839 61.632 499.45 61.8327 500.557 60.9796C501.144 60.575 501.756 60.2154 502.394 59.9008C503.531 59.2527 505.274 57.175 506.733 57.4316C508.881 57.8098 507.591 58.8613 508.978 59.3942C512.167 60.6166 513.714 57.7068 516.688 57.2408C517.71 57.0808 519.162 57.8724 520.284 57.7507C521.21 57.4118 522.07 56.9513 522.859 56.3703C523.654 56.3517 524.21 56.7332 524.53 57.5117C526.955 57.528 531.428 56.9492 531.643 53.8802C533.351 57.1114 534.333 56.0117 537.002 54.5096C537.002 58.3789 545.361 55.0808 547.652 55.0732C553.545 55.0545 558.638 52.7247 564.227 55.7277C554.345 60.1508 543.151 62.1122 533.581 67.1328C529.256 69.4034 523.684 75.8241 526.895 81.0387C528.801 84.1339 532.341 83.9585 535.471 83.5879C539.446 83.1175 542.751 84.6097 546.819 84.4442C555.07 84.1098 565.212 90.3846 572.333 83.6799C575.446 87.9198 579.12 87.9034 583.79 88.1633C585.958 88.2838 599.481 90.6378 598.925 93.2594C598.614 94.7341 592.147 97.0508 591.173 97.4844C587.507 99.1098 583.714 100.387 579.828 101.37C572.82 103.146 565.923 103.038 558.854 104.135C553.714 104.933 547.351 107.865 548.757 114.386C549.994 120.129 556.797 118.834 561.207 118.433C566.028 117.995 570.667 117.441 575.516 117.655C579.409 117.827 587.458 117.583 589.909 121.416C579.107 129.2 565.562 131.218 552.686 132.835C537.798 134.703 523.025 137.064 508.457 140.717C509.554 138.517 514.385 130.512 512.479 128.123C510.145 125.195 503.138 137.002 501.338 138.588C486.012 152.11 465.026 161.283 446.244 168.782C452.429 161.128 461.747 155.903 469.303 149.697C474.503 145.426 483.962 138.45 480.52 130.521C461.19 142.585 444.929 164.318 420.542 165.741C429.255 159.39 439.294 154.507 446.459 146.218C448.136 144.282 453.664 136.879 450.235 134.217C447.536 132.123 442.764 139.502 440.883 141.1C427.647 152.339 409.463 161.855 392.977 167.123C387.051 169.016 378.91 172.234 373.468 168.102C366.168 162.557 360.48 162.378 352.246 166.803C351.426 163.195 351.318 158.023 347.901 155.728ZM522.094 410.815V415.393C519.618 415.149 520.727 412.534 519.24 411.333C520.192 411.162 521.143 410.987 522.094 410.815ZM518.979 405.514C519.733 408.182 519.733 408.182 516.572 407.88C517.672 406.799 518.259 406.221 518.979 405.514ZM530.921 409.251C532.727 408.258 531.187 414.21 528.319 411.13C529.187 410.503 530.054 409.878 530.921 409.251ZM537.311 400.653C536.973 402.618 536.638 404.583 536.301 406.546C535.246 405.674 534.191 404.8 533.137 403.927C534.529 402.836 535.92 401.745 537.311 400.653ZM674.554 583.179C676.821 581.809 677.279 587.051 677.523 588.047C676.032 587.225 670.987 585.335 674.554 583.179ZM224.946 184.654C221.017 190.079 217.097 195.546 213.866 201.425C212.072 204.691 210.761 209.464 207.499 211.649C204.596 213.592 199.813 213.889 196.555 214.703C190.019 216.332 183.536 218.189 177.179 220.423C155.483 228.056 134.884 241.04 119.634 258.415C112.287 266.785 106.153 276.427 102.701 287.075C98.7435 299.281 100.078 312.077 98.6266 324.641C98.2793 327.659 97.6455 338.422 94.0848 339.783C89.7009 341.459 88.4602 330.851 87.9317 328.075C87.2686 324.591 85.4292 300.746 78.5569 302.952C74.3671 304.295 74.3414 318.201 74.0853 321.518C73.5018 329.048 72.6435 336.52 71.2122 343.945C70.0943 349.729 68.6116 355.467 67.2259 361.194C66.0074 366.227 64.6849 372.266 60.8798 376.057C58.0839 360.725 57.629 343.498 62.87 328.635C64.3037 324.568 73.3124 303.709 65.3456 301.69C60.5875 300.482 56.8151 311.847 55.5265 314.849C51.2116 324.901 47.7865 335.324 44.061 345.603C41.6147 352.351 39.1356 364.522 33.1415 369.212C30.9572 352.269 35.5785 335.379 41.2007 319.557C42.2064 316.731 54.6951 288.568 43.8797 291.62C37.9756 293.286 33.8443 305.89 31.4167 310.76C25.4694 322.687 18.1621 335.088 8.21323 344.106C7.74549 334.665 13.7805 324.669 16.0245 315.599C18.6041 305.176 22.0081 295.481 27.5216 286.214C37.7301 269.057 51.0607 252.829 64.2253 237.871C77.8179 222.43 93.313 208.681 110.201 196.945C127.155 185.164 144.982 177.689 165.045 173.098C187.507 167.96 211.882 164.922 234.373 171.546C231.231 175.915 228.103 180.296 224.946 184.654ZM596.488 207.08C596.125 207.152 595.764 207.225 595.402 207.297C595.105 205.537 594.808 203.778 594.511 202.018C596.754 203.334 594.85 205.587 596.488 207.08ZM502.46 191.877C529.02 180.169 557.016 171.526 585.342 165.303C604.596 161.073 626.427 158.991 645.189 166.407C666.851 174.968 675.832 197.927 676.783 219.875C677.892 245.456 669.2 269.716 656.674 291.646C653.667 296.912 637.592 328.737 630.836 325.194C633.118 318.958 649.095 283.797 638.513 280.685C632.424 278.895 627.706 296.199 625.609 300.093C624.188 302.732 614.483 321.212 611.244 319.63C614.302 309.777 618.034 299.613 617.739 289.133C617.518 281.218 613.388 277.493 609.027 285.692C599.506 303.593 589.489 321.955 575.633 336.922C574.326 325.823 580.265 313.569 583.876 303.328C586.711 295.289 590.504 287.279 591.409 278.711C591.898 274.07 591.755 264.899 584.83 266.509C578.801 267.91 573.937 274.814 569.167 278.387C572.774 271.579 576.25 264.682 580.387 258.175C583.932 252.597 588.18 247.51 591.699 241.918C593.266 239.428 594.137 237.008 595.131 234.38C596.11 231.785 597.584 230.343 599.253 227.982C600.494 226.226 601.173 224.737 601.549 222.803C601.689 222.082 601.191 221.005 601.268 220.188C601.404 218.754 602.906 218.372 602.406 216.726C605.044 220.386 604.314 213.191 604.265 211.857C604.091 207.163 605.985 202.081 603.642 197.716C598.705 188.514 584.225 190.3 575.664 190.961C563.401 191.91 548.054 194.702 537.552 201.343C534.866 203.04 533.18 202.07 530.266 203.374C527.602 204.567 524.891 205.804 522.157 206.966C515.052 209.983 508.269 213.725 501.262 216.959C501.634 211.707 502.825 206.585 501.997 201.338C501.644 199.09 499.409 193.222 502.46 191.877ZM689.27 599.232C686.945 583.683 684.315 568.302 680.169 553.124C678.187 545.872 676.622 538.475 674.544 531.257C672.894 525.521 667.847 522.613 665.354 517.27C659.488 504.703 654.11 492.255 647.041 480.227C639.653 467.66 630.833 456.586 620.347 446.481C599.077 425.983 574.506 410.323 550.723 393.074C538.512 384.218 525.855 376.505 512.227 370.017C506.736 367.401 501.459 365.312 495.648 363.61C489.627 361.847 486.621 359.787 484.392 353.738C479.816 341.316 471.233 337.249 459.51 332.528C454.209 330.393 449.385 327.435 444.16 325.164C438.726 322.804 432.979 320.995 427.924 317.84C404.928 303.493 435.63 273.629 447.839 262.877C452.598 258.687 457.981 254.387 464.041 252.307C470.319 250.151 478.877 248.883 485.524 248.291C490.035 247.892 496.423 249.995 500.171 246.41C503.193 243.522 502.025 238.896 501.654 235.241C500.613 224.992 509.029 224.19 517.503 222.379C530.743 219.549 543.121 213.597 556.38 210.621C564.841 208.72 588.336 203.035 588.474 217.316C588.578 228.143 580.48 239.034 575.39 247.882C571.41 254.801 567.164 261.489 562.955 268.26C559.806 273.325 556.955 278.882 557.003 285.001C557.042 289.836 558.983 294.611 564.655 293.896C571.032 293.093 575.807 286.78 581.102 283.724C581.32 290.337 576.316 297.734 574.396 303.961C572.13 311.304 570.138 318.939 568.859 326.521C568.043 331.36 565.797 349.994 575.59 347.604C582.191 345.992 587.879 337.482 591.724 332.456C595.773 327.161 599.405 321.589 603.073 316.027C605.363 322.833 591.12 335.998 598.348 342.13C606.062 348.676 619.421 325.502 623.178 321.222C623.832 326.421 616.494 337.937 624.794 340.321C630.668 342.009 638.677 334.003 642.375 330.234C649.137 323.348 649.962 313.624 654.179 305.288C659.008 295.745 665.2 287.047 669.674 277.283C683.771 246.516 690.939 200.935 668.709 171.913C653.702 152.318 627.67 148.926 604.65 150.738C578.453 152.801 552.83 160.776 528.322 169.918C511.867 176.057 495.679 182.93 479.582 189.953C467.705 195.136 455.884 200.452 444.101 205.847C438.399 208.456 432.845 211.28 427.298 214.2C422.723 216.61 417.284 219.412 411.955 218.038C415.79 212.212 423.415 210.282 428.925 206.551C435.444 202.137 439.054 194.595 441.44 187.297C444.012 179.436 446.289 177.559 454.185 175.506C462.077 173.455 469.464 170.147 476.516 166.057C493.055 156.463 511.33 150.979 530.127 148.004C546.757 145.373 564.342 144.187 579.871 137.148C591.43 131.908 605.978 120.313 591.905 108.663C601.864 101.417 619.527 89.3145 604.063 77.4621C592.077 68.2752 573.97 68.9868 559.679 68.9868C561.734 64.8346 568.317 63.4071 572.016 61.1495C576.58 58.3647 582.216 55.3506 583.8 49.8608C586.395 40.8844 576.597 38.2672 569.764 37.3671C543.791 33.9462 514.602 36.5173 489.999 45.5584C491.283 41.0312 497.679 37.696 501.261 35.2674C506.033 32.0319 510.754 28.4926 514.237 23.8186C516.075 21.3526 517.445 18.6872 517.81 15.6063C518.203 12.2852 517.848 13.6887 516.849 12.8083C513.162 9.55618 507.972 7.50923 502.964 7.29103C488.53 6.66063 475.705 13.4529 462.011 16.7871C455.956 18.2607 450.305 18.866 444.508 21.4809C437.516 24.6342 430.313 27.3895 423.397 30.6865C420.184 32.2193 417.16 34.0503 413.916 35.5064C410.974 36.8265 410.292 38.4832 407.919 40.4908C405.741 42.3327 403.325 41.4216 400.857 42.7998C397.442 44.7043 394.189 48.0264 391.017 50.3958C378.665 59.6222 366.998 70.2159 357.204 82.1592C340.296 102.777 323.498 134.719 335.035 161.74C337.73 168.049 344.088 170.078 345.668 176.963C347.051 182.996 347.271 188.986 349.05 194.942C350.853 200.977 343.626 206.637 340.542 211.549C335.716 219.235 333.613 227.932 330.896 236.489C330.05 234.187 329.761 230.304 327.391 228.948C324.52 227.307 324.483 230.732 322.419 229.189C319.992 227.374 318.024 220.289 316.614 217.467C314.734 213.703 312.8 209.962 310.634 206.353C301.796 191.613 288.178 180.224 273.398 171.722C243.217 154.359 206.876 152.5 173.251 158.808C139.481 165.142 110.158 181.959 84.0424 203.878C69.5798 216.016 56.8221 229.465 45.3426 244.464C34.0665 259.198 22.4162 273.548 14.122 290.251C9.46443 299.631 5.24658 309.352 2.64126 319.523C0.619444 327.416 -1.34625 337 1.22633 345.005C3.42823 351.857 9.79186 355.536 16.2151 351.084C21.8491 347.176 24.3644 340.117 28.2127 334.709C28.9845 343.67 18.0861 376.656 33.9659 378.209C45.6922 379.357 49.9919 352.353 52.4768 344.533C54.1408 355.057 50.9976 366.426 54.95 376.59C56.8666 381.522 62.8525 390.45 67.9205 383.365C70.189 380.192 70.3562 375.669 71.1678 371.978C72.1898 367.326 73.4703 362.733 74.4817 358.077C77.0333 346.345 78.4552 334.432 80.4256 322.596C83.7407 330.284 83.1151 344.287 91.3333 349.05C99.6673 353.88 103.414 340.069 104.365 334.48C105.963 325.082 105.198 315.454 106.576 306.021C107.972 296.464 111.373 287.847 116.518 279.698C134.826 250.708 169.161 228.808 203.709 227.361C201.847 234.529 191.211 253 205.099 253.304C208.229 253.373 211.099 252.812 214.272 253.154C218.176 253.572 222.819 255.573 226.72 255.291C229.087 255.119 228.996 254.131 231.422 255.547C233.964 257.031 234.299 259.23 237.079 255.767C239.174 259.66 244.058 260.697 247.753 262.396C247.796 261.391 247.841 260.385 247.884 259.378C250.175 262.641 252.659 263.226 256.169 264.823C258.417 265.843 260 265.529 262.025 266.056C264.476 266.694 265.703 268.049 267.911 269.304C270.305 270.665 274.503 270.497 276.342 272.632C279.594 276.405 274.567 282.777 272.754 286.002C267.659 295.069 264.3 305.576 262.092 315.695C261.528 318.276 260.989 320.1 261.404 322.661C261.766 324.889 262.431 323.28 262.021 325.475C261.876 326.251 260.431 327.885 260.174 328.444C257.991 333.184 258.315 339.47 258.2 344.583C257.924 356.806 259.475 368.365 262.803 380.119C264.263 385.273 265.551 390.648 267.393 395.677C269.104 400.35 271.696 403.204 270.784 408.256C268.828 419.09 280.157 422.027 286.341 428.814C289.141 431.89 289.641 435.816 290.272 439.777C291.177 445.487 293.059 450.734 295.381 456.026C299.448 465.298 305.024 477.404 312.67 484.251C316.109 487.33 319.267 490.737 323.178 493.035C325.007 494.11 327.293 496.738 329.331 497.245C331.26 497.723 330.57 495.67 332.666 497.368C334.27 498.667 334.184 500.602 336.413 502.075C338.55 503.489 340.853 504.67 343.102 505.891C347.675 508.371 352.614 510.718 356.776 513.852C360.805 516.889 364.819 520.087 368.868 523.151C372.595 525.972 375.212 529.482 376.416 534.052C381.707 554.131 363.157 571.1 347.334 579.496C326.857 590.363 303.646 588.069 282.582 580.16C260.747 571.962 239.187 556.919 226.179 537.302C222.947 532.427 219.669 527.205 217.217 521.883C215.604 518.383 215.141 514.079 212.972 510.865C208.106 503.66 197.657 513.99 192.597 516.695C185.148 485.21 170.845 449.663 137.589 438.393C106.067 427.711 66.571 440.402 46.0898 466.4C41.2627 472.527 34.3542 482.456 37.605 490.66C40.4336 497.797 49.7452 499.41 56.4585 500.126C66.0308 501.148 76.1036 499.92 85.3415 497.322C87.7141 496.654 91.7788 494.752 94.2953 495.486C98.2056 496.628 98.0583 502.321 100.032 505.285C102.029 508.286 104.927 507.97 105.603 504.121C106.246 500.444 102.867 496.989 105.726 493.724C107.317 491.907 112.688 490.405 114.924 491.82C116.795 493.005 116.962 496.722 118.448 498.432C122.546 503.146 122.991 495.505 123.831 492.281C125.091 487.434 130.6 483.664 135.948 485.833C139.293 487.191 140.13 492.333 140.997 495.442C142.767 501.79 143.987 507.92 146.384 514.106C148.214 518.825 155.968 531.97 152.25 536.574C149.953 539.418 144.154 541.01 140.82 542.107C136.175 543.637 130.601 544.551 126.338 546.956C124.332 548.088 119.91 551.174 119.291 553.513C118.243 557.476 123.059 557.654 125.3 555.643C132.311 576.459 140.59 596.933 153.467 614.877C166.388 632.882 183.165 647.811 200.847 660.99C235.427 686.767 276.103 703.939 319.182 708.029C341.216 710.121 363.999 708.281 384.854 700.632C387.207 699.77 389.594 698.768 392.081 698.362C394.334 697.995 396.646 698.774 398.827 698.412C401.657 697.942 400.898 696.85 402.695 695.336C404.356 693.938 406.947 693.455 408.785 692.249C417.943 686.237 426.251 677.784 433.41 669.552C446.862 654.087 460.192 634.808 466.528 615.152C472.895 595.404 473.198 574.422 475.113 553.947C476.299 541.283 472.487 529.517 470.408 517.139C468.28 504.463 465.791 491.999 462.864 479.502C461.705 474.56 461.696 470.985 465.57 467.386C468.588 464.587 472.359 462.383 476.373 464.291C480.574 466.291 484.382 470.652 488.219 473.363C492.175 476.158 494.029 479.886 497.968 475.232C497.968 479.272 499.914 480.487 503.313 481.815C507.874 483.597 512.131 485.504 516.257 488.215C525.179 494.079 531.92 502.952 536.956 512.27C542.324 522.205 548.504 532.372 552.233 543.057C556.298 554.702 556.808 567.832 557.217 580.064C557.647 592.85 557.774 605.728 557.044 618.505C556.357 630.589 555.681 644.161 552.121 655.772C548.196 668.576 535.484 683.087 552.678 691.628C564.737 697.618 579.352 696.173 591.217 702.338C589.685 704.79 588.658 707.564 586.991 709.933C584.891 712.921 583.022 712.894 579.78 714.091C573.838 716.285 576.715 719.856 576.103 724.559C575.562 728.734 569.981 733.492 567.318 736.559C563.308 741.177 559.163 745.753 555.93 750.971C548.918 762.283 548.921 774.609 555.344 786.168C560.991 796.329 569.056 807.885 578.974 814.193C589.801 821.078 602.562 827.023 614.445 831.803C625.131 836.102 636.435 838.851 647.863 840.236C656.43 841.275 668.218 842.282 675.074 835.828C681.359 829.912 682.849 820.504 679.904 812.642C672.996 794.212 651.899 783.12 636.557 772.684C641.419 770.985 647.825 770.411 651.602 766.539C656.322 761.7 651.961 757.548 646.539 757.603C641.838 757.652 637.043 759.184 632.572 760.544C628.598 761.749 621.3 765.128 617.274 762.694C611.953 759.477 617.776 756.235 620.646 754.781C626.038 752.053 625.74 748.584 620.521 745.742C612.093 741.151 624.172 740.951 625.433 736.813C627.028 731.581 620.389 726.546 620.852 720.837C621.293 715.387 622.976 705.817 627.226 701.918C630.162 699.229 635.185 699.467 638.866 698.871C644.824 697.906 650.656 696.131 656.398 694.301C658.148 704.575 666.317 695.339 669.54 691.237C675.612 683.511 678.124 674.161 681.328 665.034C684.934 654.754 688.003 644.662 689.912 633.913C691.994 622.195 691.018 610.922 689.27 599.232Z" fill="black"/>
<path fill-rule="evenodd" clip-rule="evenodd" d="M286.241 722.369C284.571 724.253 276.575 721.648 274.38 721.373C267.864 720.559 261.757 720.767 255.309 719.139C250.371 717.892 243.134 715.139 238.322 715.874C237.918 715.936 238.39 717.28 237.702 717.272C236.808 717.259 236.329 716.603 235.435 716.258C233.315 715.443 231.641 713.605 229.414 715.208C228.36 710.229 226.542 714.592 224.04 714.555C221.404 714.516 222.368 711.375 219.604 710.969C217.409 710.649 216.492 712.011 214.065 711.072C210.702 709.775 208.317 707.887 204.625 706.984C200.449 705.964 197.689 704.501 193.847 702.795C190.487 701.307 186.763 700.833 183.355 699.431C174.541 695.801 165.907 691.31 157.535 686.766C141.606 678.125 125.879 669.995 111.563 658.726C106.323 654.603 102.628 650.03 98.4752 644.896C95.6558 641.408 90.8054 634.715 85.5363 635.825C86.7688 632.409 83.4817 629.443 81.3172 627.334C77.974 624.08 75.1232 620.642 72.3576 616.859C69.7546 613.301 67.927 609.708 66.3132 605.641C65.0889 602.557 64.2984 599.476 60.9412 602.56C54.2525 608.707 62.8391 620.833 66.5494 626.233C72.6851 635.163 78.7926 644.241 86.0952 652.265C99.7147 667.23 115.236 680.855 132.701 691.096C141.726 696.388 151.234 701.067 161.025 704.755C169.772 708.049 178.41 709.78 187.386 712.135C192.733 713.539 197.821 715.396 203.279 716.375C205.401 716.755 207.488 717.27 209.646 717.379C210.205 717.409 211.127 716.673 211.483 716.705C212.341 716.783 212.997 717.57 214.252 717.845C215.749 718.173 217.231 718.032 218.397 718.531C218.872 718.736 220.042 720.212 221.283 720.67C223.303 721.417 224.864 721.762 226.933 721.134C228.686 720.601 230.111 718.769 232.076 718.953C231.803 720.13 231.527 721.306 231.252 722.481C233.253 721.714 234.186 722.411 236.023 722.055C235.667 722.123 239.867 721.156 239.444 721.044C239.736 721.121 240.818 723.106 241.86 723.6C246.164 725.641 251.415 724.121 255.963 724.465C260.63 724.816 265.211 725.503 269.914 725.842C273.376 726.09 289.642 728.189 289.999 722.258C288.736 721.964 287.484 722.002 286.241 722.369Z" fill="black"/>
<path fill-rule="evenodd" clip-rule="evenodd" d="M724.723 177.314C726.067 165.813 722.244 156.213 719.27 145.406C716.831 136.55 713.809 127.729 707.634 120.626C702.025 114.175 693.537 105.928 684.445 105.491C677.378 105.151 672.55 110.685 678.716 115.807C684.866 120.917 690.456 124.221 695.323 130.886C700.927 138.564 705.152 147.231 708.287 156.18C714 172.483 717.241 191.709 711.84 208.456C711.304 210.117 709.191 214.865 711.307 216.2C713.73 217.726 715.601 214.073 716.266 212.509C716.886 211.051 719.661 197.254 722.126 199.096C721.97 197.197 721.153 196.308 721.268 194.432C721.337 193.347 722.272 191.806 722.357 190.401C722.638 185.798 724.194 181.83 724.723 177.314Z" fill="black"/>
<path fill-rule="evenodd" clip-rule="evenodd" d="M299.633 117.168C307.052 117.33 307.308 100.683 309.618 96.1661C310.703 94.0461 311.831 91.495 313.032 89.5179C313.965 87.9838 315.106 87.7525 315.79 86.5337C318.07 82.4867 316.485 79.27 315.463 75.3572C318.157 74.9241 319.071 74.935 320.04 72.241C320.326 71.4455 319.642 70.0019 320.209 69.403C320.989 68.5792 322.308 69.0254 323.102 68.3336C323.309 68.1525 323.231 66.4166 323.482 65.7651C324.049 64.2931 324.502 63.729 325.594 62.6041C327.063 61.0885 331.061 60.2647 329.736 57.6133C330.724 57.5718 331.665 57.3416 332.561 56.9226C332.849 55.5991 330.156 56.102 330.374 55.3415C330.84 53.7278 333.371 51.6045 334.975 51.2749C333.606 50.5625 332.239 49.8488 330.872 49.1353C334.308 48.4118 334.212 46.3714 337.71 48.6879C337.326 45.4548 341.735 42.4881 343.645 40.4061C347.238 36.4934 351.258 33.1742 355.23 29.6521C358.683 26.5903 361.877 23.3256 365.101 20.0315C366.748 18.3457 368.425 16.6851 370.32 15.2753C372.255 13.835 373.767 14.1176 375.547 13.1334C378.388 11.5621 380.108 8.37494 382.965 6.77316C384.251 6.05085 384.802 6.86811 385.739 5.96362C386.613 5.11794 387.406 2.33008 386.896 1.251C384.754 -3.2903 369.265 8.7558 366.834 10.3216C337.3 29.3487 313.524 55.575 300.587 88.4824C298.83 92.9539 288.81 116.932 299.633 117.168Z" fill="black"/>
<path fill-rule="evenodd" clip-rule="evenodd" d="M291.17 725.234C293.184 724.795 295.208 724.353 298.186 723.705C292.863 720.787 292.427 720.934 291.17 725.234Z" fill="black"/>
<path fill-rule="evenodd" clip-rule="evenodd" d="M395.507 199.003C399.467 198.628 408.109 194.54 406.801 188.965C405.596 183.82 400.928 189.364 397.734 188.784C394.322 188.165 392.739 180.877 389.871 188.31C388.331 192.303 390.602 199.467 395.507 199.003Z" fill="black"/>
</svg>
