<svg width="327" height="256" viewBox="0 0 327 256" fill="none" xmlns="http://www.w3.org/2000/svg">
<path fill-rule="evenodd" clip-rule="evenodd" d="M82.3164 142.231C84.1703 156.134 86.0239 170.037 87.8778 183.941L89.3747 195.168C89.5638 196.585 89.3852 199.38 90.1052 200.648C90.3595 201.095 91.0279 201.308 91.5193 201.571C93.2107 202.48 94.9025 203.388 96.5939 204.296C110.903 211.978 125.211 219.66 139.519 227.342C153.252 234.715 166.984 242.087 180.716 249.46C182.137 250.223 184.435 252.214 185.969 251.689C187.428 251.191 188.918 249.961 190.242 249.186C192.783 247.696 195.324 246.207 197.866 244.718C213.243 235.706 228.62 226.694 243.998 217.682C250.342 213.964 256.687 210.246 263.031 206.527C264.767 205.51 266.503 204.493 268.239 203.475C269.147 202.943 269.265 202.962 269.622 202.059C270.958 198.683 271.577 194.815 272.522 191.312C273.564 187.451 274.606 183.591 275.648 179.73C276.112 178.007 275.894 177.785 275.136 176.122C273.637 172.831 272.138 169.54 270.639 166.249C267.311 158.944 263.984 151.639 260.655 144.334C259.31 141.38 256.068 139.302 253.735 137.129L217.501 103.395C216.581 102.538 215.66 101.681 214.74 100.824C214.588 105.974 213.571 111.51 215.063 116.485C217.513 124.65 219.962 132.815 222.412 140.979C223.596 144.926 224.779 148.872 225.963 152.818C226.183 153.551 227.522 156.459 227.164 157.104C226.966 157.461 225.274 157.823 224.908 157.962C223.334 158.561 221.76 159.159 220.186 159.758C215.801 161.427 211.416 163.095 207.031 164.763C203.086 166.264 199.142 167.764 195.198 169.265C193.86 169.774 192.29 170.716 190.877 170.637C189.613 170.567 188.177 169.942 186.954 169.627C184.804 169.073 182.654 168.519 180.505 167.965C176.282 166.878 172.059 165.79 167.836 164.703C163.085 163.479 159.073 159.884 155.01 157.224C148.027 152.652 141.043 148.079 134.06 143.507C132.461 142.46 132.455 141.862 131.818 139.951C130.386 135.656 128.954 131.36 127.522 127.065C126.758 124.772 125.818 122.468 125.24 120.12C124.288 116.245 123.723 112.234 122.969 108.316C122.742 107.134 122.514 105.951 122.286 104.769C119.362 105.956 116.437 107.143 113.512 108.33C113.088 108.502 111.023 109.015 110.839 109.437C110.723 109.703 111.337 110.912 111.425 111.172C113.85 118.354 116.275 125.536 118.7 132.719C119.463 134.978 120.226 137.237 120.989 139.496C119.166 136.632 117.343 133.767 115.52 130.902C114.088 135.72 112.655 140.538 111.223 145.356C107.838 141.449 104.452 137.543 101.067 133.637C99.8948 137.543 98.7229 141.449 97.551 145.356C93.9052 140.538 90.2595 135.72 86.6133 130.902C86.1801 133.417 85.7465 135.931 85.3129 138.445C85.1821 139.204 85.2082 141.381 84.7032 141.982C84.2871 142.476 83.0895 142.231 82.3164 142.231Z" fill="#FF5678"/>
<path fill-rule="evenodd" clip-rule="evenodd" d="M313.153 172.285C312.948 178.83 313.09 187.326 309.509 193.08C308.93 194.009 306.972 196.902 306.753 194.357C306.539 191.858 307.154 189.384 306.545 186.857C306.219 185.504 305.123 182.55 303.25 183.772C302.296 184.395 302.044 185.932 301.671 186.902C301.119 188.338 300.5 189.751 299.918 191.175C297.887 196.148 295.782 202.083 291.267 205.374C291.858 201.086 293.469 196.507 292.386 192.172C292.017 190.695 290.899 187.997 288.974 188.863C287.099 189.706 285.883 193.469 284.998 195.145C282.314 200.226 279.569 205.211 276.547 210.102C275.027 212.562 273.386 214.811 271.397 216.915C270.154 218.232 268.603 220.456 266.644 220.652C266.644 216.901 267.878 213.277 269.005 209.745C270.217 205.946 271.322 202.115 272.512 198.31C273.544 195.008 274.391 191.733 275.078 188.347C275.363 186.947 275.588 185.498 276.782 184.593C277.854 183.781 279.549 183.394 280.745 182.797C283.886 181.228 287.116 179.535 290.033 177.584C291.231 176.784 292.263 175.749 293.517 175.031C294.946 174.212 296.281 173.524 297.603 172.526C303.309 168.223 308.452 162.929 311.918 156.627C312.48 159.159 313.225 161.633 313.308 164.243C313.392 166.919 313.237 169.611 313.153 172.285ZM266.196 202.367C265.283 200.826 263.893 201.458 262.668 202.201C260.767 203.353 258.861 204.498 256.951 205.636C253.063 207.953 249.247 210.39 245.448 212.85C237.716 217.855 229.714 221.951 221.562 226.188C213.683 230.282 206.115 235.155 198.733 240.08C196.959 241.263 195.197 242.475 193.493 243.758C191.981 244.898 190.772 246.498 189.18 247.512C187.522 248.568 186.383 247.711 184.797 246.932C182.814 245.958 180.748 245.142 178.721 244.263C170.542 240.717 162.339 237.036 154.382 233.011C146.473 229.011 138.98 224.402 131.402 219.824C127.793 217.644 124.246 215.325 120.686 213.065C116.898 210.66 112.975 208.859 109.001 206.814C107.243 205.909 105.686 204.68 103.88 203.857C101.981 202.993 99.9759 202.373 98.2758 201.125C97.5137 200.566 96.8708 199.898 95.9996 199.502C95.2844 199.177 94.4727 199.122 93.7664 198.778C92.3297 198.076 91.9183 196.652 91.6402 195.171C89.8507 185.665 88.8996 175.894 87.8624 166.282C87.2796 160.876 86.6292 155.492 85.8237 150.115C85.4604 147.691 86.1909 145.812 86.5745 143.454C87.0222 140.7 87.1991 137.888 87.4991 135.115C88.9148 137.737 90.139 140.49 91.9402 142.883C93.268 144.647 95.536 147.148 97.9809 147.089C101.781 146.997 101.607 140.48 101.76 137.892C103.491 139.437 104.016 141.954 105.453 143.749C106.765 145.387 108.55 147.42 110.564 148.153C114.806 149.698 114.398 141.825 114.164 139.592C114.047 138.473 113.415 136.701 114.915 137.211C116.297 137.681 117.641 139.631 118.803 140.525C120.81 142.071 123.012 143.356 125.072 144.832C127.627 146.663 130.384 147.987 132.989 149.692C134.618 150.759 136.395 150.998 138.172 151.783C140.774 152.932 143.073 154.646 145.55 156.024C150.455 158.752 155.897 161.198 161.262 162.842C162.998 163.374 165.311 164.874 166.628 163.333C167.439 162.385 167.972 160.936 168.66 159.872C169.531 158.526 170.455 157.216 171.415 155.932C174.829 151.369 178.617 147.06 182.823 143.212C187.718 138.735 193.069 134.706 198.794 131.35C201.253 129.908 211.523 123.446 213.78 127.994C211.925 127.879 210.317 128.557 208.731 129.407C208.344 129.614 206.347 131.04 206.814 129.783C206.234 129.892 205.726 130.648 205.287 130.985C204.528 131.566 203.376 132.237 202.497 132.718C201.629 133.194 200.555 133.31 199.763 133.887C199.474 134.097 199.299 134.438 199.023 134.666L198.233 134.672C198.114 135.11 197.996 135.548 197.878 135.986C197.431 134.553 196.793 136.416 196.047 137.021C195.598 137.385 194.887 137.76 194.359 137.994C193.964 138.17 193.903 137.762 193.519 138.072C193.179 138.348 192.961 138.954 192.595 139.299C192.145 139.722 191.57 140.051 191.069 140.412C190.109 141.103 189.093 141.646 188.12 142.301C186.812 143.184 186.125 144.7 184.855 145.623C184.253 146.059 183.318 146.11 182.993 146.39C182.176 147.093 182.445 148.157 180.921 148.203C181.06 148.425 181.143 148.666 181.172 148.926C180.809 148.863 180.486 148.713 180.204 148.474C180.267 149.994 178.773 150.536 177.877 151.472C177.361 152.011 176.717 152.769 176.353 153.418C176.293 153.527 176.177 154.393 176.152 154.404C176.014 154.471 175.172 153.731 175.252 153.793C175.017 155.197 173.658 156.524 173.064 157.824C172.75 158.509 172.432 159.609 171.814 160.091C171.646 160.222 171.13 160.085 170.703 160.54C170.389 160.874 170.028 161.491 169.901 161.933C169.816 162.229 169.918 162.994 169.796 163.171C169.572 163.495 169.225 163.17 168.875 163.41C168.228 163.853 168.212 164.545 167.265 164.636C167.917 166.221 171.856 166.71 173.288 167.16C177.337 168.435 181.585 169.707 185.37 171.659C186.348 172.164 187.275 172.58 187.448 173.742C187.69 175.36 186.865 177.512 186.708 179.146C186.282 183.56 186.195 188.104 186.284 192.536C186.368 196.735 186.504 200.973 186.7 205.166C186.881 209.054 187.665 212.865 188.088 216.726C188.204 217.786 188.127 222.564 189.949 222.323C191.47 222.122 190.509 218.859 190.481 217.923C190.417 215.852 190.853 213.738 190.834 211.649C190.826 210.645 191.265 209.78 191.307 208.819C191.349 207.869 190.877 207.119 191.018 206.134C191.154 205.19 193.947 199.757 191.265 200.393C191.422 199.617 191.559 198.833 191.767 198.068C192.054 198.326 192.285 198.627 192.459 198.971C192.698 197.302 192.618 195.637 192.766 193.967C192.833 193.21 193.139 192.382 193.034 191.619C193.054 191.303 193.014 190.993 192.914 190.689C192.749 190.515 192.545 190.423 192.302 190.414C192.175 189.996 192.142 189.881 192.368 189.472C192.466 189.194 192.659 189.02 192.947 188.952C193.497 188.886 193.56 188.57 193.136 188.004C193.357 186.885 193.386 186.179 193.226 185.062C193.092 184.124 193.586 182.308 193.082 181.473C192.494 180.497 192.202 181.444 192.093 180.091C192.069 179.804 192.05 179.207 192.166 178.922C192.292 178.611 192.671 178.738 192.72 178.628C193.049 177.876 193.071 176.395 191.906 176.524C191.951 175.987 191.997 175.45 192.042 174.912C192.884 175.882 192.59 175.061 193.067 174.523C193.71 173.797 194.339 173.672 195.258 173.385C197.708 172.621 200.068 171.471 202.462 170.538C207.531 168.563 212.694 166.799 217.614 164.465C227.963 159.554 238.107 154.225 248.519 149.444C247.775 148.063 248.238 147.996 248.781 146.7C249.507 147.204 249.354 146.852 249.871 146.821C249.824 146.389 249.958 146.259 250.274 146.43C250.525 146.507 250.782 146.534 251.047 146.512C251.691 146.622 252.218 146.977 252.804 147.112C252.996 147.253 253.207 147.36 253.438 147.431C253.645 147.384 253.821 147.282 253.967 147.124C254.916 147.3 255.235 148.014 255.277 149.048C255.284 149.229 254.733 149.413 254.891 149.655C255.167 150.077 255.908 149.977 256.332 150.03C256.239 150.47 256.146 150.908 256.054 151.347C257.915 150.488 257.429 153.177 257.994 154.06C258.151 154.306 258.502 154.109 258.684 154.395C258.922 154.768 258.85 155.295 259.053 155.666C259.511 156.506 259.97 156.404 260.426 157.365C262.813 162.385 265.987 167.061 268.278 172.188C269.369 174.628 270.352 177.11 271.491 179.529C272.539 181.755 273.137 183.648 272.391 186.079C270.659 191.718 268.806 197.46 266.536 202.908C266.423 202.728 266.31 202.548 266.196 202.367ZM145.377 244.463C145.214 244.739 145.052 245.016 144.889 245.293C144.528 243.216 145.49 244.179 145.377 244.463ZM137.737 240.575C137.216 240.419 137.441 239.569 137.458 239.205C137.787 239.616 138.11 240.034 138.385 240.485C138.169 240.515 137.953 240.545 137.737 240.575ZM116.798 232.594C117.345 232.287 117.738 232.067 118.358 231.719C117.728 232.947 117.728 232.947 116.798 232.594ZM83.8565 124.414C83.021 126.465 85.5687 139.127 83.1968 139.54C82.8565 138.429 82.8139 135.369 81.4057 135.004C79.6584 134.55 79.8307 137.701 79.592 138.675C76.0049 136.179 74.4115 131.36 72.6978 127.54C70.5134 122.672 68.7946 117.608 67.1532 112.535C65.7497 108.198 64.5891 103.784 63.1707 99.454C62.2797 96.7345 61.3191 94.0083 60.7199 91.2051C60.5898 90.5961 60.0777 89.052 60.5129 88.4731C61.1453 87.6312 63.4219 88.5953 64.1555 88.8164C68.9145 90.2485 73.8513 90.8649 78.7408 91.6969C84.1733 92.6208 89.5937 93.5759 95.059 94.2923C96.4246 94.4712 97.7911 94.6407 99.1583 94.8055C100.045 94.9126 101.387 94.8056 102.229 95.2032C103.934 96.0075 104.297 99.0857 104.93 100.683C107.292 106.64 110.072 112.41 112.56 118.314C114.8 123.632 116.499 129.291 119.719 134.133C117.317 133.069 114.273 127.439 111.589 130.684C110.435 132.079 110.726 133.917 110.819 135.587C110.952 138.001 110.994 140.433 110.994 142.851C108.367 142.169 106.603 139.187 105.224 137.075C103.34 134.19 102.154 131.472 101.32 128.165C100.958 126.733 100 126.697 99.1493 125.84C98.6024 125.29 98.3274 124.547 97.543 125.349C96.5571 126.356 97.2129 129.144 97.3833 130.333C97.7876 133.163 99.1137 137.517 97.8247 140.176C96.0848 143.764 91.4226 134.736 90.8765 133.432C90.5988 132.768 85.6386 120.039 83.8565 124.414ZM80.5994 62.9247C80.8932 62.9696 81.1866 63.0145 81.4803 63.0595C81.2436 63.2684 80.751 64.0013 80.3487 63.8075C80.4323 63.5134 80.5159 63.2192 80.5994 62.9247ZM96.1582 59.586C96.0665 59.6871 95.9739 59.7879 95.8817 59.8891C95.4606 59.3625 95.6098 58.5949 95.6098 57.986C96.1664 58.3223 96.3024 58.9949 96.1582 59.586ZM97.4157 65.4282V67.1493C96.2493 66.6439 96.2262 66.3829 97.4157 65.4282ZM98.8321 67.6165C98.0149 67.3923 97.9173 67.2115 98.0321 65.9556C98.3708 66.6591 98.5938 67.1228 98.8321 67.6165ZM103.536 80.3628C103.193 81.2441 101.192 79.144 101.265 78.5155C101.335 77.9159 101.642 77.737 102.067 78.1225C102.207 78.2503 101.999 78.7116 102.088 78.8718C102.411 79.4514 103.062 79.9257 103.536 80.3628ZM103.558 85.6722C103.057 86.9246 102.163 84.9523 103.473 84.8984C103.559 85.1504 103.588 85.4082 103.558 85.6722ZM102.585 83.6976C102.391 83.4386 102.202 83.1761 102.019 82.9089C102.694 83.0453 103.23 84.0289 103.942 83.3726C103.858 84.3734 103.147 84.4011 102.585 83.6976ZM58.9343 67.4302C57.8488 66.2454 64.9274 65.4138 65.7813 65.2103C71.9782 63.7325 77.8291 61.5942 83.6233 58.9703C86.3874 57.7188 89.1375 56.4519 91.8367 55.0644C93.0023 54.4656 94.6 53.9578 95.5735 53.0585C96.2684 52.4167 96.2407 51.9312 97.1438 51.5488C97.9106 51.2249 97.9489 51.5308 98.3001 50.9448C98.511 50.5933 98.7497 49.305 98.6262 48.9237C98.2899 47.8835 97.7926 48.7268 97.0946 48.01C96.5919 47.4932 96.7137 46.0237 96.8508 45.4151C97.029 45.7049 97.1313 46.0198 97.1586 46.3589C97.9161 45.9854 97.6106 44.703 98.4391 44.4928C99.3122 44.2717 99.222 44.9518 99.4497 45.6471C100.109 44.6784 99.5806 43.8522 99.2235 42.9061C101.039 42.5662 102.989 42.2369 104.788 42.8408C106.09 43.2772 107.203 44.3502 108.577 44.5577C109.922 44.7604 110.181 44.1225 111.173 43.4752C111.978 42.9498 112.669 43.5686 113.084 43.1717C112.828 44.5116 110.632 44.3284 110.902 46.0026C111.024 46.7561 111.948 47.4331 112.368 48.0194C112.896 48.7554 113.316 49.569 113.676 50.3984C115.074 53.6242 115.671 57.3676 116.258 60.8172C117.706 69.3322 117.889 78.0151 119.251 86.5574C119.9 90.6262 120.55 94.6973 120.887 98.806C120.971 99.8334 121.599 102.163 121.086 103.152C120.652 103.986 119.686 103.988 118.838 104.19C117.18 104.585 115.622 105.12 114.031 105.714C112.605 106.245 112.19 106.571 111.275 105.23C110.389 103.931 109.951 102.383 109.318 100.96C108.511 99.1462 107.536 97.3962 106.6 95.6466C108.438 95.6466 109.497 94.654 109.448 92.7856C109.395 90.716 107.693 90.225 106.991 88.5242C106.309 89.4106 106.251 89.4356 105.765 88.5941C105.209 87.632 104.833 85.8715 104.493 84.78C104.736 85.0398 104.98 85.2996 105.223 85.559C105.837 84.7144 104.876 83.3831 104.554 82.5878C104.058 81.3597 103.97 80.0319 103.5 78.8073C103.243 78.1389 102.649 77.6128 102.503 76.9155C102.406 76.4487 102.795 76.0045 102.703 75.5307C102.542 74.7057 101.609 73.8205 101.318 72.9815C100.872 71.6908 100.387 70.5545 99.8333 69.297C99.0837 67.5951 99.2579 65.8091 99.1208 63.9977C98.9786 62.1196 98.377 60.3227 98.1645 58.4528C98.0176 57.1609 98.4774 55.5344 97.5001 54.4996C97.3856 56.2195 97.8786 56.193 96.2625 56.5023C94.4227 56.8543 93.0883 58.225 91.3488 58.634C90.9902 58.7184 90.7289 57.152 90.8687 59.2887C90.0343 58.6727 88.2535 59.4375 88.9179 59.8032C88.4144 60.3418 87.4226 59.9692 87.257 60.7762C85.5456 59.1125 82.8014 64.7755 80.7635 61.8215C80.4272 63.8235 78.9776 65.0071 77.0314 65.272C76.0529 65.4048 75.4498 65.731 74.5814 66.0243C74.4052 66.0833 74.3404 66.3368 74.1318 66.4052C73.813 66.5091 73.3451 66.1954 73.1154 66.2564C72.6478 66.3806 72.1279 66.9958 71.4751 67.1181C70.7267 67.2583 69.9103 67.1939 69.161 67.1072C68.2243 66.9986 67.8122 66.8876 66.895 67.1962C66.07 67.474 65.1864 68.2517 64.4207 67.4048C63.218 69.4857 60.3504 68.9771 58.9343 67.4302ZM114.538 42.3193C113.628 42.2104 114.26 41.4275 114.682 41.1924C115.827 40.5541 115.521 42.4373 114.538 42.3193ZM64.1391 49.7866C69.4813 42.0795 78.6189 36.7841 86.6589 32.3286C91.0504 29.895 95.5329 27.536 100.144 25.5441C102.436 24.5543 104.756 23.6027 107.097 22.7332C108.347 22.2687 109.612 21.8464 110.878 21.4261C111.228 21.3101 111.865 20.9538 112.231 20.9886C112.168 20.9824 113.142 21.2472 112.95 21.3304C113.578 21.0574 113.876 20.3452 114.614 20.0605C115.442 19.7402 116.498 19.6077 117.386 19.5788C118.172 19.553 118.852 19.8777 119.6 19.903C120.092 19.9195 120.51 19.6859 120.992 19.6515C121.238 19.6343 121.216 20.003 121.365 20.0245C121.429 20.0339 122.086 19.7874 122.092 19.7917C122.331 19.9452 122.543 20.5445 122.759 20.7785C123.378 21.4496 124.288 21.9171 125.114 22.2703C126.119 22.7 128.572 23.132 127.435 24.7219C128.243 24.6058 128.618 25.3355 127.607 25.5203C127.06 25.6207 126.826 25.1191 126.419 24.7769C125.48 23.9879 123.199 22.8644 121.846 22.9152C121.085 22.9437 120.496 23.5215 119.794 23.7312C119.103 23.9375 118.761 23.6175 118.155 23.6683C117.446 23.7273 116.99 24.3269 116.315 24.4336C115.682 24.5336 115.33 24.1023 114.765 24.1324C114.093 24.1679 113.442 24.7515 112.801 24.9476C111.78 25.2594 111.031 25.4719 110.035 25.9887C108.104 26.9906 105.949 27.3711 103.959 28.2336C102.368 28.9231 100.565 29.286 99.093 30.0485C97.4563 30.8958 95.8121 31.7399 94.2094 32.6606C93.0516 33.3259 90.6976 33.5548 89.4211 33.3856C89.4027 35.7365 88.2457 34.0884 87.0796 35.1181C87.3554 35.3615 87.6687 35.5404 88.0183 35.6548C86.7546 36.1595 85.5866 36.7876 84.3624 37.3677C83.0971 37.9677 81.7471 38.0998 80.9159 39.2345C80.1502 40.2803 80.4096 39.7408 79.267 40.1525C78.7428 40.3416 78.2869 40.9182 77.9092 41.3053C77.26 41.9709 77.1162 42.9787 76.7455 41.6107C76.6373 41.7775 76.2115 42.8397 76.1287 42.8666C75.6642 42.3736 75.5974 42.958 75.3377 43.167C75.4744 43.6213 75.2791 43.919 74.7517 44.06C74.4849 44.2584 74.2146 44.453 73.9416 44.6432C72.9509 45.3303 71.69 45.9198 70.9923 46.9436C70.4778 46.6401 70.2872 46.1163 70.6005 45.5815C69.6173 46.4878 68.4442 47.4186 68.1782 48.8136C68.0559 48.6956 67.9134 48.6104 67.7516 48.5581C67.3524 48.8276 67.8723 49.6308 68.1255 49.8116C69.2294 49.3827 67.8497 49.5382 68.5915 49.6073C68.8028 49.6269 69.02 49.7851 69.2532 49.7878C69.9372 49.7968 70.5798 49.764 71.2579 49.6597C72.7533 49.4292 74.2228 48.9999 75.6705 48.5694C77.2471 48.1007 78.824 47.6327 80.3659 47.0577C81.6354 46.5842 82.8839 46.0565 84.1319 45.5307C84.6304 45.3206 85.1284 45.1077 85.6276 44.8991C86.5757 44.503 87.0757 43.8522 86.9433 44.967C87.6984 44.8416 88.3527 43.7744 88.9324 43.3389C89.748 42.7268 90.6652 42.2701 91.6316 41.9576C92.023 41.8311 92.3105 41.6701 92.7152 41.6689C92.9137 41.6686 93.0324 42.2279 93.1574 42.1975C94.0246 41.9873 93.6293 41.5068 94.0191 40.8146C94.8719 39.3017 97.1688 38.465 98.5794 37.6056C99.4747 37.0599 100.11 36.3259 100.937 35.7216C101.324 35.4392 101.604 35.3142 102.009 35.1946C102.32 35.1029 102.7 35.8154 102.901 35.0993C102.18 34.8044 101.585 34.4407 100.891 34.2255C100.4 34.0728 100.989 33.5505 100.211 33.8614C99.8981 33.9864 99.7907 34.5911 99.6759 34.8443C98.8067 34.0681 96.3629 34.8724 95.3317 35.1974C95.2606 35.2196 94.9422 35.0517 94.7922 35.0618C94.1969 35.1017 93.7824 35.9029 93.3906 36.2482C92.3488 37.1658 91.2187 37.5494 89.9359 38.0732C90.2773 36.2079 92.7863 35.4439 94.2508 34.7294C96.3914 33.6849 98.3844 32.3516 100.728 31.7899C102.289 31.4153 104.358 31.1141 105.032 32.929C105.435 34.0169 105.486 36.7197 104.121 37.2216C103.977 36.7138 104.438 36.2798 104.577 35.8392C103.218 36.3579 102.995 37.9904 101.963 38.8424C101.383 39.3209 101.175 39.4744 100.895 39.9369C100.616 40.3963 100.483 40.8248 99.8298 41.3135C98.763 39.0474 98.9434 42.1514 98.4024 42.5408C98.62 42.3842 97.5208 42.8416 97.652 42.7932C97.6012 42.8119 97.1223 42.0361 96.8118 42.0525C96.2465 42.0822 96.3551 42.7045 96.0828 43.0178C95.1598 44.078 93.9672 44.7733 92.4816 44.6065C92.4469 45.3608 92.6797 46.262 91.6496 46.3307L91.5144 44.6584C90.9539 45.2256 90.216 45.7643 89.7597 46.421C89.2406 47.1682 89.2961 47.6284 88.4347 48.1265C87.5347 48.6472 85.6198 49.673 84.5487 49.7616C84.8136 49.3858 84.7667 49.0464 84.4089 48.744C83.8702 49.2995 83.0749 49.3542 82.5014 49.8558C84.4921 50.6874 80.9721 50.6445 80.5256 50.7386C80.2268 50.8019 79.9658 51.0741 79.6631 51.1355C79.2612 51.2171 79.2092 50.7945 78.8631 50.9284C78.3568 51.1245 78.5623 51.6781 78.0326 51.9562C77.6522 52.1562 77.0068 52.1535 76.5775 52.3433C75.5545 52.7964 73.3751 53.8 72.6837 52.5828C72.3333 54.6711 68.7548 53.4 67.4302 53.2593C65.6161 53.0667 62.4562 52.2152 64.1391 49.7866ZM71.7587 28.42C72.0154 28.2008 72.2724 28.2168 72.5294 28.4684C72.1716 26.5785 74.9392 25.6609 76.1467 24.8574C77.7482 23.7918 79.6334 21.7242 81.7291 21.8878C81.3717 22.1527 81.0151 22.4175 80.658 22.6824C81.1678 22.7484 81.6772 22.8144 82.1862 22.8804C81.8991 23.3023 81.6116 23.7238 81.3237 24.1453C80.8534 21.5531 78.3994 24.8258 77.6893 25.3027C76.974 25.7828 76.2607 26.1406 75.6252 26.7262C74.9955 27.3063 74.4271 28.3508 73.3861 27.8289C73.2912 29.3094 72.1009 28.9078 71.2778 29.7278C71.2435 29.2133 71.538 28.8496 71.7587 28.42ZM82.6315 21.0296C85.1647 20.0808 87.3702 18.3265 89.7574 17.0733C92.0375 15.8761 94.3637 14.8011 96.6817 13.6843C97.8575 13.1175 100.011 11.6519 101.356 12.3987C103.169 13.4073 100.672 13.7327 100.024 14.082C99.7841 12.5288 98.9438 13.9359 99.4458 14.7999C98.0618 14.2023 95.0434 16.5406 93.7231 17.1854C93.4242 17.3315 93.5582 17.4159 93.2184 17.5878C93.1348 17.63 92.2683 17.8272 92.0203 17.9104C90.7773 18.3265 89.9582 17.996 89.4226 19.4964C89.3105 19.1433 89.1984 18.7898 89.0863 18.4362C88.3081 20.1835 85.9429 20.9484 84.4304 21.9816C84.0405 22.248 82.9272 23.2812 82.4327 23.0675C81.7444 22.7699 82.0206 21.2581 82.6315 21.0296ZM128.33 26.2977C129.4 26.3684 128.368 26.8672 128.662 27.1969C128.629 27.1598 129.306 27.7375 129.218 27.5789C129.337 27.7922 129.624 27.7844 129.771 28.218C130.277 29.709 128.068 31.2497 127.323 32.0958C125.875 33.7415 125.038 35.8255 123.528 37.4185C122.846 38.138 122.168 38.6349 121.223 38.9033C120.562 39.0912 119.862 38.89 119.255 39.526C118.765 40.0381 118.876 40.3291 118.335 40.6014C117.382 41.0814 116.962 40.6603 116.035 41.6979C115.237 39.5283 117.53 39.5318 118.726 38.3193C120.378 36.6454 122.187 34.9568 123.736 33.1661C125.112 31.5751 125.663 30.1801 126.316 28.2473C126.522 27.6379 126.747 26.3313 127.314 25.9488C128.198 25.3535 127.668 26.2535 128.33 26.2977ZM133.59 82.6577C136.395 79.5202 139.874 76.703 143.646 74.8131C144.994 74.1373 146.914 73.2506 148.311 74.2908C149.681 75.3104 149.386 77.3444 148.834 78.728C148.305 78.5202 148.804 76.5756 148.53 76.0952C147.93 75.0467 146.637 75.6034 145.758 75.9549C144.727 76.3667 143.808 76.8213 142.992 77.5686C142.66 77.8714 142.026 78.1428 141.814 78.3511C141.496 78.2186 141.308 78.3151 141.251 78.6401C141.317 78.8393 141.309 79.0354 141.228 79.2284C141.181 79.2897 140.767 79.0382 140.708 79.0886C140.439 79.3186 140.187 79.5893 139.923 79.803C139.392 80.2323 138.94 80.4354 138.452 81.0339C137.508 82.1906 136.26 82.8683 135.311 83.9703C135.097 84.2195 134.841 84.8582 134.793 84.914C134.313 85.4734 133.603 85.916 133.062 86.5082C132.127 87.5312 131.129 88.218 130.051 89.0953C129.586 89.4727 129.045 89.8793 128.736 90.4043C128.595 90.6438 128.516 91.9563 128.511 91.9618C127.453 93.1212 127.659 90.7907 127.738 90.4985C128.597 87.3543 131.502 84.9937 133.59 82.6577ZM127.816 103.919C127.947 104.412 128.056 104.821 128.189 105.322C127.35 104.634 127.35 104.634 127.816 103.919ZM126.91 105.536C126.602 105.846 126.292 106.155 125.98 106.462C125.293 105.736 127.036 105.412 126.91 105.536ZM126.474 93.0505C126.146 94.3778 124.945 95.9868 124.119 97.0345C124.21 96.9189 123.414 97.1513 123.324 97.204C123.03 97.3743 123.734 98.4783 122.715 97.9849C122.353 98.1896 123.065 99.0232 122.574 99.3962C121.153 96.1599 125.032 93.3559 126.533 90.9536C127.268 91.6278 126.659 92.3063 126.474 93.0505ZM117.249 110.548C118.284 110.815 118.823 110.647 119.522 109.63C119.943 109.019 120.096 107.937 121.057 108.851L121.227 107.676C122.599 108.239 122.484 110.273 123.084 111.4C123.375 110.125 124.066 106.562 126.182 107.133C128.558 107.775 124.604 111.86 124.237 112.861C123.43 111.608 123.747 112.774 123.131 112.95C122.603 113.102 121.777 112.713 121.135 112.748C119.181 112.855 117.464 113.734 115.68 114.478C115.228 113.259 114.776 112.041 114.324 110.823C115.375 110.903 117.548 108.106 117.856 110.139C117.077 110.004 116.857 110.038 116.478 110.748C116.72 110.624 116.977 110.558 117.249 110.548ZM121.635 126.451C121.632 126.441 123.656 126.566 123.836 126.5C125.222 125.995 124.709 124.424 124.993 123.313C125.564 123.838 125.261 124.796 125.437 125.475C125.644 126.274 126.242 126.954 126.298 127.808C126.424 129.738 124.841 129.309 123.641 129.934C122.615 130.467 122.502 131.138 121.636 129.701C121.401 129.311 120.897 128.298 120.949 127.8C121 127.307 121.78 126.897 121.635 126.451ZM123.266 134.8L122.706 134.173C124.374 134.683 123.391 133.916 123.774 132.866C125.054 133.719 126.098 134.595 127.111 132.888L128.861 139.947C127.686 140.223 126.17 138.407 125.363 137.783C124.898 137.423 122.314 136.034 123.865 135.63C123.665 135.353 123.466 135.076 123.266 134.8ZM134.69 112.635C133.718 113.559 132.74 114.076 131.682 114.802C130.754 115.439 131.074 116.171 130.269 116.882C129.735 117.355 128.483 117.836 127.823 118.196C126.648 118.839 125.595 118.961 124.386 118.242C124.715 120.891 122.901 121.098 120.643 121.623C119.566 121.873 118.928 122.256 118.152 121.27C117.621 120.595 117.412 119.372 118.074 118.755C119.124 117.773 121.923 118.112 123.27 117.495C124.293 117.027 125.335 114.39 126.597 115.35C125.945 114.312 126.704 114.033 127.27 113.294C127.89 112.483 128.27 111.535 128.912 110.732C130.131 109.203 132.002 107.666 133.733 106.745C135.256 105.934 136.055 106.508 136.283 108.21C136.398 109.066 136.394 110.341 135.915 111.101C135.762 111.343 135.258 111.346 135.105 111.573C134.839 111.97 135.083 112.26 134.69 112.635ZM152.562 92.0903C153.777 93.0309 153.659 95.0075 153.85 96.3536C154.12 98.2509 153.925 100.087 153.896 102.019C153.865 104.044 152.872 105.363 152.404 107.26C151.885 109.371 151.214 110.489 150.048 112.261C151.312 112.46 149.431 116.235 149.121 116.723C148.784 117.254 146.069 119.698 147.233 119.698C146.591 120.545 145.892 121.414 145.252 122.238C145 122.562 144.558 122.689 144.36 122.918C143.955 123.384 143.931 123.798 143.641 124.341C143.202 125.165 143.057 124.945 142.48 125.543C142.081 125.956 141.819 126.501 141.427 126.897C140.165 128.171 140.004 127.127 139.298 126.145C139.19 126.408 138.997 126.573 138.721 126.64C138.5 125.529 140.022 124.407 140.662 123.732C141.71 122.625 142.668 121.407 143.594 120.197C145.579 117.605 147.362 114.851 148.769 111.901C150.266 108.761 151.462 105.363 152.083 101.938C152.556 99.3279 153.006 94.8497 149.518 94.1856C146.981 93.7028 144.184 95.2442 142.092 96.4923C140.818 97.2525 139.536 98.0083 138.322 98.8634C137.004 99.7908 135.865 101.103 134.435 101.847C135.217 101.44 132.635 102.665 133.031 102.321C132.845 102.482 133.005 102.974 132.883 103.195C132.724 103.484 132.17 103.769 131.921 103.956C131.265 104.449 130.216 104.953 129.918 105.767C125.755 102.798 134.033 97.5259 136.155 96.1833C140.364 93.5204 147.688 88.3172 152.562 92.0903ZM163.79 63.2098C163.751 61.0715 165.492 58.1524 166.668 56.4086C167.244 55.5551 168.163 55.589 168.5 54.5824C168.694 54.0027 168.439 53.3949 168.497 52.8128C168.575 52.0257 168.917 51.3945 169.31 50.7179C172.87 44.6018 177.195 39.1884 181.802 33.8524C184.073 31.2219 186.227 28.4903 188.677 26.0191C189.7 24.9871 192.45 21.2769 194.024 21.648C194.857 21.8445 195.342 23.116 195.718 23.7648C196.34 24.8379 197.024 25.843 197.78 26.8297C199.775 29.4348 202.076 31.7216 204.794 33.5681C206.49 34.722 208.205 35.8435 209.864 37.0525C211.23 38.0474 213.296 39.1849 214.271 40.5818C215.247 41.9791 213.814 43.1623 213.031 44.3225C211.814 46.1268 210.694 47.9964 209.472 49.7987C208.986 49.4495 209.112 48.7401 208.779 48.2929C208.483 47.8964 208.066 47.735 207.658 47.4901C206.876 47.0218 206.109 46.4491 205.403 47.2339C204.168 48.6073 205.867 51.8538 207.698 51.4976C207.914 52.8531 204.257 55.0855 203.34 55.8316C200.528 58.1199 197.627 60.1094 193.911 60.3164C192.408 60.4 190.843 60.286 189.415 59.7828C188.731 59.5418 187.974 59.211 187.449 58.6856C186.821 58.0567 186.661 57.1207 186.052 56.498C185.523 55.9578 184.797 55.8746 184.269 55.3324C183.74 54.7898 183.479 53.9328 183.264 53.23C182.845 51.857 182.766 50.4089 182.362 49.0327C182.12 48.205 181.921 47.0983 181.13 47.8936C179.981 49.0491 180.558 52.6824 180.852 54.0668C181.273 56.0418 182.259 57.634 183.292 59.3332C184.412 61.1766 184.826 62.8864 185.027 65.0192C185.403 69.0119 186.548 72.8432 188.331 76.4354C189.082 77.9479 189.981 79.3702 190.791 80.848C191.169 81.5374 192.017 83.8898 193.047 83.8773C194.691 83.857 192.349 79.0612 192.024 78.2561C190.222 73.7971 188.501 69.1103 188.115 64.2821C190.698 64.9474 193.513 65.5786 196.187 65.1571C194.461 69.0173 196.264 72.8607 196.043 76.8342C195.933 78.8268 195.853 80.6651 195.894 82.6519C195.931 84.3941 195.144 86.1355 194.464 87.7109C193.113 90.8395 191.413 94.6989 188.904 97.0954C186.807 99.099 184.001 99.2556 181.261 98.7943C175.027 97.7443 170.931 92.9524 168.315 87.5101C166.635 84.014 165.35 80.2819 164.552 76.485C163.629 72.0908 163.872 67.6669 163.79 63.2098ZM171.886 33.5958C166.069 29.3868 174.522 24.607 178.825 25.2578C179.834 25.4102 181.691 25.8273 181.596 27.1445C181.519 28.2211 179.723 29.4211 179.034 30.0856C177.068 31.9817 175.067 35.897 171.886 33.5958ZM214.204 127.119C214.005 126.94 212.377 127.379 213.021 126.416C213.557 125.616 215.043 126.619 215.583 126.825C215.138 127.132 214.751 127.608 214.204 127.119ZM189.982 178.026C189.482 178.087 188.959 176.739 190.761 177.746C190.502 177.839 190.241 177.933 189.982 178.026ZM189.93 200.003C189.992 200.607 190.177 201.006 189.748 201.445C189.385 200.998 189.338 200.367 189.93 200.003ZM190.662 209.084C190.609 209.412 190.556 209.741 190.503 210.07C190.087 209.859 189.671 209.649 189.255 209.438C189.723 209.32 190.193 209.202 190.662 209.084ZM191.171 201.426C191.791 201.658 191.503 200.917 191.953 200.812C192.115 201.585 191.916 202.246 191.472 202.883C191.43 202.732 191.203 201.438 191.171 201.426ZM207.024 146.631C206.154 146.52 206.023 147.439 205.374 147.796C204.955 148.027 203.68 147.853 203.442 148.294C203.756 148.385 204.071 148.476 204.385 148.567C203.665 148.954 202.946 149.342 202.227 149.73C203.957 149.73 205.759 148.904 207.477 149.146C208.203 149.249 208.736 149.494 209.191 150.085C209.468 150.443 209.711 151.02 209.755 151.459C209.803 151.934 209.433 152.263 209.499 152.489C210.273 152.51 210.182 153.78 210.008 154.298C209.631 155.42 208.133 157.177 206.792 156.466C207.353 157.262 207.21 157.717 206.38 158.179C206.455 157.916 206.511 157.455 206.087 157.501C205.978 157.942 206.019 158.642 205.659 158.975C205.255 159.347 204.895 158.912 204.509 159.154C204.052 159.442 204.189 159.893 203.83 160.205C203.354 160.617 203.286 160.324 202.717 160.404C201.856 160.526 202.405 159.991 201.715 160.688C201.477 160.929 201.517 161.555 201.13 161.908C200.387 162.584 198.405 163.288 197.693 162.421C195.982 165.133 190.852 165.784 188.465 163.643C184.657 160.229 191.757 153.284 194.101 151.084C196.454 148.875 199.067 146.967 201.712 145.126C203.214 144.08 204.756 143.13 206.33 142.198C207.301 141.623 208.521 140.572 209.714 140.673C210.784 140.764 211.699 141.594 212.826 141.758C213.641 141.877 215.224 142.073 214.196 143.179C213.715 143.695 211.827 144.53 211.184 144.656C210.806 144.73 210.408 144.589 210.033 144.665C209.4 144.795 208.965 145.33 208.275 145.262C208.494 146.285 208.095 146.767 207.024 146.631ZM218.294 108.65C218.294 109.45 216.833 109.251 216.528 108.979C216.026 108.532 216.008 107.194 215.822 106.586C216.671 106.799 218.293 107.581 218.294 108.65ZM206.525 82.2441C209.594 79.7218 212.82 77.4092 216.231 75.3725C217.453 74.6432 219.177 73.1721 220.695 73.3557C221.331 73.433 222.647 74.1639 222.167 74.9698C222.078 75.1205 221.37 75.1811 221.151 75.2905C220.903 75.4143 220.708 75.7557 220.478 75.9245C218.884 77.0936 216.97 77.812 215.371 79.0093C214.057 79.9925 212.831 81.0925 211.417 81.9362C210.06 82.7452 208.642 83.2574 207.353 84.1535C207.379 84.1355 205.678 84.7472 206.011 84.8586C204.518 84.3589 206.095 82.5976 206.525 82.2441ZM226.985 81.3046C228.808 80.578 230.592 79.6964 232.501 79.2081C233.453 78.9643 234.431 78.7811 235.417 78.8909C235.584 78.5975 235.807 78.5327 236.086 78.6964C236.304 79.0308 236.59 79.2874 236.947 79.4667C237.49 79.8847 239.492 80.4312 239.092 81.3542C238.828 81.9648 236.821 82.0155 236.27 82.1527C234.609 82.5663 233.061 83.4968 231.35 83.7253C231.19 83.7468 230.665 83.5523 230.66 83.5535C229.992 83.6992 229.436 84.3918 228.863 84.7238C227.629 85.4382 225.855 85.5582 224.969 86.7914C227.839 88.7371 230.329 86.8074 232.853 85.3382C234.365 84.4585 235.987 83.8238 237.639 83.2597C238.503 82.9652 239.374 82.6589 240.249 82.4003C240.611 82.2683 240.983 82.1734 241.365 82.1152C241.721 82.0445 241.975 82.1738 242.128 82.5035C243.186 82.4683 243.277 81.8046 243.914 83.0425C244.811 84.7878 243.438 84.6992 242.147 84.9136C240.357 85.2105 238.537 85.8793 236.773 86.3226C236.367 86.425 232.8 87.2519 232.796 87.2812C232.634 88.407 242.871 87.3644 243.75 87.1957C245.3 86.8973 246.964 86.05 248.569 86.2543C249.802 86.4109 252.61 88.2195 250.644 89.4211C250.257 87.568 248.928 89.0984 248.234 89.7238C247.31 90.5563 245.986 90.4762 244.718 90.8024C242.984 91.2477 238.546 92.9188 237.315 90.7883C237.705 92.6555 230.63 91.7067 229.658 91.645C228.71 91.5844 227.486 91.786 226.569 91.5157C225.972 91.3395 225.639 90.9508 225.077 90.8633C224.939 91.0118 224.774 91.1129 224.581 91.1664C224.296 91.0223 224.039 90.8387 223.809 90.6164C221.915 89.7457 218.983 89.2645 220.036 86.4906C221.029 83.8746 224.577 82.2648 226.985 81.3046ZM244.743 82.9214C244.79 82.7585 244.837 82.5956 244.884 82.4324C244.89 82.932 246.082 83.1453 245.944 83.7925C245.639 85.2257 244.264 83.0722 244.146 82.8374C244.345 82.8656 244.544 82.8933 244.743 82.9214ZM252.017 85.3027C252.155 85.8898 253.74 87.1398 253.347 87.4281C252.722 86.5789 250.996 86.9644 252.017 85.3027ZM225.292 138.874C225.872 137.723 227.625 139.682 227.44 137.718C228.393 137.805 227.798 138.53 228.941 138.211C229.369 138.092 229.658 137.617 230.18 137.508C230.319 137.478 230.921 137.526 231.128 137.52C231.815 137.499 234.508 137.422 232.654 136.521C233.692 135.835 233.82 136.183 234.756 136.812C234.516 135.512 235.894 136.25 236.535 136.412C236.078 135.671 237.213 134.883 237.581 134.382C237.449 135.153 237.519 136.017 238.635 135.524C238.913 135.401 238.851 134.856 239.071 134.767C239.475 134.604 239.701 134.9 239.846 134.883C239.989 134.867 240.289 134.947 240.589 134.835C240.978 134.688 240.79 134.165 241.284 134.088C241.605 134.037 241.84 134.51 242.233 134.514C242.434 134.516 242.771 134.311 242.924 134.322C242.951 134.324 243.143 133.862 243.378 133.85C243.723 133.833 243.863 134.756 243.989 134.936C244.592 135.791 245.394 136.349 246.319 136.805C244.645 138.34 241.269 138.177 239.165 138.694C238.025 138.975 237.053 139.379 236.01 139.9C235.758 140.064 235.542 140.265 235.36 140.503C235.213 140.405 235.065 140.307 234.917 140.208C234.346 140.244 233.805 139.961 233.162 140.069C231.174 140.405 229.619 141.893 227.599 142.225C226.692 142.374 225.946 142.582 225.355 141.796C224.836 141.106 224.922 139.607 225.292 138.874ZM222.567 129.704C223.017 130.085 222.475 131.325 223.347 131.19C223.966 131.095 223.843 130.135 224.329 129.931C224.967 129.665 225.352 130.298 225.952 130.239C227.07 130.129 227.006 129.152 226.061 128.724C227.044 128.464 227.359 129.626 228.229 129.615C229.371 129.602 229.099 128.254 230.071 128.03C230.492 127.933 230.351 128.552 230.624 128.629C231.171 128.782 231.552 128.518 232.036 128.286C232.469 128.079 232.777 127.678 233.25 127.542C233.465 127.48 234.012 127.594 234.17 127.479C234.488 127.247 234.773 126.343 235.087 126.223C235.022 126.247 236.05 126.762 236.197 126.811C236.107 127.192 235.898 127.238 235.57 126.947C235.57 127.808 237.964 128.077 237.473 127.012C238.767 127.548 237.803 127.824 237.674 128.572C237.622 128.873 237.447 128.865 237.499 129.183C237.523 129.329 238.201 129.203 238.193 129.402C238.136 130.688 234.038 131.083 233.262 131.197C231.655 131.431 230.135 131.826 228.585 132.313C227.432 132.675 225.443 133.712 224.216 133.647C222.451 133.555 222.221 131.252 222.567 129.704ZM218.623 116.586C218.192 115.156 219.573 112.202 221.372 112.571C221.814 112.662 221.923 113.028 222.266 113.191C222.745 113.418 223.524 113.299 223.939 113.534C224.87 114.06 224.4 115.403 225.333 115.888C223.861 116.245 219.307 118.859 218.623 116.586ZM220.327 122.143C220.961 121.802 221.99 121.758 222.422 121.102C222.638 121.251 223.045 122.157 223.432 122.018C223.612 121.954 223.799 121.463 223.786 121.463C224.13 121.454 224.198 120.988 224.724 121.04C225.207 121.088 225.748 121.669 226.178 121.885C226.104 120.446 226.473 120.309 227.64 119.538C227.895 119.37 228.109 118.736 228.345 118.48C228.119 119.99 228.688 119.998 229.894 120.225C231.406 120.509 232.348 121.321 232.954 122.782C231.665 122.531 230.004 122.833 229.496 124.218C228.468 122.339 224.731 124.931 223.522 125.462C222.625 125.856 221.581 126.386 220.829 125.468C220.299 124.821 220.602 124.043 220.614 123.468C220.617 123.288 220.803 123.277 220.786 123.008C220.764 122.665 220.318 122.528 220.327 122.143ZM234.081 151.682C233.741 151.811 231.99 151.884 231.978 151.304C231.969 150.791 235.069 151.307 234.081 151.682ZM231.236 149.806C229.911 150.623 228.429 147.744 227.942 146.916C229.332 147.093 230.01 145.931 230.829 145.047C231.608 146.754 232.791 145.852 234.035 145.282C235.502 144.61 237.11 144.605 238.613 144.065C239.082 143.897 239.515 143.646 239.973 143.454C240.341 143.316 240.709 143.175 241.075 143.03C241.335 142.795 241.427 142.507 241.351 142.164C241.228 141.877 241.312 141.695 241.603 141.62C241.95 141.723 242.303 141.783 242.664 141.799C243.243 141.685 244.075 141.138 243.376 140.549C244.125 139.869 244.876 140.545 245.597 140.843C245.426 140.355 245.255 139.866 245.084 139.377C245.441 139.529 246.504 141.014 246.612 141.005C247.299 140.954 247.227 140.032 247.622 139.66C247.85 139.941 247.915 142.035 248.81 141.33C249.193 141.028 248.369 140.001 248.166 139.767C249.19 139.998 250.084 141.221 250.361 142.17C249.875 142.241 249.425 142.143 249.012 141.876C248.748 143.198 251.195 142.663 251.591 143.353C252.367 144.705 247.321 145.644 246.663 145.77C245.348 146.021 243.795 146.114 242.589 146.697C241.434 147.255 241.16 147.415 239.81 147.52C238.269 147.639 236.765 148.147 235.275 148.543C233.981 148.886 232.384 149.099 231.236 149.806ZM259.401 101.41C260.618 100.972 264.716 98.7001 265.76 99.7107C265.649 99.6037 266.512 101.386 266.503 101.274C266.577 102.201 266.555 102.574 265.413 103.018C264.596 103.336 263.885 102.66 263.149 102.928C262.342 103.223 262.907 103.745 262.491 104.11C262.036 104.509 261.158 104.682 260.591 104.857C259.203 105.285 257.805 105.644 256.424 106.105C253.614 107.045 250.639 107.919 247.751 108.583C245.593 109.08 241.931 110.314 239.942 108.857C239.748 109.685 239.274 109.572 238.616 109.692C238.099 109.787 237.164 110.043 236.705 110.056C235.94 110.078 233.815 109.878 234.108 108.806C234.027 109.101 235.761 108.09 235.461 108.027C236.197 108.182 235.958 107.812 236.562 107.605C237.349 107.336 238.173 107.351 238.977 107.065C241.005 106.347 242.706 105.414 244.846 104.963C249.735 103.935 254.684 103.108 259.401 101.41ZM63.4231 212.19C63.027 212.2 62.7188 211.075 63.9239 211.879C63.757 211.982 63.5903 212.086 63.4231 212.19ZM53.9034 210.734C53.3647 210.871 53.1499 210.571 53.2597 209.832C54.0108 209.535 54.2253 209.836 53.9034 210.734ZM46.5541 209.226C46.4162 208.568 46.9045 208.419 47.3471 208.123C47.3025 208.996 47.3025 208.996 46.5541 209.226ZM28.0625 203.807C27.3175 203.643 26.3249 202.914 26.1542 204.137C26.0296 203.854 25.3937 202.522 25.6667 202.214C25.8093 202.053 26.3492 202.799 26.2917 202.725C26.9437 201.406 28.0675 202.998 28.6957 203.468C28.4847 203.581 28.2734 203.694 28.0625 203.807ZM221.743 58.0641C222 57.5203 222.304 57.3477 222.652 57.5465C222.104 58.8184 220.25 59.5078 221.743 58.0641ZM234.63 46.1249C235.089 46.9862 234.398 47.3503 233.905 48.0663C234.194 47.294 234.394 46.7589 234.63 46.1249ZM290.638 130.206C292.295 130.205 295.825 129.331 296.824 131.225C297.485 129.938 298.237 132.351 298.811 132.738C298.875 132.782 299.289 132.466 299.481 132.583C299.771 132.758 300.021 133.236 300.187 133.52C300.687 134.376 300.902 135.394 301.18 136.336C298.285 136.336 295.318 135.662 292.426 135.417C290.528 135.256 288.667 135.252 286.766 135.354C286.388 135.374 285.638 135.25 285.315 135.321C284.987 135.393 284.392 136.062 284.031 135.954C284.593 137.009 291.792 139.564 292.341 138.395C291.69 138.001 290.245 137.699 290.246 136.747C290.247 135.681 291.602 135.683 292.32 135.715C293.89 135.783 296.52 136.306 297.164 137.939C297.439 138.639 297.524 140.401 297.221 141.077C297.025 141.514 296.694 142.038 296.169 142.127C295.954 142.163 295.644 141.877 295.611 141.884C294.533 142.112 292.539 142.978 291.364 141.758C290.517 142.854 286.436 141.657 285.186 141.243C283.001 140.519 279.992 139.526 278.664 137.487C277.046 135.002 280.336 132.901 282.225 131.891C284.806 130.511 287.756 130.207 290.638 130.206ZM301.666 135.952C302.174 136.095 302.682 136.239 303.19 136.382C303.054 137.273 301.05 136.568 301.666 135.952ZM317.021 168.326C317.177 164.758 316.146 161.615 315.55 158.164C315.402 157.308 315.553 155.813 314.903 155.109C314.282 154.436 312.897 154.983 312.842 153.794C312.23 154.51 312.292 154.66 311.539 153.836C311.676 154.189 311.696 154.548 311.598 154.914C311.131 154.646 309.436 153.756 309.579 154.973C308.186 154.665 308.589 153.793 307.794 153.128C307.681 153.034 307.228 153.369 307.051 153.226C306.731 152.967 306.573 152.732 306.303 152.398C305.961 152.813 305.494 153.112 305.076 153.439C304.832 152.909 304.359 152.52 303.789 152.391C304.321 153.505 305.638 154.948 303.832 155.582C302.755 155.96 300.989 155.497 299.848 155.585C295.617 155.913 290.984 154.991 286.893 153.983C282.691 152.948 278.442 151.486 274.663 149.35C273.858 148.895 273.35 148.356 272.657 147.791C271.982 147.242 271.492 147.155 270.682 146.804C269.223 146.172 267.888 145.158 266.778 144.028C264.392 141.599 262.175 138.422 262.839 134.865C263.502 131.32 265.939 128.55 268.546 126.216C271.625 123.459 275.102 121.157 278.792 119.301C280.442 118.471 284.663 115.355 286.293 117.178C287.334 118.343 286.749 119.83 285.325 120.089C284.974 120.153 284.607 119.917 284.252 120.079C283.74 120.311 283.92 120.586 283.709 120.78C283.342 121.118 282.952 121.643 282.404 121.936C280.491 122.956 278.642 123.764 276.814 125.006C275.971 125.578 275.159 125.824 274.416 126.324C273.677 126.82 273.509 127.642 272.516 127.135C272.869 128.581 270.744 130.128 269.912 131.014C268.621 132.385 267.074 134.135 267.676 136.163C268.855 140.135 274.18 143.151 277.587 144.896C281.839 147.075 286.529 148.809 291.264 149.526C293.618 149.883 296.051 150.103 298.422 150.329C300.269 150.505 303.102 149.861 304.431 151.523C304.472 149.584 310.528 149.755 311.817 149.507C309.233 140.673 304.158 132.819 298.733 125.481C296.071 121.878 293.456 118.173 290.421 114.871C287.098 111.256 283.302 108.025 279.695 104.698C272.621 98.1736 264.62 92.3504 256.479 87.2207C248.356 82.1031 239.944 77.0663 231.045 73.4174C220.881 69.2502 210.18 66.5091 199.468 64.1747C200.921 62.3231 203.285 61.42 205.146 60.0653C205.797 59.591 206.678 58.4528 207.524 58.2973C208.44 58.1285 209.162 59.1145 209.814 59.6094C211.686 61.0297 212.981 60.4266 215.126 60.3411C216.409 60.2899 219.448 61.0043 219.989 59.2688C220.708 60.2266 219.665 60.9946 219.131 61.6969C219.52 62.2391 219.833 61.6766 220.217 61.5919C220.335 61.4938 220.453 61.3954 220.572 61.2973C220.762 61.0215 220.934 61.02 221.087 61.2919C221.316 61.6364 221.546 61.5602 221.778 61.0629C221.842 61.0231 221.905 60.9829 221.969 60.943C222.246 60.7954 222.514 60.5618 222.772 60.3778C224.72 58.9852 226.457 57.7988 228.608 56.773C230.415 55.9121 229.444 54.2648 230.635 53.1015C230.904 52.8382 231.358 52.9703 231.646 52.7472C231.928 52.5281 231.97 52.2796 232.176 52.0449C232.671 51.4804 232.082 50.8253 233.345 51.5163L232.889 48.9534C235.365 51.355 235.355 44.444 235.693 43.4213C235.649 43.5565 235.915 42.51 235.915 42.519C235.988 40.4451 236.271 38.942 233.842 38.8216C234.762 38.2431 235.043 39.3728 235.467 38.2033C235.68 37.6173 235.016 36.6103 236.074 36.988C236.297 35.7427 236.077 34.7349 235.799 33.5247C235.515 32.286 235.682 31.4594 235.695 30.2208C235.71 28.8157 235.052 27.4035 234.841 26.0199C234.676 24.9363 234.846 23.2273 233.446 23.6254C233.249 23.3172 233.94 22.3691 233.912 21.9003C233.869 21.1722 233.078 20.4324 232.854 19.7331C232.525 20.073 232.061 20.1863 231.613 20.0327C232.034 19.0827 231.639 18.7636 231.236 17.9444C231.005 17.4753 231.145 16.9573 230.651 16.6211C230.367 16.4281 229.885 16.7531 229.663 16.5269C229.187 16.0425 229.363 15.3999 229.035 14.7617C228.625 13.9613 227.687 13.3499 227.041 12.7491C223.408 9.37213 219.461 6.79124 214.628 5.4717C209.753 4.14043 204.069 3.66347 199.21 5.19904C197.268 5.81272 195.544 5.74983 193.795 6.89593C193.229 7.26781 193.168 7.1682 192.88 7.78813C192.813 7.93266 193.417 8.31743 193.047 8.55377C192.646 8.81041 192.202 8.28853 191.998 7.85532C189.469 9.68581 187.099 12.1261 185.659 14.9242C184.228 17.7046 184.096 20.971 183.55 23.9926C181.029 21.1128 177.62 19.7323 173.913 21.1167C170.682 22.323 168.179 24.9746 167.547 28.4098C167.161 30.504 167.582 32.6247 168.533 34.5142C168.945 35.3306 169.443 36.2345 170.199 36.7841C170.797 37.2185 171.821 37.1576 172.103 37.9412C172.535 39.1416 170.042 41.7342 169.394 42.785C168.224 44.6866 167.136 46.6503 166.308 48.7272C163.338 44.533 160.496 39.9521 157.12 36.0849C153.934 32.4348 150.135 29.1614 146.41 26.0762C138.678 19.673 130.638 13.6573 121.988 8.55611C113.935 3.80605 104.206 1.16891 94.8203 2.10134C85.6495 3.01268 78.6283 8.81275 72.7201 15.5023C61.3598 28.3645 54.4019 46.6971 53.7222 63.8188C53.5179 68.9623 53.9097 74.0385 55.18 79.0272C55.7851 81.4026 55.6972 83.739 56.0487 86.1449C56.4456 88.859 57.132 91.5633 57.7956 94.222C60.3238 104.35 63.5449 114.47 67.1594 124.262C69.0388 129.354 71.3126 134.333 74.3888 138.823C75.8095 140.897 77.6502 142.52 79.1791 144.489C80.6623 146.4 81.0541 148.744 81.3803 151.088C82.1624 156.708 82.6811 162.352 83.1514 168.005C83.3511 170.4 83.5843 172.775 83.9014 175.154C84.178 177.228 83.4823 177.126 81.7374 177.83C82.0913 175.967 73.7544 177.235 72.9673 177.362C72.1107 177.5 71.2036 177.502 70.529 177.612C69.7747 177.735 69.0364 177.913 68.1677 177.888C66.8907 177.851 64.4996 177.525 64.0121 179.155C63.6766 177.265 61.4601 179.332 63.1 178.981C61.4168 179.169 59.6992 178.856 57.9957 179.014C56.0433 179.196 54.0741 179.368 52.1354 179.662C50.7858 179.866 49.4979 180.386 48.1459 180.537C46.4158 180.73 44.6103 180.712 42.8634 180.866C36.42 181.435 29.7414 182.84 23.478 184.45C22.0593 184.814 20.4292 185.073 19.0737 185.658C18.7108 185.814 18.3842 186.165 18.0366 186.299C17.4537 186.524 17.5334 186.368 17.0158 186.472C13.9146 187.091 10.7154 188.104 7.61455 188.899C5.8946 189.34 3.09691 189.737 1.69392 190.938C1.06501 191.475 0.515394 192.429 1.52322 193.04C2.32831 193.527 3.47738 192.749 4.12896 192.327C3.54848 193.84 2.4537 194.594 3.04496 196.315C3.51176 197.676 4.56568 199.352 6.18718 198.474C6.40437 198.98 6.49227 199.984 7.13173 200.17C7.70634 200.337 8.12237 199.608 8.68526 199.78C8.88683 199.841 8.81026 200.222 8.99074 200.322C9.30168 200.493 9.61692 200.565 9.97317 200.686C10.2794 200.79 10.7724 201.003 11.0919 201.026C11.2947 201.04 11.7724 200.694 11.7708 200.694C12.2365 200.764 12.4869 201.655 12.822 201.913C13.2572 202.247 13.6166 202.323 14.1615 202.444C15.2943 202.696 16.7545 203.127 17.5022 201.967C17.3311 202.796 18.4573 202.714 18.9541 202.819C18.8991 202.383 18.658 201.983 18.2862 201.744C19.3971 201.817 18.9467 202.922 19.7678 203.214C20.353 203.421 20.2866 202.894 20.7342 202.835C21.3241 202.758 21.7718 203.186 22.6929 202.791C22.8925 203.678 22.9655 204.573 24.055 204.705C24.6944 204.783 26.1855 203.628 26.1011 204.589C27.5296 204.171 28.0718 204.454 28.8183 205.713C28.9445 204.94 29.5551 205.164 30.1152 205.116C31.0031 205.041 31.0258 205.112 31.7141 204.609C31.777 204.564 32.3184 203.323 32.559 204.094C32.6672 204.439 31.952 205.252 31.6871 205.459C32.016 205.625 33.0938 206.207 33.5082 206.1C33.8668 206.008 33.868 205.395 34.2989 205.363C34.1934 205.716 34.0883 206.068 33.9825 206.421C34.8207 206.543 35.5211 205.982 36.1833 205.571C36.8145 207.167 38.6188 206.268 39.6001 207.469C40.1193 208.104 40.1435 208.587 41.1325 208.753C42.1447 208.923 43.0287 208.479 43.8888 209.314C43.6162 208.796 42.9369 208.366 43.6119 207.809C44.0713 208.461 44.3084 209.246 44.8381 209.853C44.9111 209.545 44.9842 209.236 45.0572 208.928C46.4381 210.405 48.1764 210.418 49.9452 211.236V210.155C51.2116 212.088 51.2792 210.865 52.7921 210.076C52.6893 210.644 52.5862 211.212 52.4835 211.78C53.5722 211.698 54.5894 212.988 55.4831 211.893C56.023 212.798 56.6773 212.352 57.5621 212.64C58.0652 212.804 58.4398 213.299 58.9293 213.478C59.6632 213.747 59.8824 213.734 60.5734 213.968C61.1879 214.176 61.5371 214.581 62.3062 214.711C62.8059 214.795 63.259 214.789 63.7371 214.766C63.9219 214.757 63.861 214.341 64.2715 214.438C64.9063 214.588 65.3789 215.384 65.836 215.793C66.5235 214.064 68.4485 216.379 69.379 216.688C69.4681 216.245 69.452 215.711 69.7728 215.347C70.1493 216.172 70.2931 216.865 71.0747 217.396C71.5259 217.703 72.1884 217.922 72.7095 218.034C73.0388 218.105 73.6373 218.02 73.8443 218.122C74.1974 218.295 74.3275 218.757 74.6841 218.8C74.8939 218.826 75.2049 218.274 75.3619 218.317C76.0807 218.513 76.4799 219.386 77.2057 219.858C79.3655 221.263 82.0835 221.4 84.4897 221.708C85.0937 221.785 85.1812 221.62 85.6718 221.974C85.9335 222.164 85.8148 222.74 86.1366 222.901C87.3495 223.509 87.3503 222.212 87.6046 221.406C88.0058 221.935 88.0749 222.634 88.6238 223.055C88.9234 223.047 89.2234 223.053 89.5226 223.076C89.6914 223.268 89.8023 223.49 89.8539 223.742C90.5804 224.233 91.4035 224.062 92.1539 224.431C92.4 224.551 92.8359 225.281 93.1391 225.491C93.6816 225.867 94.5207 226.068 95.1407 226.231C96.4407 226.573 98.3047 226.119 99.0782 227.476C100.105 226.375 99.7079 227.69 100.405 227.966C100.817 228.129 101.436 227.481 101.893 227.545C102.715 227.661 103.011 228.551 103.274 229.198C103.775 229.087 103.431 227.67 103.417 227.359C104.04 227.286 104.178 228.924 104.285 229.285C105.268 228.812 103.655 227.339 104.711 226.867C104.615 228.121 105.614 229.154 103.829 229.334C104.076 230.089 109.833 230.928 110.233 230.262C110.322 231.494 111.15 230.343 111.456 229.921C111.49 230.64 111.245 231.661 112.052 231.995C112.601 232.222 113.837 231.635 114.053 231.098C114.298 231.919 114.71 231.892 115.222 232.414C115.573 232.772 115.805 233.393 116.174 233.693C116.852 234.245 118.114 234.16 118.905 234.037C120.452 233.796 120.269 233.499 120.82 235.107C120.945 234.497 121.336 233.221 122.017 234.169C122.45 234.772 121.527 236.101 121.261 236.63C121.857 236.303 122.448 235.914 123.127 235.773C123.164 235.982 123.199 236.426 123.099 236.619C123.12 236.58 123.843 237.065 124.111 237.2C124.047 237.167 124.323 235.959 124.316 235.999C125.27 236.588 124.608 237.714 125.453 238.295C125.672 238.445 126.184 238.27 126.448 238.361C126.908 238.521 127.306 238.952 127.714 239.203C127.388 238.766 127.435 238.032 127.457 237.526C127.665 237.641 127.813 238.071 128.023 238.105C128.102 238.118 128.925 238.227 128.919 238.223C129.775 238.822 129.599 238.898 128.864 239.618C129.127 240.031 130.224 239.314 130.521 239.195C130.583 239.356 130.599 239.942 130.716 240.047C130.786 240.22 130.858 240.394 130.929 240.567C131.148 240.404 131.383 240.349 131.634 240.403C131.792 240.459 133.03 240.962 133.114 240.79C132.843 240.702 132.598 240.568 132.378 240.387C133.093 239.745 133.563 239.403 134.221 240.331C134.304 240.448 134.019 240.867 134.103 241.02C134.418 241.587 135.064 242.038 135.503 242.5C135.684 241.862 135.261 240.265 136.27 240.323C137.076 240.369 137.689 242.321 137.41 242.929C137.73 242.578 139.643 242.23 140.004 242.339C141.024 242.649 140.738 243.593 141.994 242.21C142.85 242.801 142.096 243.025 142.25 243.745C142.476 243.792 142.69 243.736 142.893 243.577C142.741 246.639 145 244.3 146.467 244.767C147.043 244.951 147.19 245.604 147.808 245.795C148.135 245.896 148.499 245.657 148.817 245.716C149.071 245.679 149.325 245.634 149.576 245.581C149.895 245.421 150.044 245.6 150.025 246.117C150.537 246.382 150.344 246.486 150.943 246.538C151.329 246.572 151.684 246.17 152.123 246.238C152.879 246.357 152.779 246.938 153.263 247.241C153.698 247.515 154.189 247.506 154.725 247.453C154.998 247.426 155.764 247.074 155.857 247.073C156.429 247.065 156.119 246.943 156.806 247.435C157.341 247.819 157.566 248.067 158.223 248.244C158.977 248.446 160.313 248.888 160.82 248.343C161.505 249.37 162.042 248.616 162.945 248.684C163.408 248.719 163.481 248.899 163.893 248.971C164.56 249.088 165.393 248.987 166.102 249.215C167.221 249.574 167.347 249.754 168.49 249.803C168.696 249.722 168.903 249.641 169.108 249.561C169.17 249.905 169.332 250.186 169.595 250.404C170.235 250.538 170.654 250.215 171.182 249.861C171.575 251.085 172.85 251.192 173.94 251.353C175.7 251.613 177.383 251.755 179.08 252.333C180.513 252.822 181.949 253.37 183.328 253.995C184.541 254.546 185.686 255.369 187.059 254.983C190.169 254.107 193.183 250.914 195.785 249.081C198.867 246.91 202.191 245.121 205.411 243.169C218.232 235.398 231.776 228.824 244.417 220.763C251.318 216.363 257.722 211.134 265.133 207.574C264.078 211.934 262.282 216.36 262.606 220.924C262.737 222.764 263.279 224.937 264.705 226.221C266.469 227.809 268.433 226.798 270.12 225.663C273.735 223.233 276.145 219.687 278.85 216.357C282.05 212.418 284.531 208.186 286.881 203.697C287.444 204.487 287.016 205.811 287.024 206.687C287.035 207.805 287.336 208.882 287.855 209.88C289.193 212.456 291.74 213.081 294.041 211.316C298.47 207.919 301.041 201.871 303.414 196.999C304.767 199.517 306.688 202.687 309.939 200.889C312.621 199.405 314.197 196.088 315.017 193.28C317.412 185.081 316.653 176.73 317.021 168.326Z" fill="black"/>
<path fill-rule="evenodd" clip-rule="evenodd" d="M312.953 119.079C312.647 118.336 312.512 118.458 313.075 117.737C313.513 118.169 313.163 118.526 312.953 119.079ZM326.508 164.046C325.647 161.6 326.179 158.945 325.656 156.437C325.417 155.286 325.038 154.169 324.902 152.998C324.841 152.478 324.378 150.138 324.694 149.769C323.723 149.182 323.72 148.747 323.496 147.595C323.842 147.228 323.798 146.915 323.365 146.656C323.083 146.313 322.799 145.971 322.516 145.629C323.754 146.234 323.022 144.685 322.895 143.792C322.795 143.087 322.728 142.351 322.493 141.675C322.204 140.843 321.56 140.423 322.899 140.423C322.458 139.922 321.799 139.405 321.58 138.791C321.264 137.908 321.785 136.741 321.141 135.961C320.782 135.525 318.932 135.355 319.256 134.415C319.422 133.936 320.172 134.294 320.404 133.958C321.316 132.639 318.623 132.093 318.491 131.532C318.32 130.805 319.292 130.642 319.352 129.962C319.41 129.296 318.375 128.203 318.102 127.607C317.729 127.698 317.321 128.287 316.894 128.006C316.813 127.953 316.935 125.648 316.838 125.342C316.743 125.042 316.548 124.244 316.478 124.096C316.202 123.51 315.412 123.224 315.286 122.532C315.211 122.119 316.831 121.493 314.973 121.473C315.641 120.297 314.418 119.583 313.973 118.578C313.402 117.286 313.064 115.891 312.477 114.593C311.906 113.331 311.267 112.133 310.444 111.017C309.698 110.006 309.376 109.034 308.78 107.967C308.661 107.873 308.542 107.78 308.423 107.686C307.926 107.758 307.767 107.532 307.945 107.007C307.565 106.444 307.282 105.843 306.947 105.255C306.558 104.572 306.032 104.015 305.63 103.351C305.096 102.47 304.938 101.477 304.335 100.593C303.593 99.5058 302.758 98.5472 302.071 97.4194C301.209 96.0065 300.255 95.1284 299.17 94.0342C298.654 93.5131 298.592 92.2116 297.96 91.4717C297.271 90.6658 296.591 90.4475 296.113 89.3897C295.492 88.0135 294.581 87.3564 293.694 86.167C292.962 85.1857 292.604 84.0579 291.798 83.1087C291.105 82.2935 290.318 81.5485 289.577 80.7755C288.643 79.7993 287.953 78.613 286.981 77.6848C287.121 77.8188 286.134 77.0368 286.184 77.0618C285.965 76.9504 285.261 76.861 285.363 76.9215C283.895 76.0586 282.056 72.9004 279.847 74.5738C278.685 75.4539 279.242 77.068 280.053 77.9446C280.402 78.3212 282.212 80.1774 282.604 79.3946C283.026 79.9931 284.326 82.8861 285.408 82.0571C285.298 83.0458 285.87 82.7177 286.248 83.3861C286.497 83.8271 286.376 84.0435 286.557 84.7318C287.056 86.624 288.959 88.4721 289.973 90.1221C292.496 94.2288 295.279 98.1238 297.805 102.235C300.212 106.154 302.907 109.872 305.216 113.843C307.842 118.358 311.114 122.621 313.093 127.489C313.159 127.653 313.709 127.912 313.845 128.157C314.083 128.584 314.032 129.323 314.185 129.806C314.716 131.483 315.577 133.133 316.557 134.522C317.417 135.74 317.48 137.396 318.072 138.825C318.906 140.84 319.788 142.833 320.599 144.858C321.861 148.009 322.716 151.03 323.588 154.319C324.154 156.451 324.603 158.582 324.783 160.784C324.949 162.809 324.99 164.918 325.739 166.834C326.25 166.045 326.852 165.023 326.508 164.046Z" fill="black"/>
<path fill-rule="evenodd" clip-rule="evenodd" d="M37.7789 207.43C36.8719 207.247 36.0184 207.002 35.8262 205.961C35.6945 206.452 35.5633 206.943 35.4316 207.434C36.536 207.684 37.6407 207.935 38.745 208.185C38.4872 207.73 38.2989 207.535 37.7789 207.43Z" fill="black"/>
<path fill-rule="evenodd" clip-rule="evenodd" d="M40.2133 36.5131C40.282 36.2193 40.3711 35.9314 40.4809 35.6506C40.5555 35.9244 40.9211 36.5166 40.7082 36.7748C40.4371 37.1025 40.1629 36.917 40.2133 36.5131ZM44.6598 28.0528C44.9575 28.1841 45.6017 28.2095 45.9712 28.3204C45.0126 29.145 44.8438 28.9024 43.6044 28.8067C43.5493 27.9723 43.8883 27.7134 44.6598 28.0528ZM36.3507 48.7085C36.4793 48.7121 36.6082 48.7152 36.7375 48.7183C36.7453 48.355 36.7359 47.9921 36.7086 47.6296C38.0156 47.9152 37.2758 45.6312 36.8652 45.1577C38.1402 45.2003 38.7613 41.1635 39.1652 40.3858C39.5238 39.6951 39.9301 39.428 40.1922 38.5858C40.4215 37.8486 40.6696 37.1854 41.0004 36.4881C41.7606 34.8849 42.7579 33.4291 42.5739 31.5607C43.218 32.9626 43.7844 31.563 44.193 30.8927C44.8512 29.8126 46.4571 28.4345 46.6278 27.1516C46.7786 26.0223 45.9395 25.9626 46.4349 24.9153C46.9357 23.8551 47.3474 23.9614 48.2247 23.6223C48.8083 23.3965 48.9243 23.6707 49.3361 22.934C49.6029 22.457 49.5087 22.1016 49.8505 21.7105C49.9915 21.8332 50.1521 21.884 50.3318 21.8629C50.6091 21.4969 50.7912 21.0891 50.8775 20.6394C51.1037 20.0324 51.213 19.475 51.5537 18.8968C51.8767 18.3492 52.4502 16.8839 52.7541 16.6198C53.0767 16.3393 54.9068 16.4819 54.899 16.4921C55.6549 15.5413 54.2678 14.594 56.1885 14.7944C55.8092 14.0881 57.1416 13.2116 57.5284 12.8186C58.4944 11.8377 58.5713 11.3838 58.7753 10.1502C58.8788 9.52129 58.203 9.59395 59.1088 9.45059C59.4835 9.3916 59.8428 9.87051 60.1132 9.8002C61.3065 9.49082 60.0581 9.54981 60.3874 9.06347C60.4913 8.90917 61.0222 8.28651 61.0171 8.29315C60.9913 8.3244 61.1366 7.75135 61.2569 7.60408C61.4851 7.58455 61.7097 7.5447 61.9304 7.48455C62.0425 7.25798 62.1417 7.02595 62.2276 6.78844C63.0913 6.06812 64.3835 5.74585 64.9808 4.95444C65.3671 4.44271 65.2515 3.94153 65.7507 3.43137C66.2261 2.94543 66.855 3.29738 66.9492 2.19971C67.0691 0.803212 65.5691 0.181721 64.9554 1.59111C63.2913 -0.458522 56.3358 7.06149 55.5322 8.04393C52.042 12.3088 48.6115 16.6792 45.7485 21.3953C42.959 25.9907 40.6696 30.8259 38.8801 35.8943C38.0172 38.3381 37.4918 40.7709 36.9648 43.2987C36.7879 44.1452 35.4656 47.9175 36.016 48.7617C36.1273 48.7441 36.239 48.7261 36.3507 48.7085Z" fill="black"/>
<path fill-rule="evenodd" clip-rule="evenodd" d="M311.083 153.295C311.671 152.903 311.671 152.903 311.774 152.162C310.986 152.306 310.986 152.306 311.083 153.295Z" fill="black"/>
<path fill-rule="evenodd" clip-rule="evenodd" d="M21.2996 203.151C21.3069 203.15 21.3123 203.152 21.3166 203.156C21.3042 203.14 21.2594 203.093 21.2996 203.151Z" fill="black"/>
<path fill-rule="evenodd" clip-rule="evenodd" d="M20.9053 203.547C21.0869 203.94 21.3787 204.037 21.7811 203.839C21.9397 204.066 20.4053 202.426 20.9053 203.547Z" fill="black"/>
<path fill-rule="evenodd" clip-rule="evenodd" d="M47.438 24.3674C46.5173 26.1725 47.6705 24.8596 47.6115 25.446C47.6501 25.0608 47.8099 24.512 47.438 24.3674Z" fill="black"/>
<path fill-rule="evenodd" clip-rule="evenodd" d="M197.124 52.305C197.523 55.5418 201.951 54.0109 202.947 52.0531C203.673 50.6276 205.504 44.9951 203.534 43.8053C202.073 42.9232 201.761 46.7249 201.4 47.5741C200.797 48.9964 200.325 47.9885 198.984 48.3534C197.503 48.7561 196.959 50.9628 197.124 52.305Z" fill="black"/>
<path fill-rule="evenodd" clip-rule="evenodd" d="M192.286 46.382C193.869 46.7336 195.421 46.5523 196.545 45.3023C197.168 44.6101 197.996 43.2371 196.875 42.5671C195.859 41.9605 194.707 43.3812 193.637 43.0874C192.182 42.6878 192.931 41.1276 192.432 40.0972C190.598 41.1534 189.574 45.7797 192.286 46.382Z" fill="black"/>
<path fill-rule="evenodd" clip-rule="evenodd" d="M193.927 54.5538C192.401 54.5507 192.389 56.4273 193.185 57.2316C193.948 58.0012 195.875 58.7801 196.908 58.1816C198.946 57.0004 195.162 54.6757 193.927 54.5538Z" fill="black"/>
<path fill-rule="evenodd" clip-rule="evenodd" d="M105.149 129.179C105.474 129.338 106.435 130.152 106.839 129.784C106.268 129.209 105.697 128.633 105.126 128.058C104.81 128.404 104.594 128.91 105.149 129.179Z" fill="black"/>
<path fill-rule="evenodd" clip-rule="evenodd" d="M97.9399 46.8494C97.7777 46.9705 97.6152 47.0912 97.4531 47.2119C98.0004 47.6677 97.9867 47.8033 98.5383 47.3716C98.3746 47.156 98.1754 46.9822 97.9399 46.8494Z" fill="black"/>
<path fill-rule="evenodd" clip-rule="evenodd" d="M201.35 154.24C201.043 153.689 200.464 154.705 200.072 154.87C199.434 155.138 198.911 153.716 199.094 155.421C197.653 154.761 196.779 156.275 195.849 157.063C194.536 158.177 192.93 158.781 192.055 160.363C196.177 161.328 200.706 157.774 203.78 155.439C204.282 155.058 206.789 153.135 205.09 152.949C204.395 152.873 201.865 155.166 201.35 154.24Z" fill="black"/>
<path fill-rule="evenodd" clip-rule="evenodd" d="M200.127 150.902C200.935 150.266 199.193 150.208 198.918 150.141C198.942 150.647 198.965 151.153 198.989 151.659C199.379 151.422 199.758 151.17 200.127 150.902Z" fill="black"/>
<path fill-rule="evenodd" clip-rule="evenodd" d="M197.095 153.024C197.336 152.873 198.009 152.402 197.552 152.052C197.138 152.315 196.842 152.744 196.777 153.235C196.883 153.164 196.989 153.094 197.095 153.024Z" fill="black"/>
<path fill-rule="evenodd" clip-rule="evenodd" d="M130.332 112.005C129.816 112.207 129.584 112.527 129.639 112.965C130.432 112.803 130.28 112.054 130.332 112.005Z" fill="black"/>
</svg>
