<svg width="24" height="24" viewBox="0 0 24 24" fill="none" xmlns="http://www.w3.org/2000/svg">
<path d="M13.8818 20.5591C12.6565 18.1086 10.8006 16.2415 9.21875 14.9761C8.43244 14.3471 7.7256 13.8762 7.21973 13.5649C6.96743 13.4097 6.76598 13.2948 6.63086 13.2202C6.56336 13.183 6.51175 13.1561 6.47949 13.1392C6.46348 13.1308 6.45187 13.124 6.44531 13.1206L6.44141 13.1187L6.44141 10.8833C6.44236 10.8828 6.44363 10.8813 6.44531 10.8804C6.45177 10.8771 6.46376 10.871 6.47949 10.8628C6.51171 10.8459 6.56344 10.818 6.63086 10.7808C6.76594 10.7062 6.96752 10.5912 7.21973 10.436C7.72565 10.1247 8.43232 9.65306 9.21875 9.02393C10.8006 7.75841 12.6565 5.8915 13.8818 3.44092L15 4.00049L16.1182 4.55908C14.677 7.44137 12.5325 9.57501 10.7812 10.9761C10.2847 11.3733 9.81453 11.7145 9.39648 12.0005C9.81457 12.2865 10.2847 12.6267 10.7812 13.0239C12.5326 14.425 14.6769 16.5592 16.1182 19.4419L13.8818 20.5591Z" fill="black"/>
</svg>
