<svg width="40" height="40" viewBox="0 0 40 40" fill="none" xmlns="http://www.w3.org/2000/svg">
<path d="M20 0.5C30.7696 0.5 39.5 9.23045 39.5 20C39.5 30.7696 30.7696 39.5 20 39.5C9.23045 39.5 0.5 30.7696 0.5 20C0.5 9.23045 9.23045 0.5 20 0.5Z" fill="white"/>
<path d="M20 0.5C30.7696 0.5 39.5 9.23045 39.5 20C39.5 30.7696 30.7696 39.5 20 39.5C9.23045 39.5 0.5 30.7696 0.5 20C0.5 9.23045 9.23045 0.5 20 0.5Z" stroke="#E4E4E7"/>
<path d="M19.5 19.5L19.5277 19.4862C19.9097 19.2951 20.3399 19.6402 20.2363 20.0547L19.7637 21.9453C19.6601 22.3598 20.0903 22.7049 20.4723 22.5138L20.5 22.5M26 20C26 23.3137 23.3137 26 20 26C16.6863 26 14 23.3137 14 20C14 16.6863 16.6863 14 20 14C23.3137 14 26 16.6863 26 20ZM20 17.5H20.005V17.505H20V17.5Z" stroke="#09090B" stroke-linecap="round" stroke-linejoin="round"/>
</svg>
