<svg width="40" height="40" viewBox="0 0 40 40" fill="none" xmlns="http://www.w3.org/2000/svg">
<path d="M0 20C0 8.95431 8.95431 0 20 0C31.0457 0 40 8.95431 40 20C40 31.0457 31.0457 40 20 40C8.95431 40 0 31.0457 0 20Z" fill="#F4F4F5"/>
<path d="M11.642 26H9.39205L13.4886 14.3636H16.0909L20.1932 26H17.9432L14.8352 16.75H14.7443L11.642 26ZM11.7159 21.4375H17.8523V23.1307H11.7159V21.4375ZM27.8622 17.5625C27.8092 17.0663 27.5857 16.6799 27.1918 16.4034C26.8016 16.1269 26.294 15.9886 25.669 15.9886C25.2296 15.9886 24.8527 16.0549 24.5384 16.1875C24.224 16.3201 23.9834 16.5 23.8168 16.7273C23.6501 16.9545 23.5649 17.214 23.5611 17.5057C23.5611 17.7481 23.616 17.9583 23.7259 18.1364C23.8395 18.3144 23.9929 18.4659 24.1861 18.5909C24.3793 18.7121 24.5933 18.8144 24.8281 18.8977C25.063 18.9811 25.2997 19.0511 25.5384 19.108L26.6293 19.3807C27.0687 19.483 27.491 19.6212 27.8963 19.7955C28.3054 19.9697 28.6709 20.1894 28.9929 20.4545C29.3187 20.7197 29.5762 21.0398 29.7656 21.4148C29.955 21.7898 30.0497 22.2292 30.0497 22.733C30.0497 23.4148 29.8755 24.0152 29.527 24.5341C29.1785 25.0492 28.6747 25.4527 28.0156 25.7443C27.3603 26.0322 26.5668 26.1761 25.6349 26.1761C24.7296 26.1761 23.9437 26.036 23.277 25.7557C22.6141 25.4754 22.0952 25.0663 21.7202 24.5284C21.349 23.9905 21.1482 23.3352 21.1179 22.5625H23.1918C23.2221 22.9678 23.3471 23.3049 23.5668 23.5739C23.7865 23.8428 24.0724 24.0436 24.4247 24.1761C24.7808 24.3087 25.1785 24.375 25.6179 24.375C26.0762 24.375 26.4777 24.3068 26.8224 24.1705C27.1709 24.0303 27.4437 23.8371 27.6406 23.5909C27.8376 23.3409 27.938 23.0492 27.9418 22.7159C27.938 22.4129 27.849 22.1629 27.6747 21.9659C27.5005 21.7652 27.2562 21.5985 26.9418 21.4659C26.6312 21.3295 26.2675 21.2083 25.8509 21.1023L24.527 20.7614C23.5687 20.5152 22.8111 20.142 22.2543 19.642C21.7012 19.1383 21.4247 18.4697 21.4247 17.6364C21.4247 16.9508 21.6103 16.3504 21.9815 15.8352C22.3565 15.3201 22.866 14.9205 23.5099 14.6364C24.1539 14.3485 24.883 14.2045 25.6974 14.2045C26.5232 14.2045 27.2467 14.3485 27.8679 14.6364C28.4929 14.9205 28.9834 15.3163 29.3395 15.8239C29.6955 16.3277 29.8793 16.9072 29.8906 17.5625H27.8622Z" fill="#09090B"/>
</svg>
