<svg width="40" height="40" viewBox="0 0 40 40" fill="none" xmlns="http://www.w3.org/2000/svg">
<path d="M20 0.5C30.7696 0.5 39.5 9.23045 39.5 20C39.5 30.7696 30.7696 39.5 20 39.5C9.23045 39.5 0.5 30.7696 0.5 20C0.5 9.23045 9.23045 0.5 20 0.5Z" fill="white"/>
<path d="M20 0.5C30.7696 0.5 39.5 9.23045 39.5 20C39.5 30.7696 30.7696 39.5 20 39.5C9.23045 39.5 0.5 30.7696 0.5 20C0.5 9.23045 9.23045 0.5 20 0.5Z" stroke="#E4E4E7"/>
<path d="M22.5 18V15.5C22.5 14.6716 21.8284 14 21 14L17 14C16.1716 14 15.5 14.6716 15.5 15.5L15.5 24.5C15.5 25.3284 16.1716 26 17 26H21C21.8284 26 22.5 25.3284 22.5 24.5V22M24.5 22L26.5 20M26.5 20L24.5 18M26.5 20L18 20" stroke="#09090B" stroke-linecap="round" stroke-linejoin="round"/>
</svg>
