<svg width="38" height="37" viewBox="0 0 38 37" fill="none" xmlns="http://www.w3.org/2000/svg">
<path d="M27.833 32.375C30.3873 32.375 32.458 30.3043 32.458 27.75C32.458 25.1957 30.3873 23.125 27.833 23.125C25.2787 23.125 23.208 25.1957 23.208 27.75C23.208 30.3043 25.2787 32.375 27.833 32.375Z" stroke="black" stroke-width="2" stroke-linecap="round" stroke-linejoin="round"/>
<path d="M9.33301 13.875C11.8873 13.875 13.958 11.8043 13.958 9.25C13.958 6.69568 11.8873 4.625 9.33301 4.625C6.77869 4.625 4.70801 6.69568 4.70801 9.25C4.70801 11.8043 6.77869 13.875 9.33301 13.875Z" stroke="black" stroke-width="2" stroke-linecap="round" stroke-linejoin="round"/>
<path d="M20.1248 9.25H24.7498C25.5675 9.25 26.3518 9.57485 26.93 10.1531C27.5082 10.7313 27.8331 11.5156 27.8331 12.3333V23.125" stroke="black" stroke-width="2" stroke-linecap="round" stroke-linejoin="round"/>
<path d="M9.33301 13.875V32.375" stroke="black" stroke-width="2" stroke-linecap="round" stroke-linejoin="round"/>
</svg>
