<svg width="165" height="33" viewBox="0 0 165 33" fill="none" xmlns="http://www.w3.org/2000/svg">
<mask id="mask0_114_316" style="mask-type:luminance" maskUnits="userSpaceOnUse" x="0" y="0" width="33" height="32">
<path d="M33 0H0V32H33V0Z" fill="white"/>
</mask>
<g mask="url(#mask0_114_316)">
<path d="M-8.00752 -10.6164C-7.94617 -14.815 -4.51802 -18.5383 -1.73577 -15.3933C7.48141 -4.9744 11.3366 33.0689 24.1031 3.1408C25.2541 0.4426 28.8705 -0.313499 30.8113 1.8862C32.4469 3.7398 31.9568 6.6594 30.0226 8.1989C12.4227 22.2069 -4.02877 60.1831 -8.21774 3.7724L-8.00752 -10.6164Z" fill="url(#paint0_linear_114_316)"/>
<path d="M19.6285 2.3202C-0.58912 -12.8591 2.81183 0.0422993 11.6266 5.1131C17.5192 8.5029 27.0062 11.0152 29.4475 17.3597L30.0291 18.8713C32.3258 24.8399 28.5427 31.62 22.2227 32.5986C13.7751 33.9066 5.08991 34.5295 4.00191 30.5001C2.32408 24.2864 48.5037 23.9995 19.6285 2.3202Z" fill="url(#paint1_linear_114_316)"/>
</g>
<path style="fill: rgb(255, 255, 255);" d="M40.28 32V4H49.72V32H40.28ZM65.5044 32.64C63.1577 32.64 60.891 32.3733 58.7044 31.84C56.5177 31.3067 54.7177 30.6133 53.3044 29.76L56.3444 22.88C57.6777 23.6533 59.1577 24.28 60.7844 24.76C62.4377 25.2133 64.0377 25.44 65.5844 25.44C66.491 25.44 67.1977 25.3867 67.7044 25.28C68.2377 25.1467 68.6244 24.9733 68.8644 24.76C69.1044 24.52 69.2244 24.24 69.2244 23.92C69.2244 23.4133 68.9444 23.0133 68.3844 22.72C67.8244 22.4267 67.0777 22.1867 66.1444 22C65.2377 21.7867 64.2377 21.5733 63.1444 21.36C62.051 21.12 60.9444 20.8133 59.8244 20.44C58.731 20.0667 57.7177 19.5733 56.7844 18.96C55.8777 18.3467 55.1444 17.5467 54.5844 16.56C54.0244 15.5467 53.7444 14.2933 53.7444 12.8C53.7444 11.0667 54.2244 9.4933 55.1844 8.08C56.171 6.64 57.6244 5.4933 59.5444 4.64C61.491 3.7867 63.9044 3.36 66.7844 3.36C68.6777 3.36 70.5444 3.56 72.3844 3.96C74.2244 4.36 75.8777 4.9733 77.3444 5.8L74.5044 12.64C73.1177 11.9467 71.771 11.4267 70.4644 11.08C69.1844 10.7333 67.931 10.56 66.7044 10.56C65.7977 10.56 65.0777 10.64 64.5444 10.8C64.011 10.96 63.6244 11.1733 63.3844 11.44C63.171 11.7067 63.0644 12 63.0644 12.32C63.0644 12.8 63.3444 13.1867 63.9044 13.48C64.4644 13.7467 65.1977 13.9733 66.1044 14.16C67.0377 14.3467 68.051 14.5467 69.1444 14.76C70.2644 14.9733 71.371 15.2667 72.4644 15.64C73.5577 16.0133 74.5577 16.5067 75.4644 17.12C76.3977 17.7333 77.1444 18.5333 77.7044 19.52C78.2644 20.5067 78.5444 21.7333 78.5444 23.2C78.5444 24.9067 78.051 26.48 77.0644 27.92C76.1044 29.3333 74.6644 30.48 72.7444 31.36C70.8244 32.2133 68.411 32.64 65.5044 32.64ZM82.1534 32V4H89.9134L101.113 22.28H97.033L107.913 4H115.673L115.753 32H107.153L107.073 16.96H108.433L100.993 29.48H96.833L89.0734 16.96H90.7534V32H82.1534ZM118.078 32L130.318 4H139.598L151.838 32H142.078L133.038 8.48H136.718L127.678 32H118.078ZM125.358 27.12L127.758 20.32H140.638L143.038 27.12H125.358ZM159.155 32.4C157.662 32.4 156.408 31.92 155.395 30.96C154.382 29.9733 153.875 28.72 153.875 27.2C153.875 25.6533 154.382 24.4133 155.395 23.48C156.408 22.5467 157.662 22.08 159.155 22.08C160.648 22.08 161.902 22.5467 162.915 23.48C163.928 24.4133 164.435 25.6533 164.435 27.2C164.435 28.72 163.928 29.9733 162.915 30.96C161.902 31.92 160.648 32.4 159.155 32.4Z" fill="black"/>
<defs>
<linearGradient id="paint0_linear_114_316" x1="33.8643" y1="56.3416" x2="-44.5834" y2="-7.34989" gradientUnits="userSpaceOnUse">
<stop offset="0.32" stop-color="#FF4A4A"/>
<stop offset="0.57" stop-color="#FF9900"/>
<stop offset="0.72" stop-color="#FFD9A1"/>
<stop offset="0.76" stop-color="#FFC671"/>
<stop offset="0.83" stop-color="#FFC671"/>
</linearGradient>
<linearGradient id="paint1_linear_114_316" x1="31.5" y1="32" x2="20.7986" y2="15.0031" gradientUnits="userSpaceOnUse">
<stop stop-color="#FCC6D2"/>
<stop offset="0.313588" stop-color="#FF426B"/>
<stop offset="0.76942" stop-color="#246EFF"/>
</linearGradient>
</defs>
</svg>
