<svg width="75" height="66" viewBox="0 0 75 66" fill="none" xmlns="http://www.w3.org/2000/svg">
<g clip-path="url(#clip0_114_334)">
<mask id="mask0_114_334" style="mask-type:luminance" maskUnits="userSpaceOnUse" x="0" y="0" width="75" height="66">
<path d="M70 0H5C2.23858 0 0 2.23858 0 5V61C0 63.7614 2.23858 66 5 66H70C72.7614 66 75 63.7614 75 61V5C75 2.23858 72.7614 0 70 0Z" fill="white"/>
</mask>
<g mask="url(#mask0_114_334)">
<path d="M0 3C0 1.34315 1.34315 0 3 0H72C73.6569 0 75 1.34315 75 3V63C75 64.6569 73.6569 66 72 66H3C1.34315 66 0 64.6569 0 63V3Z" fill="white"/>
<path d="M-4.15625 -3.42587C-4.15625 -9.38668 3.02019 -12.5753 7.74233 -8.93768C39.6096 15.6109 67.1567 16.4675 99.2695 -8.75677C102.84 -11.5617 108.305 -9.06542 108.208 -4.52557C108.154 -2.03786 106.332 0.0483685 103.892 0.535979C59.7833 9.35054 9.08079 42.5819 -3.89386 -1.57764C-4.06707 -2.16718 -4.15625 -2.81142 -4.15625 -3.42587Z" fill="url(#paint0_linear_114_334)"/>
<g filter="url(#filter0_ddd_114_334)">
<path d="M20.9336 50.0984C20.9047 64.9003 38.1898 58.6244 74.648 38.3979C78.8748 36.053 83.8242 40.1009 82.3201 44.6946C81.7316 46.4918 80.2356 47.8253 78.3998 48.279C51.6496 54.8912 4.33471 78.6174 1.78345 68.6631C-0.865186 58.329 20.9655 33.765 20.9336 50.0984Z" fill="url(#paint1_linear_114_334)"/>
</g>
<path d="M10.969 39V27.1H14.981V39H10.969ZM21.6894 39.272C20.692 39.272 19.7287 39.1587 18.7994 38.932C17.87 38.7053 17.105 38.4107 16.5044 38.048L17.7964 35.124C18.363 35.4527 18.992 35.719 19.6834 35.923C20.386 36.1157 21.066 36.212 21.7234 36.212C22.1087 36.212 22.409 36.1893 22.6244 36.144C22.851 36.0873 23.0154 36.0137 23.1174 35.923C23.2194 35.821 23.2704 35.702 23.2704 35.566C23.2704 35.3507 23.1514 35.1807 22.9134 35.056C22.6754 34.9313 22.358 34.8293 21.9614 34.75C21.576 34.6593 21.151 34.5687 20.6864 34.478C20.2217 34.376 19.7514 34.2457 19.2754 34.087C18.8107 33.9283 18.38 33.7187 17.9834 33.458C17.598 33.1973 17.2864 32.8573 17.0484 32.438C16.8104 32.0073 16.6914 31.4747 16.6914 30.84C16.6914 30.1033 16.8954 29.4347 17.3034 28.834C17.7227 28.222 18.3404 27.7347 19.1564 27.372C19.9837 27.0093 21.0094 26.828 22.2334 26.828C23.038 26.828 23.8314 26.913 24.6134 27.083C25.3954 27.253 26.098 27.5137 26.7214 27.865L25.5144 30.772C24.925 30.4773 24.3527 30.2563 23.7974 30.109C23.2534 29.9617 22.7207 29.888 22.1994 29.888C21.814 29.888 21.508 29.922 21.2814 29.99C21.0547 30.058 20.8904 30.1487 20.7884 30.262C20.6977 30.3753 20.6524 30.5 20.6524 30.636C20.6524 30.84 20.7714 31.0043 21.0094 31.129C21.2474 31.2423 21.559 31.3387 21.9444 31.418C22.341 31.4973 22.7717 31.5823 23.2364 31.673C23.7124 31.7637 24.1827 31.8883 24.6474 32.047C25.112 32.2057 25.537 32.4153 25.9224 32.676C26.319 32.9367 26.6364 33.2767 26.8744 33.696C27.1124 34.1153 27.2314 34.6367 27.2314 35.26C27.2314 35.9853 27.0217 36.654 26.6024 37.266C26.1944 37.8667 25.5824 38.354 24.7664 38.728C23.9504 39.0907 22.9247 39.272 21.6894 39.272ZM28.7652 39V27.1H32.0632L36.8232 34.869H35.0892L39.7132 27.1H43.0112L43.0452 39H39.3902L39.3562 32.608H39.9342L36.7722 37.929H35.0042L31.7062 32.608H32.4202V39H28.7652ZM44.0329 39L49.2349 27.1H53.1789L58.3809 39H54.2329L50.3909 29.004H51.9549L48.1129 39H44.0329ZM47.1269 36.926L48.1469 34.036H53.6209L54.6409 36.926H47.1269ZM61.4909 39.17C60.8562 39.17 60.3235 38.966 59.8929 38.558C59.4622 38.1387 59.2469 37.606 59.2469 36.96C59.2469 36.3027 59.4622 35.7757 59.8929 35.379C60.3235 34.9823 60.8562 34.784 61.4909 34.784C62.1255 34.784 62.6582 34.9823 63.0889 35.379C63.5195 35.7757 63.7349 36.3027 63.7349 36.96C63.7349 37.606 63.5195 38.1387 63.0889 38.558C62.6582 38.966 62.1255 39.17 61.4909 39.17Z" fill="black"/>
</g>
</g>
<defs>
<filter id="filter0_ddd_114_334" x="-8.45669" y="29.5722" width="101.07" height="53.3925" filterUnits="userSpaceOnUse" color-interpolation-filters="sRGB">
<feFlood flood-opacity="0" result="BackgroundImageFix"/>
<feColorMatrix in="SourceAlpha" type="matrix" values="0 0 0 0 0 0 0 0 0 0 0 0 0 0 0 0 0 0 127 0" result="hardAlpha"/>
<feOffset dy="0.415088"/>
<feGaussianBlur stdDeviation="1.1069"/>
<feColorMatrix type="matrix" values="0 0 0 0 0 0 0 0 0 0 0 0 0 0 0 0 0 0 0.0721905 0"/>
<feBlend mode="normal" in2="BackgroundImageFix" result="effect1_dropShadow_114_334"/>
<feColorMatrix in="SourceAlpha" type="matrix" values="0 0 0 0 0 0 0 0 0 0 0 0 0 0 0 0 0 0 127 0" result="hardAlpha"/>
<feOffset dy="0.997515"/>
<feGaussianBlur stdDeviation="2.66004"/>
<feColorMatrix type="matrix" values="0 0 0 0 0 0 0 0 0 0 0 0 0 0 0 0 0 0 0.10254 0"/>
<feBlend mode="normal" in2="effect1_dropShadow_114_334" result="effect2_dropShadow_114_334"/>
<feColorMatrix in="SourceAlpha" type="matrix" values="0 0 0 0 0 0 0 0 0 0 0 0 0 0 0 0 0 0 127 0" result="hardAlpha"/>
<feOffset dy="1.87823"/>
<feGaussianBlur stdDeviation="5.00862"/>
<feColorMatrix type="matrix" values="0 0 0 0 0 0 0 0 0 0 0 0 0 0 0 0 0 0 0.126781 0"/>
<feBlend mode="normal" in2="effect2_dropShadow_114_334" result="effect3_dropShadow_114_334"/>
<feBlend mode="normal" in="SourceGraphic" in2="effect3_dropShadow_114_334" result="shape"/>
</filter>
<linearGradient id="paint0_linear_114_334" x1="98.7221" y1="39.5732" x2="56.1876" y2="-69.888" gradientUnits="userSpaceOnUse">
<stop offset="0.32" stop-color="#FF4A4A"/>
<stop offset="0.57" stop-color="#FF9900"/>
<stop offset="0.72" stop-color="#FFD9A1"/>
<stop offset="0.76" stop-color="#FFC671"/>
<stop offset="0.83" stop-color="#FFC671"/>
</linearGradient>
<linearGradient id="paint1_linear_114_334" x1="42.4277" y1="67.9286" x2="35.2534" y2="55.9264" gradientUnits="userSpaceOnUse">
<stop offset="0.095" stop-color="#FCC6D2"/>
<stop offset="0.37" stop-color="#FF426B"/>
<stop offset="1" stop-color="#246EFF"/>
</linearGradient>
<clipPath id="clip0_114_334">
<rect width="75" height="66" fill="white"/>
</clipPath>
</defs>
</svg>
