<svg width="179" height="68" viewBox="0 0 179 68" fill="none" xmlns="http://www.w3.org/2000/svg">
<g clip-path="url(#clip0_114_312)">
<mask id="mask0_114_312" style="mask-type:luminance" maskUnits="userSpaceOnUse" x="0" y="0" width="179" height="68">
<path d="M179 0H0V68H179V0Z" fill="white"/>
</mask>
<g mask="url(#mask0_114_312)">
<mask id="mask1_114_312" style="mask-type:luminance" maskUnits="userSpaceOnUse" x="6" y="20" width="33" height="32">
<path d="M39 20H6V52H39V20Z" fill="white"/>
</mask>
<g mask="url(#mask1_114_312)">
<path d="M-2.00752 9.38357C-1.94617 5.18499 1.48198 1.4617 4.26423 4.60668C13.4814 15.0256 17.3366 53.0689 30.1031 23.1408C31.2541 20.4426 34.8705 19.6865 36.8113 21.8862C38.4469 23.7398 37.9568 26.6594 36.0226 28.1989C18.4227 42.2069 1.97123 80.1831 -2.21774 23.7724L-2.00752 9.38357Z" fill="url(#paint0_linear_114_312)"/>
<path d="M25.6285 22.3202C5.41088 7.14095 8.81183 20.0423 17.6266 25.1131C23.5192 28.5029 33.0062 31.0152 35.4475 37.3597L36.0291 38.8713C38.3258 44.8399 34.5427 51.62 28.2227 52.5986C19.7751 53.9066 11.0899 54.5295 10.0019 50.5001C8.32408 44.2864 54.5037 43.9995 25.6285 22.3202Z" fill="url(#paint1_linear_114_312)"/>
</g>
<path d="M46.28 52V24H55.72V52H46.28ZM71.5044 52.64C69.1577 52.64 66.891 52.3733 64.7044 51.84C62.5177 51.3067 60.7177 50.6133 59.3044 49.76L62.3444 42.88C63.6777 43.6533 65.1577 44.28 66.7844 44.76C68.4377 45.2133 70.0377 45.44 71.5844 45.44C72.491 45.44 73.1977 45.3867 73.7044 45.28C74.2377 45.1467 74.6244 44.9733 74.8644 44.76C75.1044 44.52 75.2244 44.24 75.2244 43.92C75.2244 43.4133 74.9444 43.0133 74.3844 42.72C73.8244 42.4267 73.0777 42.1867 72.1444 42C71.2377 41.7867 70.2377 41.5733 69.1444 41.36C68.051 41.12 66.9444 40.8133 65.8244 40.44C64.731 40.0667 63.7177 39.5733 62.7844 38.96C61.8777 38.3467 61.1444 37.5467 60.5844 36.56C60.0244 35.5467 59.7444 34.2933 59.7444 32.8C59.7444 31.0667 60.2244 29.4933 61.1844 28.08C62.171 26.64 63.6244 25.4933 65.5444 24.64C67.491 23.7867 69.9044 23.36 72.7844 23.36C74.6777 23.36 76.5444 23.56 78.3844 23.96C80.2244 24.36 81.8777 24.9733 83.3444 25.8L80.5044 32.64C79.1177 31.9467 77.771 31.4267 76.4644 31.08C75.1844 30.7333 73.931 30.56 72.7044 30.56C71.7977 30.56 71.0777 30.64 70.5444 30.8C70.011 30.96 69.6244 31.1733 69.3844 31.44C69.171 31.7067 69.0644 32 69.0644 32.32C69.0644 32.8 69.3444 33.1867 69.9044 33.48C70.4644 33.7467 71.1977 33.9733 72.1044 34.16C73.0377 34.3467 74.051 34.5467 75.1444 34.76C76.2644 34.9733 77.371 35.2667 78.4644 35.64C79.5577 36.0133 80.5577 36.5067 81.4644 37.12C82.3977 37.7333 83.1444 38.5333 83.7044 39.52C84.2644 40.5067 84.5444 41.7333 84.5444 43.2C84.5444 44.9067 84.051 46.48 83.0644 47.92C82.1044 49.3333 80.6644 50.48 78.7444 51.36C76.8244 52.2133 74.411 52.64 71.5044 52.64ZM88.1534 52V24H95.9134L107.113 42.28H103.033L113.913 24H121.673L121.753 52H113.153L113.073 36.96H114.433L106.993 49.48H102.833L95.0734 36.96H96.7534V52H88.1534ZM124.078 52L136.318 24H145.598L157.838 52H148.078L139.038 28.48H142.718L133.678 52H124.078ZM131.358 47.12L133.758 40.32H146.638L149.038 47.12H131.358ZM165.155 52.4C163.662 52.4 162.408 51.92 161.395 50.96C160.382 49.9733 159.875 48.72 159.875 47.2C159.875 45.6533 160.382 44.4133 161.395 43.48C162.408 42.5467 163.662 42.08 165.155 42.08C166.648 42.08 167.902 42.5467 168.915 43.48C169.928 44.4133 170.435 45.6533 170.435 47.2C170.435 48.72 169.928 49.9733 168.915 50.96C167.902 51.92 166.648 52.4 165.155 52.4Z" fill="black"/>
</g>
</g>
<defs>
<linearGradient id="paint0_linear_114_312" x1="39.8643" y1="76.3416" x2="-38.5834" y2="12.6501" gradientUnits="userSpaceOnUse">
<stop offset="0.32" stop-color="#FF4A4A"/>
<stop offset="0.57" stop-color="#FF9900"/>
<stop offset="0.72" stop-color="#FFD9A1"/>
<stop offset="0.76" stop-color="#FFC671"/>
<stop offset="0.83" stop-color="#FFC671"/>
</linearGradient>
<linearGradient id="paint1_linear_114_312" x1="37.5" y1="52" x2="26.7986" y2="35.0031" gradientUnits="userSpaceOnUse">
<stop stop-color="#FCC6D2"/>
<stop offset="0.313588" stop-color="#FF426B"/>
<stop offset="0.76942" stop-color="#246EFF"/>
</linearGradient>
<clipPath id="clip0_114_312">
<rect width="179" height="68" fill="white"/>
</clipPath>
</defs>
</svg>
